<?xml version="1.0" encoding="UTF-8" standalone="no"?>
<svg
   viewBox="0 0 1500 1500"
   width="1500"
   height="1500"
   version="1.1"
   id="svg794"
   sodipodi:docname="transistor-no-connection-2.svg"
   xml:space="preserve"
   inkscape:version="1.2.1 (9c6d41e410, 2022-07-14)"
   xmlns:inkscape="http://www.inkscape.org/namespaces/inkscape"
   xmlns:sodipodi="http://sodipodi.sourceforge.net/DTD/sodipodi-0.dtd"
   xmlns="http://www.w3.org/2000/svg"
   xmlns:svg="http://www.w3.org/2000/svg"><defs
     id="defs798" /><sodipodi:namedview
     id="namedview796"
     pagecolor="#ffffff"
     bordercolor="#000000"
     borderopacity="0.25"
     inkscape:showpageshadow="2"
     inkscape:pageopacity="0.0"
     inkscape:pagecheckerboard="0"
     inkscape:deskcolor="#d1d1d1"
     showgrid="true"
     inkscape:zoom="1.0746667"
     inkscape:cx="616.93548"
     inkscape:cy="523.88337"
     inkscape:window-width="1920"
     inkscape:window-height="1009"
     inkscape:window-x="-8"
     inkscape:window-y="-8"
     inkscape:window-maximized="1"
     inkscape:current-layer="svg794" /><g
     transform="translate(170.0 235.0) rotate(0.0 609.0 504.0) scale(0.8417880739778287 0.8423635316759608)"
     id="g698"><svg
       width="1446.92"
       height="1196.633"
       viewBox="0 0 1446.92 1196.633"
       version="1.1"
       id="svg696"><path
         d="M886.267 1196.628a327.29 327.29 0 0 1-16.146-.398c-119.689-5.946-224.737-76.528-303.788-204.117-131.157-211.69-225.654-264.054-281.832-270.705-42.349-5.015-63.712 15.591-64.6 16.471-2.347 2.325-6.141 2.323-8.476-.012a5.986 5.986 0 0 1-.028-8.455c1.033-1.042 25.836-25.451 73.91-19.99 36.794 4.181 76.924 24.678 119.275 60.922 54.332 46.499 112.186 118.986 171.951 215.449 53.61 86.529 148.167 191.198 294.182 198.452 58.296 2.899 118.943-10.607 175.37-39.05 42.653-21.5 81.809-51.188 112.571-85.075-5.418-11.014-8.567-23.937-9.12-38.43-1.261-33.112 15.363-53.84 32.398-59.694 11.06-3.799 21.562-1.112 27.411 7.013 10.997 15.277 2.429 43.447-23.508 77.286a338.19 338.19 0 0 1-12.531 15.38c11.092 16.896 29.542 26.812 53.547 27.86 38.967 1.712 84.034-20.271 120.563-58.775 31.147-32.831 70.93-93.021 83.563-193.326 8.686-68.954 2.986-139.196-16.481-203.134-17.822-58.535-46.141-107.624-79.74-138.225a170.705 170.705 0 0 0-6.743-5.834c-.307.609-.614 1.214-.925 1.817-17.681 34.34-41.451 58.333-68.741 69.386-24.524 9.936-47.289 8.042-62.446-5.193-13.841-12.084-19.35-31.708-14.378-51.214 6.446-25.29 29.066-44.56 60.51-51.546 26.884-5.973 54.61.328 81.239 18.253 12.036-28.348 19.703-62.091 21.57-98.448 3.088-60.121-9.427-119.883-36.19-172.826-31.186-61.692-79.352-110.124-143.16-143.949-45.9-24.333-95.9-38.854-148.61-43.161-45.581-3.727-92.385.157-139.108 11.537-88.266 21.497-152.933 63.858-175.664 94.121a6 6 0 0 1-9.594-7.207c23.975-31.917 91.285-76.378 182.419-98.573C922.912 1.554 970.997-2.427 1017.863 1.4c54.343 4.44 105.905 19.418 153.254 44.519 33.984 18.016 64.141 40.485 89.631 66.784 23.559 24.307 43.281 52.015 58.618 82.354 27.704 54.804 40.659 116.651 37.465 178.855-1.97 38.344-10.07 74.378-23.559 105.151 3.211 2.542 6.4 5.255 9.568 8.141 35.172 32.033 64.698 83.032 83.141 143.601 19.955 65.542 25.802 137.512 16.907 208.13-13.041 103.531-54.381 165.952-86.765 200.086-37.451 39.474-83.844 62.604-125.079 62.606-1.581 0-3.147-.034-4.713-.103-26.753-1.167-47.943-12.195-61.244-30.664-31.365 33.853-70.784 63.47-113.6 85.052-53.099 26.764-109.883 40.716-165.22 40.716zm305.322-224.325c-1.78 0-3.721.343-5.754 1.041-12.839 4.412-25.333 20.931-24.306 47.889.41 10.767 2.394 20.469 5.805 28.95a323.5 323.5 0 0 0 8.981-11.189c26.12-34.078 28.872-55.223 23.291-62.975-1.76-2.446-4.592-3.716-8.017-3.716zm70.21-508.984c-5.764 0-11.489.625-17.159 1.885-38.822 8.626-48.938 32.802-51.485 42.796-3.848 15.095.23 30.12 10.642 39.211 11.798 10.299 29.57 11.404 50.051 3.11 25.944-10.508 48.271-34.701 64.366-67.495-18.63-12.91-37.708-19.507-56.415-19.507z"
         id="path686" /><path
         d="M173.729 884.434c54.801-41.734 73.574-109.249 41.931-150.799s-101.719-41.402-156.52.332"
         fill="#fff"
         id="path688" /><path
         d="M173.734 890.434a5.999 5.999 0 0 1-3.639-10.773c25.469-19.396 43.665-45.073 51.236-72.303 7.404-26.63 3.695-51.521-10.444-70.088-14.139-18.566-37.166-28.802-64.789-28.701-28.262.06-57.853 10.775-83.322 30.171a5.999 5.999 0 1 1-7.269-9.547c27.539-20.973 59.702-32.559 90.566-32.624h.264c31.37 0 57.675 11.865 74.098 33.431 16.469 21.625 20.894 50.239 12.459 80.573-8.269 29.736-27.988 57.662-55.528 78.635a5.983 5.983 0 0 1-3.632 1.226zM6.005 833a5.999 5.999 0 0 1-3.639-10.773l58.225-44.342a5.997 5.997 0 0 1 8.408 1.139 5.999 5.999 0 0 1-1.139 8.408L9.635 831.774A5.971 5.971 0 0 1 6.005 833zm63.915 83.929a5.999 5.999 0 0 1-3.639-10.773l58.226-44.343a5.997 5.997 0 0 1 8.408 1.139 5.999 5.999 0 0 1-1.139 8.408L73.55 915.703a5.971 5.971 0 0 1-3.63 1.226z"
         id="path690" /><path
         d="m58.272 704.965 143.196 188.028-35.338 26.913L22.934 731.878z"
         fill="#fff"
         id="path692" /><path
         d="M166.151 925.872a5.995 5.995 0 0 1-4.774-2.366L18.19 735.486a5.998 5.998 0 0 1 1.139-8.409l35.337-26.911a6 6 0 0 1 8.408 1.138l143.188 188.021a5.999 5.999 0 0 1-1.139 8.408l-35.337 26.911a5.996 5.996 0 0 1-3.635 1.228zM31.372 732.989l135.917 178.474 25.791-19.642L57.162 713.349z"
         id="path694" /></svg></g><g
     transform="translate(423.0 387.0) rotate(0.0 358.0 480.5) scale(0.8281535183801503 0.8285318432979878)"
     id="g758"><svg
       width="864.574"
       height="1159.883"
       viewBox="0 0 864.574 1159.883"
       version="1.1"
       id="svg756"><path
         d="M84.9 507.407c-25 10-45.561-1-52.936 13.618C24.273 536.26 11 553.008 11 553.008c-22.633 19.943 37.761 53.907 58.824 38.231 5.005-3.725 7.927-8.421 8.748-13.262l17.439-9.032c7.553-3.308 8.958-13.538 8.958-13.538z"
         fill="#fff"
         id="path700" /><path
         d="M96.009 574.946a6 6 0 0 1-2.409-11.5c4.259-1.866 5.416-8.825 5.426-8.895a6 6 0 0 1 11.883 1.669c-.19 1.388-2.161 13.692-12.5 18.218a5.974 5.974 0 0 1-2.4.508z"
         id="path702" /><path
         d="M45.965 545.407c21 10 29.586 19.171 31 22 4 8 1.532 17.374-7.145 23.832-21.063 15.676-81.457-18.288-58.82-38.231z"
         fill="#fff"
         id="path704" /><path
         d="M55.615 601.206c-18.02 0-39.787-11.053-49.415-22.933-8.6-10.607-8.286-21.735.83-29.767a6 6 0 0 1 2.692-1.361l34.969-7.6a6.007 6.007 0 0 1 3.854.447c22.193 10.568 31.68 20.519 33.786 24.734 5.38 10.759 1.792 23.349-8.928 31.328-4.854 3.611-11.062 5.152-17.788 5.152zM13.9 558.517c-1.824 1.944-3.736 5.587 1.624 12.2 10.668 13.166 39.726 23.883 50.714 15.709 6.082-4.526 8.135-10.786 5.362-16.336-.911-1.6-8.085-9.391-26.382-18.381z"
         id="path706" /><path
         d="M84.9 507.408c-25 10-45.561-1-52.936 13.617C24.273 536.26 11 553.008 11 553.008s-1.751 9.95 8.922 11.076c13.268 1.4 26.117-18.5 26.117-18.5l21.546-4.17"
         fill="#fff"
         id="path708" /><path
         d="M21.268 570.155a18.867 18.867 0 0 1-1.979-.1c-6.2-.654-9.61-3.586-11.377-5.929-3.912-5.195-2.948-11.461-2.825-12.158a6.005 6.005 0 0 1 1.207-2.686c.129-.163 13-16.466 20.312-30.961 5.7-11.3 17.1-11.616 28.128-11.927 8.338-.233 17.79-.5 27.935-4.557a6 6 0 1 1 4.457 11.141C75 517.83 63.948 518.141 55.071 518.39c-11.315.318-15.478.831-17.752 5.338-6.581 13.037-16.872 26.844-20.4 31.44a3.59 3.59 0 0 0 .6 1.76 4.646 4.646 0 0 0 3.029 1.189c7.2.76 16.892-10.312 20.452-15.794a6.022 6.022 0 0 1 3.9-2.629l21.545-4.169a6 6 0 1 1 2.279 11.781l-19.137 3.7c-4.054 5.611-15.187 19.149-28.319 19.149z"
         id="path710" /><path
         d="M767.421 722.268c-10.214-27.293-86.78-176.73-121.92-244.916a24.627 24.627 0 0 1-5.482 14.57c-23.229 28.613-91.659 96.543-221.239 103.024-4.762.238-8.928-.113-12.078-2.965a153.262 153.262 0 0 1-1.737 17.426c-9.072 59.117 17.965 208.651 17.965 208.651s-39.965 39.349-95.965 116.349c-19.294 26.529-38.734 65.73-38.734 65.73l51.378 39.234s148.3-147.7 172.356-185.964c21.752-34.6 24.622-49 71.1-186.845l103.3 125.22c-7.145 66.054-5.757 136.807 13.068 248.614h65.833c9.719-111.815 9.914-111.326 16.511-189.195 7.077-83.501-2.704-97.801-14.356-128.933z"
         fill="#ff002a"
         id="path712" /><path
         d="M765.27 1046.4h-65.834a6 6 0 0 1-5.917-5c-17.182-102.055-21.09-174.089-13.384-247.738L585.3 678.707c-5.984 17.785-11.176 33.3-15.842 47.256-28.623 85.575-33.78 100.994-52.419 130.638C492.9 895 349.918 1037.572 343.843 1043.622a6 6 0 0 1-7.876.518l-51.377-39.234a6 6 0 0 1-1.733-7.434c.8-1.619 19.886-39.962 39.256-66.6 48.232-66.319 85.127-105.344 94.366-114.825-3.914-22.265-25.949-152.141-17.445-207.555a148.529 148.529 0 0 0 1.672-16.744 6 6 0 0 1 10.024-4.219c1.361 1.233 3.535 1.631 7.751 1.42 127.037-6.349 193.991-72.614 216.881-100.809a18.532 18.532 0 0 0 4.144-11.025 6 6 0 0 1 11.328-2.511c41.335 80.206 112.176 218.76 122.206 245.561 1.115 2.979 2.213 5.8 3.281 8.547 10.418 26.8 17.946 46.168 11.438 123-3.688 43.539-5.343 62.2-7.846 90.454-1.951 22.03-4.38 49.447-8.666 98.755a6 6 0 0 1-5.977 5.479zm-60.753-12h55.252c3.992-45.9 6.313-72.089 8.191-93.294 2.5-28.238 4.154-46.893 7.842-90.408 6.273-74.057-.832-92.336-10.667-117.633-1.084-2.791-2.2-5.661-3.333-8.689-9.559-25.54-79.136-161.683-115.067-231.518a30.858 30.858 0 0 1-2.057 2.849c-23.9 29.444-93.737 98.64-225.6 105.236a35.35 35.35 0 0 1-6.969-.232c-.3 3.106-.71 6.317-1.215 9.61-8.817 57.45 17.67 205.187 17.938 206.673a6 6 0 0 1-1.694 5.342c-.4.391-40.319 39.973-95.322 115.6-15.031 20.666-30.355 49.555-35.974 60.465l43.234 33.016c23.075-23.107 146.487-147.294 167.808-181.2 17.873-28.426 22.961-43.637 51.2-128.057 5.542-16.568 11.823-35.348 19.3-57.511a6 6 0 0 1 10.314-1.9L691 787.964a5.994 5.994 0 0 1 1.337 4.464c-7.809 72.155-4.289 142.562 12.18 241.972z"
         fill="#ff002a"
         id="path714" /><path
         d="M591.992 685.808a6.006 6.006 0 0 1-5.8-7.559l11.361-42.3a6 6 0 0 1 11.59 3.113l-11.362 42.3a6 6 0 0 1-5.789 4.446zm-284.031 335.599a6 6 0 0 1-4.695-9.731C339.61 965.892 375.728 928.8 404.748 899c31.469-32.319 56.325-57.846 62.556-75.579 4.953-14.1 1.915-29.319-2.685-52.36-6.6-33.051-15.633-78.315-8.629-154.2a6 6 0 0 1 11.95 1.1c-6.845 74.149 1.994 118.423 8.447 150.751 4.809 24.085 8.282 41.487 2.239 58.686-7.108 20.231-31.509 45.29-65.28 79.973-28.832 29.61-64.715 66.461-100.682 111.769a5.988 5.988 0 0 1-4.703 2.267z"
         id="path716" /><path
         d="M459.524 668.634a6 6 0 0 1-2.617-11.4c47.733-23.082 54.875-58.415 55.157-59.907a6 6 0 0 1 11.807 2.141c-.31 1.73-8.208 42.682-61.739 68.569a5.976 5.976 0 0 1-2.608.597zM680.7 801.026a6 6 0 0 1-5.148-9.087l15.4-25.684a6 6 0 1 1 10.291 6.173l-6.389 10.653 12.853-5a6 6 0 1 1 4.35 11.184l-29.19 11.351a5.973 5.973 0 0 1-2.167.41zm-3.531-246.432c-33.862 0-50.99-13.584-51.749-14.2a6 6 0 0 1 7.541-9.335c.117.091 4.337 3.361 12.565 6.366 7.677 2.805 20.513 5.947 38.113 4.99a6 6 0 0 1 .652 11.983q-3.673.202-7.122.196zm-237.211 274.33a6.008 6.008 0 0 1-1.893-.307l-21.26-7.068a6 6 0 0 1-1.086-10.9l24.5-14.014a6 6 0 0 1 5.957 10.417l-12.844 7.348 8.518 2.832a6 6 0 0 1-1.892 11.695z"
         id="path718" /><path
         d="M285.965 998.407s-30.228 30.446-47.278 56.315q-1.116 1.694-2.127 3.255l-13.449 20 85.184 75.908h78.3a113.548 113.548 0 0 0-.479-17.673c-1.363-12.226-1.348-26.89-30.17-40.1-42.985-19.7-14.985-55.7-14.985-55.7z"
         fill="#fff"
         id="path720" /><path
         d="M386.6 1159.883h-78.306a6 6 0 0 1-3.992-1.52l-85.183-75.908a6 6 0 0 1-.986-7.828l13.42-19.957q1.013-1.56 2.125-3.25c17.181-26.069 46.777-55.98 48.029-57.241a6 6 0 0 1 7.9-.541l55 42a6 6 0 0 1 1.094 8.452c-.093.122-10.326 13.641-7.051 26.856 1.972 7.96 8.634 14.591 19.8 19.708 30.4 13.933 32.149 30.708 33.427 42.957.068.651.135 1.3.206 1.934a118.958 118.958 0 0 1 .5 18.727 6 6 0 0 1-5.983 5.611zm-76.02-12h70.164a103.294 103.294 0 0 0-.586-11.008c-.074-.666-.144-1.339-.215-2.018-1.193-11.424-2.319-22.214-26.492-33.294-14.695-6.735-23.6-16.1-26.471-27.826-3.182-13 2.128-25.292 5.933-31.93l-46.351-35.4c-8.5 8.876-29.806 31.8-42.864 51.613q-1.1 1.674-2.1 3.217l-.057.084-10.526 15.654z"
         id="path722" /><path
         d="M385.761 1137.785h-66.929a6 6 0 0 1-4.007-1.534l-82.272-73.808a6 6 0 0 1 8.014-8.932l80.562 72.274h64.632a6 6 0 0 1 0 12z"
         id="path724" /><path
         d="M269.825 1093.826a6 6 0 0 1-5.3-8.8c17.3-32.849-7.439-52.107-8.5-52.91a6 6 0 0 1 7.179-9.616 53.376 53.376 0 0 1 14.429 18.177c5.221 10.711 9.025 28.069-2.491 49.94a6 6 0 0 1-5.317 3.209zm66.886 43.96a6 6 0 0 1-4.845-9.534l24.21-33.234a6 6 0 0 1 9.7 7.065l-24.21 33.235a5.994 5.994 0 0 1-4.855 2.468zm-2.924-77.186a6.033 6.033 0 0 1-.933-.073l-18.435-2.878a6 6 0 0 1 1.852-11.856l18.434 2.878a6 6 0 0 1-.918 11.929zm-17.64 22.456a6 6 0 0 1-.716-11.956l17.437-2.119a6 6 0 0 1 1.448 11.912l-17.438 2.119a6.232 6.232 0 0 1-.731.044zm12.153 21.633a6 6 0 0 1-2.8-11.308l16.85-8.885a6 6 0 0 1 5.6 10.614l-16.85 8.885a5.975 5.975 0 0 1-2.8.694z"
         id="path726" /><path
         d="M698.659 1040.4s-6.152 52.913-3.218 82.517v22.1h162.545s1.082-15.067.311-23.2c-1.026-10.818-6.3-18.824-33.667-24.784-58.458-12.742-56.33-56.633-56.33-56.633z"
         fill="#fff"
         id="path728" /><path
         d="M857.986 1151.011H695.442a6 6 0 0 1-6-6v-21.805c-2.895-29.949 3-81.324 3.256-83.5a6 6 0 0 1 5.96-5.307H768.3a6 6 0 0 1 5.993 6.291c-.058 1.558-.862 39.045 51.611 50.475 26.092 5.684 36.849 14.117 38.364 30.08.808 8.536-.255 23.564-.3 24.2a6 6 0 0 1-5.982 5.566zm-156.544-12h150.877a138.62 138.62 0 0 0 0-16.636c-.568-5.995-1.276-13.455-28.97-19.488-17.9-3.9-41.809-13.327-54.089-36.1a58.98 58.98 0 0 1-6.591-20.387H704.05c-1.437 14.053-4.938 52.715-2.638 75.925a5.853 5.853 0 0 1 .03.592z"
         id="path730" /><path
         d="M858.388 1128.913H695.442a6 6 0 0 1 0-12h162.946a6 6 0 0 1 0 12z"
         id="path732" /><path
         d="M742.564 1128.914a6 6 0 0 1-5.873-4.8c-2.523-12.383-10.219-22.048-22.875-28.726a66.545 66.545 0 0 0-19.372-6.6 6 6 0 0 1 1.629-11.889 77.581 77.581 0 0 1 22.97 7.685c15.983 8.314 26.151 21.157 29.4 37.14a6 6 0 0 1-5.884 7.2zm81.784-.001a6 6 0 0 1-6-6v-25.889a6 6 0 0 1 12 0v25.889a6 6 0 0 1-6 6zm-71.101-56.738a6 6 0 0 1-2.275-11.554l18.73-7.67a6 6 0 1 1 4.547 11.1l-18.73 7.671a5.977 5.977 0 0 1-2.272.453zm15.134 20.233a6 6 0 0 1-4.3-10.188l12.659-12.988a6 6 0 1 1 8.594 8.376l-12.656 12.992a5.984 5.984 0 0 1-4.297 1.808zm21.172 13.013a6 6 0 0 1-5.316-8.775l6.841-13.128a6 6 0 0 1 10.643 5.546l-6.842 13.128a6 6 0 0 1-5.326 3.229z"
         id="path734" /><path
         d="M553.986 69.976c0-7.174-8.717-15.161-11.1-25.281-3.468-14.707-7.868-42.486 26.476-38.263 31.261 3.843 41.028 6.7 42.132 23.188 1.172 17.509-7.284 23.787-7.284 37.282"
         fill="#fff"
         id="path736" /><path
         d="M553.986 75.976a6 6 0 0 1-6-6c0-2.076-2.088-5.575-4.107-8.959-2.567-4.3-5.478-9.184-6.837-14.945-2.679-11.365-5.181-27.657 3.988-37.887 6.042-6.742 15.814-9.337 29.06-7.708C600.211 4.18 616 7.14 617.477 29.219c.733 10.961-1.881 18.071-4.189 24.344-1.654 4.5-3.082 8.378-3.082 13.339a6 6 0 1 1-12 0c0-7.1 1.942-12.377 3.82-17.482 2.078-5.65 4.041-10.986 3.478-19.4-.718-10.706-4.2-13.617-36.879-17.634-9.109-1.12-15.389.161-18.659 3.808-6.049 6.747-2.433 22.084-1.244 27.123.933 3.958 3.236 7.818 5.463 11.551 2.983 5 5.8 9.724 5.8 15.107a6 6 0 0 1-5.999 6.001z"
         id="path738" /><path
         d="M540 53.592a18.861 18.861 0 0 1-1.075-15.718c2.786-7.156 9.894-12.532 21.125-15.978 4.855-1.49 10.722-.817 17.518-.037 3.149.361 6.406.734 9.558.87a6 6 0 0 1 5.649 4.937c.157.877 1.384 8.749-3.794 15.081-3.105 3.8-7.624 6.045-13.459 6.7l-1.078 1.385a6 6 0 1 1-9.471-7.369l2.725-3.5a6 6 0 0 1 4.6-2.315c2.486-.056 5.787-.535 7.394-2.5a4.932 4.932 0 0 0 .589-.918c-1.378-.141-2.739-.3-4.082-.452-5-.573-10.171-1.166-12.629-.412-7.242 2.222-12.006 5.326-13.415 8.739a6.922 6.922 0 0 0 .25 5.509l-.053-.1zM642.762 464.99l-14.13-27.378c1.1 7.142.661 13.591-1.878 18.927-33.5 70.425-195.789 117.868-229.789 104.868l-.03-.012v.012l4.9 20.734c2.646 11.949 8.959 13.205 16.949 12.805 129.58-6.481 198.01-74.411 221.239-103.024a24.733 24.733 0 0 0 2.739-26.932z"
         id="path740" /><path
         d="M416.766 601c-8.316 0-17.483-2.611-20.793-17.562l-4.879-20.652a6.007 6.007 0 0 1 8.064-6.964c14.214 5.274 59.33-1.2 110.716-21.157 56.965-22.13 97.591-51.545 111.462-80.7 1.877-3.947 2.337-9.14 1.366-15.435a6 6 0 0 1 11.262-3.666l14.13 27.378a30.73 30.73 0 0 1-3.416 33.464c-23.9 29.444-93.737 98.64-225.6 105.236-.757.035-1.532.058-2.312.058zm-11.836-31.839 2.74 11.6c1.757 7.935 4.214 8.524 10.811 8.192 127.037-6.353 193.991-72.618 216.881-100.813a18.732 18.732 0 0 0 2.068-20.4l-4.88-9.455q-.181.418-.378.829c-21.547 45.3-89.666 75.745-117.953 86.734-42.95 16.687-85.892 25.614-109.289 23.313z"
         id="path742" /><path
         d="M573.754 342.539c-23.853-29.818-40.908-56.6-71.673-82.308 51.137-18.63 103.15-30.455 113.143-58.554S604.206 66.9 604.206 66.9l-50.22 3.075s-7.5 57.274-7.5 97.56c0 0-37.554 5.564-70.044 9.328-54.7 6.337-74.809 17.968-74.809 17.968l-8.282-1.609c-22.088-4.186-41.6 9.729-41.6 9.729a40.324 40.324 0 0 0-8.136 6.618v.007a121.8 121.8 0 0 0-46.676 12.125c-26.946 12.854-41.5 29.925-41.5 29.925-6.769 8.375-10.04 15.527-11.067 21.58h-.014s-8.86 38.246 12.376 52.6c-23.511 36.317-47.775 134.6-47.775 134.6L84.918 507.442l19.739 47.625s70.568-5.758 109.635-17.235c46.875-13.772 79.88-12.317 105.673-98.425l.177-.243c30.125 21.879 56.211 50.935 59.155 71.546 6.668 46.7 17.668 50.7 17.668 50.7 34 13 196.289-34.443 229.789-104.868 13.027-27.388-29-84.003-53-114.003z"
         fill="#fff"
         id="path744" /><path
         d="M412.849 569.518c-7.452 0-13.594-.812-18.027-2.507-4.231-1.538-14.988-10.092-21.464-55.453-2.29-16.036-22.514-41.077-50.105-62.549-23.48 72.176-53.819 80.231-91.887 90.344-4.966 1.319-10.1 2.684-15.382 4.235-39.207 11.519-107.933 17.223-110.839 17.459a5.987 5.987 0 0 1-6.032-3.682L79.375 509.74a6 6 0 0 1 3.416-7.908l121.118-45.925C208.3 438.648 230 356.075 251.7 322.547a6 6 0 0 1 10.075 6.521c-22.7 35.066-46.748 131.8-46.988 132.777a6 6 0 0 1-3.7 4.172L92.829 510.859l15.685 37.841c15.891-1.462 71.575-7.077 104.087-16.628 5.43-1.6 10.643-2.98 15.684-4.32 64.049-17.015 72.755-46.078 85.932-90.07a6.026 6.026 0 0 1 .9-1.811l.177-.243a6 6 0 0 1 8.376-1.321c26.136 18.981 57.943 50.158 61.569 75.552 5.266 36.879 13.117 45.046 14.326 46.1 14.642 5.008 59.4-1.526 110.311-21.3 56.965-22.129 97.591-51.544 111.462-80.7 4.732-9.946.431-27.417-12.438-50.522-9.088-16.316-22.117-35.011-39.829-57.152-5.662-7.077-10.956-14-16.077-20.7-16.33-21.358-31.754-41.531-54.758-60.753a6 6 0 0 1 1.794-10.242c9.728-3.544 19.487-6.843 28.924-10.034 37.792-12.776 73.49-24.845 80.619-44.892 7.325-20.6-4.132-93.871-10.261-126.454l-39.987 2.448c-1.779 14.678-6.833 59.23-6.833 91.875a6 6 0 0 1-5.121 5.935c-.376.056-38.02 5.621-70.233 9.353-52.321 6.061-72.324 17.1-72.521 17.216a6 6 0 0 1-5.982-10.4c.865-.5 21.825-12.327 77.122-18.733 25.047-2.9 53.424-6.922 64.775-8.562.58-39.788 7.434-92.592 7.506-93.144a6 6 0 0 1 5.583-5.21l50.221-3.075a6.021 6.021 0 0 1 6.253 4.829c2.184 11.085 21.033 109.127 10.784 137.946-9.079 25.53-45.69 37.908-88.082 52.239-6.246 2.112-12.635 4.272-19.042 6.513 19.783 17.945 33.911 36.423 48.772 55.859 5.082 6.646 10.336 13.518 15.915 20.491 46.827 58.535 64.4 97.894 53.732 120.326-21.547 45.3-89.666 75.745-117.953 86.734-38.483 14.95-76.957 23.668-101.372 23.668zm-13.833-13.75.128.048-.128-.048z"
         id="path746" /><path
         d="M320.137 445.165a5.975 5.975 0 0 1-3.521-1.146 229.9 229.9 0 0 0-20.635-13.407 6 6 0 0 1 5.968-10.411 241.949 241.949 0 0 1 21.718 14.108 6 6 0 0 1-3.53 10.856zm-48.398-136.659a32.992 32.992 0 0 1-11.047-1.593c-1.772-.642-17.432-6.711-21.677-21.945-3.1-11.129.856-23.614 11.762-37.108l.1-.122c.628-.737 15.705-18.2 43.485-31.448 41.571-19.829 73.76-10.924 75.109-10.535a24.387 24.387 0 0 1 17.672 26.726c-1.078 7.314-4.7 14.9-10.753 22.561-25.69 32.478-77.077 53.464-104.651 53.464zm-11.689-53.029c-8.282 10.272-11.471 19.11-9.476 26.27 2.677 9.607 14.09 13.842 14.206 13.884 6.532 2.367 24.456.146 46.064-8.683 23.478-9.593 43.939-23.936 56.136-39.351 4.735-5.986 7.525-11.661 8.293-16.866a12.362 12.362 0 0 0-9.108-13.441c-.284-.08-29.4-7.929-66.635 9.831-24.814 11.837-38.63 27.379-39.48 28.356zm242.028 10.754a5.977 5.977 0 0 1-3.844-1.4 257.982 257.982 0 0 0-17.7-13.507 6 6 0 0 1 6.867-9.842c6.465 4.51 12.7 9.268 18.531 14.141a6 6 0 0 1-3.851 10.6zM221.97 492.142a6 6 0 0 1-5.36-3.3l-13-25.734a6 6 0 0 1 6.7-8.551l26 6a6 6 0 1 1-2.7 11.692l-13.519-3.12 7.225 14.3a6 6 0 0 1-5.351 8.707z"
         id="path748" /><path
         d="M291.964 458.408a6 6 0 0 1-1.9-11.693l27-9a6 6 0 0 1 3.8 11.384l-27 9a6 6 0 0 1-1.9.309zm31.575-113.118a29.055 29.055 0 0 1-11.408-2.151 21.793 21.793 0 0 1-12.8-14.122L311 326.193l-.027-.11a10.171 10.171 0 0 0 6.067 6.1c4.745 1.889 16.271 2.945 40.181-11.2 33.7-19.939 60.96-54.192 64.821-81.447 1.608-11.341-.853-20.573-7.315-27.439-25.847-27.472-58.128-5.207-59.49-4.246a6.527 6.527 0 0 1-.4.261 34.384 34.384 0 0 0-6.745 5.474 6 6 0 0 1-8.926-8.021 45.516 45.516 0 0 1 9.326-7.639 71.9 71.9 0 0 1 24.518-10.237c13.45-2.785 33.122-2.239 50.458 16.185 8.954 9.516 12.57 22.43 10.457 37.345-4.4 31.056-33.429 68.1-70.592 90.091-15.733 9.305-29.058 13.98-39.794 13.98z"
         id="path750" /><path
         d="M280.963 337.943a60.431 60.431 0 0 1-18.831-2.924 34.938 34.938 0 0 1-8.751-4.239c-24.373-16.471-15.264-57.2-14.864-58.923a6 6 0 1 1 11.691 2.708c-.077.336-7.65 34.418 9.891 46.272a22.967 22.967 0 0 0 5.751 2.773c24.6 8.017 52.643-6.468 71.833-20.035a241.386 241.386 0 0 0 37.242-32.959 6 6 0 0 1 9.011 7.924c-2.383 2.711-52.867 59.403-102.973 59.403zm187.002 196.465a6 6 0 0 1-5.5-3.609l-10-23a5.994 5.994 0 0 1-.461-3.055c.037-.343 3.7-34.773-5.575-57.03a6 6 0 0 1 2.294-7.354l84-54a6 6 0 0 1 6.921.305l49 38a6 6 0 0 1 2.07 3.018l6 20a6 6 0 0 1-.272 4.18c-.872 1.944-22.554 48-126.6 82.243a6.008 6.008 0 0 1-1.877.302zm-3.877-29.966 7.185 16.525c82.661-28.3 108.185-63.886 113.223-72.241l-4.726-15.755-44.129-34.223-76.367 49.093c7.304 21.906 5.444 49.579 4.814 56.601zM565.264 178.5a5.992 5.992 0 0 1-1.537-.2l-18.77-4.961a6 6 0 0 1 3.067-11.6l18.769 4.962a6 6 0 0 1 4.469 5.8 6.072 6.072 0 0 1-.2 1.535 6 6 0 0 1-5.798 4.464z"
         id="path752" /><path
         d="M559.115 190.51a5.991 5.991 0 0 1-4.82-2.42l-12.62-16.974a6 6 0 0 1 9.631-7.16l12.62 16.974a6 6 0 0 1-4.811 9.58z"
         id="path754" /></svg></g><g
     transform="translate(108.0 178.0) rotate(-16.536237444691967 373.5 295.0) scale(0.763859134967876 0.7641467524410603)"
     id="g786"><svg
       width="977.929"
       height="772.103"
       viewBox="0 0 977.929 772.103"
       version="1.1"
       id="svg784"><path
         d="M351.457 348.719a6 6 0 0 1-3.313-1L14.215 126.545a6 6 0 1 1 6.626-10l325.243 215.419 18.64-314.108a6 6 0 1 1 11.978.711l-19.256 324.507a6 6 0 0 1-5.989 5.645z"
         id="path760" /><path
         d="M384.254 325.815a36.9 36.9 0 1 0-65.594 33.807"
         fill="#fff"
         id="path762" /><path
         d="M318.664 365.622a6 6 0 0 1-5.338-3.252 42.9 42.9 0 0 1 76.262-39.3 6 6 0 0 1-10.667 5.5 30.9 30.9 0 1 0-54.928 28.307 6 6 0 0 1-5.329 8.75zM385.943 9.5a17.545 17.545 0 1 0-7.551 23.614A17.549 17.549 0 0 0 385.943 9.5zM33.11 113.513a17.53 17.53 0 1 0-31.164 16.061 17.416 17.416 0 0 0 10.243 8.667 17.53 17.53 0 0 0 20.921-24.728z"
         id="path764" /><path
         d="M725.084 150.157 247.523 396.284a24 24 0 0 0-10.338 32.329l167.231 324.479a24 24 0 0 0 32.329 10.339l522.174-269.12a24 24 0 0 0 10.338-32.328L802.026 137.5a24 24 0 0 0-32.326-10.336l-7.1 3.66"
         fill="#fff"
         id="path766" /><path
         d="M425.783 772.113a30.089 30.089 0 0 1-26.7-16.272L231.851 431.362a30 30 0 0 1 12.924-40.411l477.56-246.127a6 6 0 1 1 5.5 10.667L250.272 401.617a18 18 0 0 0-7.754 24.247L409.75 750.343A18 18 0 0 0 434 758.1l522.17-269.122a18 18 0 0 0 7.754-24.246l-167.232-324.48a18 18 0 0 0-24.246-7.755l-7.1 3.661a6 6 0 0 1-5.5-10.668l7.1-3.659a30.034 30.034 0 0 1 40.41 12.923l167.232 324.48a30.034 30.034 0 0 1-12.924 40.41l-522.171 269.12a29.859 29.859 0 0 1-13.71 3.349z"
         id="path768" /><path
         d="M828.019 329.441c-30.552-59.279-56.99-90.411-69.543-103.312-4.633-4.762-11.913-6.514-18.986-4.538-21.71 6.062-74.929 23.481-159.531 67.083s-129.67 76.839-147.2 91c-5.713 4.614-8.51 11.56-7.32 18.1 3.223 17.709 13.237 57.307 43.788 116.585s56.99 90.41 69.543 103.312c4.633 4.761 11.913 6.513 18.986 4.538 21.709-6.062 74.928-23.481 159.531-67.084s129.669-76.839 147.2-91c5.712-4.614 8.51-11.56 7.32-18.1-3.224-17.709-13.237-57.306-43.788-116.584z"
         id="path770" /><path
         d="M551.989 629.007a24.3 24.3 0 0 1-17.523-7.152C521.29 608.312 494.6 576.7 463.89 517.107s-40.976-99.673-44.358-118.26c-1.587-8.712 2.036-17.847 9.453-23.838 19.51-15.76 64.712-48.627 148.225-91.668s136.507-60.783 160.666-67.53c9.186-2.562 18.725-.212 24.9 6.135 13.175 13.54 39.864 45.154 70.576 104.746s40.975 99.673 44.358 118.259c1.586 8.712-2.036 17.846-9.453 23.838-19.513 15.762-64.717 48.63-148.226 91.668s-136.506 60.784-160.665 67.531a27.477 27.477 0 0 1-7.377 1.019zm193.277-402.219a15.508 15.508 0 0 0-4.163.581c-23.718 6.623-75.835 24.088-158.4 66.638s-127.023 74.864-146.177 90.337c-4 3.23-5.988 7.964-5.189 12.355 3.264 17.928 13.219 56.7 43.22 114.91s55.8 88.813 68.509 101.878c3.112 3.2 8.119 4.323 13.073 2.942 23.718-6.623 75.835-24.088 158.395-66.638s127.026-74.863 146.183-90.337c4-3.23 5.986-7.964 5.187-12.354-3.263-17.93-13.218-56.7-43.219-114.91-30-58.21-55.8-88.815-68.509-101.876a12.306 12.306 0 0 0-8.91-3.526z"
         id="path772" /><g
         fill="#fff"
         id="g776" /><path
         d="M379.736 601.084a6 6 0 0 1-2.753-11.334l58.534-30.166a6 6 0 0 1 5.5 10.666l-58.537 30.166a5.975 5.975 0 0 1-2.744.668zm10.995 21.334a6 6 0 0 1-2.753-11.334l58.534-30.166a6 6 0 1 1 5.5 10.666l-58.537 30.166a5.975 5.975 0 0 1-2.744.668zm10.995 21.333a6 6 0 0 1-2.753-11.334l58.534-30.166a6 6 0 1 1 5.5 10.666l-58.537 30.166a5.978 5.978 0 0 1-2.744.668zm10.995 21.334a6 6 0 0 1-2.753-11.334l58.532-30.167a6 6 0 1 1 5.5 10.666l-58.534 30.167a5.978 5.978 0 0 1-2.745.668zm10.995 21.333a6 6 0 0 1-2.754-11.334l58.538-30.166a6 6 0 1 1 5.5 10.666l-58.541 30.166a5.974 5.974 0 0 1-2.743.668zm10.995 21.333a6 6 0 0 1-2.754-11.334l58.535-30.166a6 6 0 1 1 5.5 10.666l-58.535 30.166a5.971 5.971 0 0 1-2.746.668zm-98.306-233.608h-.468a35.05 35.05 0 0 1-34.546-35.467 35.052 35.052 0 0 1 35-34.55h.468a35.01 35.01 0 0 1-.454 70.017zM313.39 438.83a23.038 23.038 0 0 0 22.71 23.311h.308a23.01 23.01 0 1 0-23.018-23.311z"
         id="path778" /><path
         d="m330.014 468.058.764-58.015 12 .158-.765 58.015zm46.648 84.084a35.243 35.243 0 0 1-7.41-.79 34.826 34.826 0 1 1 7.41.79zm-.075-58.033a23.011 23.011 0 0 0-4.819 45.51 23.01 23.01 0 1 0 4.819-45.51z"
         id="path780" /><path
         d="m346.968 516.903 2.516-11.732 56.73 12.163-2.516 11.732z"
         id="path782" /><g
         inkscape:label="Layer 1"
         id="layer1"
         transform="matrix(1.5424028,0.45776948,-0.45794182,1.5418223,476.0402,254.55933)"
         style="fill:#ffffff"><path
           id="path3189"
           style="fill:#ffffff;stroke-width:0.38102"
           d="m 33.795603,105.58745 a 19.298033,19.298033 0 0 0 0,27.29165 19.298033,19.298033 0 0 0 27.291642,0 19.298033,19.298033 0 0 0 0,-27.29165 19.298033,19.298033 0 0 0 -27.291642,0 z M 169.83441,-30.451363 a 19.298033,19.298033 0 0 0 0,27.2916487 19.298033,19.298033 0 0 0 27.29165,-6.6e-6 19.298033,19.298033 0 0 0 0,-27.2916391 19.298033,19.298033 0 0 0 -27.29165,-3e-6 z m -15.46022,120.578075 0.39624,18.730658 0.3973,18.73062 18.33387,-18.33385 18.33335,-18.333366 -18.73065,-0.397298 z" /></g></svg></g><g
     transform="translate(648.0 204.0) rotate(91.02469847078792 -41.0 41.0) translate(-0.0 17.7227536515647) scale(-0.25740382067002276 0.25740382067002276)"
     id="g792"><svg
       width="250.659"
       height="249.714"
       viewBox="0 68.852 250.659 249.714"
       version="1.1"
       id="svg790"><path
         d="M313.477 30.154 30.154 313.477a17.373 17.373 0 0 1-24.57 0l-.496-.496a17.373 17.373 0 0 1 0-24.57L288.412 5.089a17.373 17.373 0 0 1 24.569 0l.496.497a17.373 17.373 0 0 1 0 24.569z"
         id="path788" /></svg></g></svg>
