<?xml version="1.0" encoding="UTF-8" standalone="no"?>
<svg
   height="88.745"
   viewBox="0 0 106.122 88.745"
   width="106.122"
   version="1.1"
   id="svg1892"
   sodipodi:docname="neo-sakura-package.svg"
   xml:space="preserve"
   inkscape:version="1.2.1 (9c6d41e410, 2022-07-14)"
   xmlns:inkscape="http://www.inkscape.org/namespaces/inkscape"
   xmlns:sodipodi="http://sodipodi.sourceforge.net/DTD/sodipodi-0.dtd"
   xmlns="http://www.w3.org/2000/svg"
   xmlns:svg="http://www.w3.org/2000/svg"><defs
     id="defs1896" /><sodipodi:namedview
     id="namedview1894"
     pagecolor="#ffffff"
     bordercolor="#000000"
     borderopacity="0.25"
     inkscape:showpageshadow="2"
     inkscape:pageopacity="0.0"
     inkscape:pagecheckerboard="0"
     inkscape:deskcolor="#d1d1d1"
     showgrid="false"
     inkscape:zoom="4.5411008"
     inkscape:cx="105.92145"
     inkscape:cy="20.039194"
     inkscape:window-width="1920"
     inkscape:window-height="1009"
     inkscape:window-x="-8"
     inkscape:window-y="-8"
     inkscape:window-maximized="1"
     inkscape:current-layer="g1890" /><path
     d="m.5 9.623v78.622h84.84l20.282-9.302v-78.443h-84.839z"
     fill="#fa0"
     id="path1860" /><path
     d="m85.34 88.745h-84.84a.5.5 0 0 1 -.5-.5v-78.622a.5.5 0 0 1 .5-.5h84.84a.5.5 0 0 1 .5.5v78.622a.5.5 0 0 1 -.5.5zm-84.34-1h83.84v-77.622h-83.84z"
     fill="#00257d"
     id="path1862" /><path
     d="m30.062 9.623v8.551l18.797.031v-8.582z"
     fill="#ffe68c"
     id="path1864" /><path
     d="m 21.093,27.499 h 56.532 v 42.87 H 21.093 Z"
     fill="#ffe68c"
     id="path1866"
     style="stroke-width:1.10546" /><path
     d="M 77.516325,70.869 H 21.201675 A 0.60867541,0.5 0 0 1 20.593,70.369 V 27.5 A 0.60867541,0.5 0 0 1 21.201675,27 h 56.31465 A 0.60867541,0.5 0 0 1 78.125,27.5 v 42.87 a 0.60867541,0.5 0 0 1 -0.608675,0.499 z m -55.705974,-1 H 76.907649 V 28 H 21.810351 Z"
     fill="#00257d"
     id="path1868"
     style="stroke-width:1.10334" /><path
     d="m48.859 18.7-18.8-.031a.5.5 0 0 1 -.5-.5v-8.546a.5.5 0 0 1 .5-.5h18.8a.5.5 0 0 1 .5.5v8.577a.5.5 0 0 1 -.5.5zm-18.3-1.03 17.8.029v-7.576h-17.8z"
     fill="#00257d"
     id="path1874" /><path
     d="m.5 46.515h13.645v13.377h-13.645z"
     fill="#ffe68c"
     id="path1876" /><g
     fill="#00257d"
     id="g1890"><path
       d="m 29.772967,55.1476 v -7.842885 q -2.189113,1.680619 -2.947546,1.680619 -0.36198,0 -0.646392,-0.284413 -0.275794,-0.293031 -0.275794,-0.672247 0,-0.439546 0.275794,-0.646392 0.275794,-0.206845 0.973897,-0.53435 1.042845,-0.491258 1.663381,-1.034227 0.629155,-0.542969 1.111794,-1.215216 0.482639,-0.672247 0.629154,-0.827381 0.146516,-0.155134 0.551588,-0.155134 0.456783,0 0.732577,0.353361 0.275794,0.35336 0.275794,0.973896 v 9.868246 q 0,1.732329 -1.180742,1.732329 -0.525732,0 -0.844619,-0.35336 -0.318886,-0.353361 -0.318886,-1.042846 z"
       id="path9953"
       style="font-size:17.6508px;font-family:'Arial Rounded MT Bold';-inkscape-font-specification:'Arial Rounded MT Bold, ';text-align:center;text-anchor:middle;stroke-width:1.32382" /><path
       d="m 44.933005,50.131601 q 0,1.413443 -0.172371,2.430433 -0.172371,1.016989 -0.637773,1.844371 -0.586062,1.016989 -1.516866,1.568577 -0.930803,0.551587 -2.068453,0.551587 -1.31002,0 -2.352865,-0.741196 -1.034227,-0.741195 -1.559959,-2.051216 -0.267175,-0.71534 -0.396453,-1.577195 -0.12066,-0.870474 -0.12066,-1.878845 0,-1.301402 0.137897,-2.344247 0.137897,-1.042845 0.430928,-1.79266 0.508494,-1.241072 1.473773,-1.887463 0.973896,-0.65501 2.318391,-0.65501 0.887711,0 1.61167,0.293031 0.723958,0.284412 1.266927,0.844618 0.551588,0.551587 0.930804,1.37035 0.65501,1.422062 0.65501,4.024865 z M 42.571521,49.95923 q 0,-1.577195 -0.189608,-2.576948 -0.189608,-1.008371 -0.637773,-1.516865 -0.448165,-0.517114 -1.241072,-0.517114 -1.137649,0 -1.585814,1.146268 -0.439546,1.146268 -0.439546,3.533608 0,1.620288 0.189608,2.654515 0.189608,1.034226 0.637773,1.568577 0.448165,0.525732 1.215216,0.525732 0.792907,0 1.241072,-0.551588 0.448165,-0.551588 0.629155,-1.577196 0.180989,-1.025608 0.180989,-2.688989 z"
       id="path9955"
       style="font-size:17.6508px;font-family:'Arial Rounded MT Bold';-inkscape-font-specification:'Arial Rounded MT Bold, ';text-align:center;text-anchor:middle;stroke-width:1.32382" /><path
       d="m 55.421787,50.131601 q 0,1.413443 -0.172371,2.430433 -0.172371,1.016989 -0.637773,1.844371 -0.586062,1.016989 -1.516866,1.568577 -0.930804,0.551587 -2.068453,0.551587 -1.31002,0 -2.352865,-0.741196 -1.034227,-0.741195 -1.559959,-2.051216 -0.267175,-0.71534 -0.396453,-1.577195 -0.12066,-0.870474 -0.12066,-1.878845 0,-1.301402 0.137897,-2.344247 0.137897,-1.042845 0.430928,-1.79266 0.508494,-1.241072 1.473772,-1.887463 0.973897,-0.65501 2.318392,-0.65501 0.887711,0 1.61167,0.293031 0.723958,0.284412 1.266927,0.844618 0.551588,0.551587 0.930804,1.37035 0.65501,1.422062 0.65501,4.024865 z M 53.060303,49.95923 q 0,-1.577195 -0.189608,-2.576948 -0.189608,-1.008371 -0.637773,-1.516865 -0.448165,-0.517114 -1.241072,-0.517114 -1.137649,0 -1.585814,1.146268 -0.439546,1.146268 -0.439546,3.533608 0,1.620288 0.189608,2.654515 0.189608,1.034226 0.637773,1.568577 0.448165,0.525732 1.215216,0.525732 0.792907,0 1.241072,-0.551588 0.448165,-0.551588 0.629155,-1.577196 0.180989,-1.025608 0.180989,-2.688989 z"
       id="path9957"
       style="font-size:17.6508px;font-family:'Arial Rounded MT Bold';-inkscape-font-specification:'Arial Rounded MT Bold, ';text-align:center;text-anchor:middle;stroke-width:1.32382" /><path
       d="m 62.506241,54.509827 h -2.223587 v -3.283669 h -3.300907 v -2.258062 h 3.300907 V 45.66719 h 2.223587 v 3.300906 h 3.318144 v 2.258062 h -3.318144 z"
       id="path9959"
       style="font-size:17.6508px;font-family:'Arial Rounded MT Bold';-inkscape-font-specification:'Arial Rounded MT Bold, ';text-align:center;text-anchor:middle;stroke-width:1.32382" /><path
       d="m14.146 60.392h-13.646a.5.5 0 0 1 -.5-.5v-13.377a.5.5 0 0 1 .5-.5h13.645a.5.5 0 0 1 .5.5v13.377a.5.5 0 0 1 -.147.354.5.5 0 0 1 -.352.146zm-13.146-1h12.646v-12.377h-12.646z"
       id="path1878" /><path
       d="m 55.677278,41.54846 h -29.274 a 0.5,0.5 0 0 1 0,-1 h 29.274 a 0.5,0.5 0 0 1 0,1 z"
       id="path1880" /><path
       d="m85.34 10.123a.5.5 0 0 1 -.2-.956l20.277-9.123a.5.5 0 1 1 .41.912l-20.282 9.123a.5.5 0 0 1 -.205.044z"
       id="path1886" /><path
       d="m85.34 88.745a.5.5 0 0 1 -.208-.955l19.99-9.168v-77.622h-84.232l-20.185 9.079a.5.5 0 0 1 -.405-.912l20.278-9.123a.5.5 0 0 1 .205-.044h84.839a.5.5 0 0 1 .5.5v78.443a.5.5 0 0 1 -.291.454l-20.282 9.303a.5.5 0 0 1 -.209.045z"
       id="path1888" /></g><g
     transform="matrix(0.04734113,0,0,0.04734113,17.820769,7.8141681)"
     id="flowRoot3721"
     style="font-weight:bold;font-stretch:extra-expanded;font-size:40px;line-height:1.25;font-family:'FOT-Rodin Pro';-inkscape-font-specification:'FOT-Rodin Pro Bold Extra-Expanded';letter-spacing:0px;word-spacing:0px;fill:#00257d;fill-opacity:1" /><g
     aria-label="open"
     id="text3731"
     style="font-size:10.5833px;line-height:1.25;letter-spacing:0px;word-spacing:0px;fill:#00257d;fill-opacity:1;stroke-width:0.264583"
     transform="matrix(0.17892709,0,0,0.17892709,17.820769,7.8141681)"><path
       d="m 73.975683,147.61292 c 0,-8.9408 -5.4356,-14.732 -14.3764,-14.732 -8.8392,0 -14.4272,5.7912 -14.4272,14.732 0,8.89 5.588,14.6812 14.4272,14.6812 8.9408,0 14.3764,-5.7912 14.3764,-14.6812 z m -7.3152,0 c 0,5.588 -2.794,8.9408 -7.0612,8.9408 -4.1148,0 -7.112,-3.4544 -7.112,-8.9408 0,-5.588 2.9972,-8.9408 7.112,-8.9408 4.2672,0 7.0612,3.3528 7.0612,8.9408 z"
       style="font-weight:bold;font-stretch:extra-expanded;font-size:50.8px;font-family:'FOT-Rodin Pro';-inkscape-font-specification:'FOT-Rodin Pro Bold Extra-Expanded';fill:#00257d;fill-opacity:1"
       id="path4740" /><path
       d="m 106.94489,147.56212 c 0,-9.6012 -5.1308,-14.6812 -12.5984,-14.6812 -3.352799,0 -7.111999,1.6764 -8.127999,4.5212 v -3.9116 h -6.5532 v 37.9984 h 7.2136 v -11.938 c 1.524,1.6256 4.7752,2.7432 7.518399,2.7432 7.366,0 12.5476,-5.0292 12.5476,-14.732 z m -7.3152,0 c 0,6.096 -2.8448,9.0932 -6.7056,9.0932 -2.997199,0 -4.927599,-1.778 -6.197599,-3.8608 v -7.7724 c 0,-3.6068 2.7432,-6.35 6.1468,-6.35 4.114799,0 6.756399,2.8956 6.756399,8.89 z"
       style="fill:#00257d;fill-opacity:1"
       id="path4742" /><path
       d="m 138.1869,148.01932 c 0,-0.254 0,-0.508 0,-0.762 0,-8.6868 -5.08,-14.3764 -13.208,-14.3764 -8.7884,0 -13.8684,6.35 -13.8684,14.6812 0,8.9916 5.588,14.732 14.0716,14.732 6.1468,0 9.7536,-2.1336 12.7508,-6.096 l -3.556,-4.3688 c -1.778,3.048 -5.1308,4.7244 -8.7376,4.7244 -4.064,0 -7.3152,-2.0828 -7.874,-5.9436 z m -6.8072,-4.3688 -13.716,1.8288 c 0.254,-4.5212 3.0988,-6.9596 7.2644,-6.9596 3.6068,0 6.1468,1.9304 6.4516,5.1308 z"
       style="fill:#00257d;fill-opacity:1"
       id="path4744" /><path
       d="m 169.73367,161.68452 v -18.796 c 0,-5.6896 -4.1148,-10.0076 -10.2616,-10.0076 -4.67359,0 -7.82319,1.6256 -9.14399,4.2164 v -3.6068 h -6.604 v 28.194 h 7.2136 v -18.4404 c 0.9144,-2.9464 3.556,-4.572 6.50239,-4.572 2.8956,0 5.0292,1.8796 5.0292,5.2324 v 17.78 z"
       style="fill:#00257d;fill-opacity:1"
       id="path4746" /></g><g
     transform="matrix(0.04734113,0,0,0.04734113,17.820769,7.8141681)"
     id="flowRoot4598"
     style="font-size:40px;line-height:1.25;letter-spacing:0px;word-spacing:0px;fill:#00257d;fill-opacity:1" /><g
     transform="matrix(0.04734113,0,0,0.04734113,17.820769,7.8141681)"
     id="flowRoot4606"
     style="font-size:40px;line-height:1.25;letter-spacing:0px;word-spacing:0px;fill:#00257d;fill-opacity:1" /><path
     d="m 29.367609,65.103496 -1.48338,-5.895647 v 6.388003 q 0,0.53023 -0.239866,0.795344 -0.233554,0.265115 -0.624914,0.265115 -0.378735,0 -0.618601,-0.258802 -0.239865,-0.265115 -0.239865,-0.801657 v -7.322217 q 0,-0.605976 0.315612,-0.814281 0.315613,-0.214616 0.852155,-0.214616 h 0.580728 q 0.523917,0 0.75747,0.09468 0.239866,0.09468 0.353487,0.340861 0.11362,0.246178 0.258802,0.801657 l 1.344511,5.068741 1.34451,-5.068741 q 0.145182,-0.555479 0.258802,-0.801657 0.113621,-0.246178 0.347175,-0.340861 0.239865,-0.09468 0.763782,-0.09468 h 0.580728 q 0.536542,0 0.852155,0.214616 0.315612,0.208305 0.315612,0.814281 v 7.322217 q 0,0.53023 -0.239865,0.795344 -0.233554,0.265115 -0.631226,0.265115 -0.372423,0 -0.612289,-0.265115 -0.239865,-0.265114 -0.239865,-0.795344 v -6.388003 l -1.483381,5.895647 q -0.145181,0.574415 -0.239865,0.845842 -0.08837,0.265115 -0.33455,0.486044 -0.246178,0.220929 -0.681723,0.220929 -0.328238,0 -0.555479,-0.145182 -0.227241,-0.138869 -0.353486,-0.359798 -0.126245,-0.220929 -0.201992,-0.486044 -0.06943,-0.271427 -0.145182,-0.561791 z"
     id="path9943"
     style="font-size:12.9275px;font-family:'Arial Rounded MT Bold';-inkscape-font-specification:'Arial Rounded MT Bold, ';text-align:center;text-anchor:middle;fill:#00257d;stroke-width:0.969567" /><path
     d="m 38.615063,60.628107 v 4.98037 q 0,0.517605 -0.246178,0.782719 -0.246178,0.265115 -0.624913,0.265115 -0.378735,0 -0.618601,-0.271427 -0.233554,-0.271427 -0.233554,-0.776407 v -4.929872 q 0,-0.511293 0.233554,-0.770095 0.239866,-0.258803 0.618601,-0.258803 0.378735,0 0.624913,0.258803 0.246178,0.258802 0.246178,0.719597 z m -0.852154,-1.780056 q -0.359799,0 -0.618601,-0.220929 -0.252491,-0.220929 -0.252491,-0.624914 0,-0.36611 0.258803,-0.599664 0.265115,-0.239866 0.612289,-0.239866 0.334549,0 0.593352,0.214617 0.258802,0.214617 0.258802,0.624913 0,0.397673 -0.25249,0.624914 -0.25249,0.220929 -0.599664,0.220929 z"
     id="path9945"
     style="font-size:12.9275px;font-family:'Arial Rounded MT Bold';-inkscape-font-specification:'Arial Rounded MT Bold, ';text-align:center;text-anchor:middle;fill:#00257d;stroke-width:0.969567" /><path
     d="m 44.466524,66.498505 h -2.827891 q -0.612288,0 -0.877403,-0.271427 -0.258803,-0.27774 -0.258803,-0.877404 v -6.956106 q 0,-0.612289 0.265115,-0.877403 0.271427,-0.271427 0.871091,-0.271427 h 2.998322 q 0.662787,0 1.14883,0.08206 0.486044,0.08206 0.871092,0.315613 0.328237,0.19568 0.580727,0.498668 0.25249,0.296676 0.385048,0.662787 0.132557,0.359798 0.132557,0.763783 0,1.388696 -1.388696,2.032546 1.824242,0.580728 1.824242,2.259788 0,0.776407 -0.397672,1.401321 -0.397672,0.618601 -1.073084,0.915277 -0.422921,0.176743 -0.972087,0.25249 -0.549166,0.06943 -1.281388,0.06943 z m -0.13887,-4.109279 h -1.950487 v 2.701646 h 2.01361 q 1.899989,0 1.899989,-1.36976 0,-0.70066 -0.492356,-1.016273 -0.492356,-0.315613 -1.470756,-0.315613 z m -1.950487,-3.736855 v 2.392345 h 1.716934 q 0.70066,0 1.079396,-0.132558 0.385047,-0.132557 0.587039,-0.50498 0.157807,-0.265115 0.157807,-0.593352 0,-0.700661 -0.498668,-0.927902 -0.498669,-0.233553 -1.521254,-0.233553 z"
     id="path9947"
     style="font-size:12.9275px;font-family:'Arial Rounded MT Bold';-inkscape-font-specification:'Arial Rounded MT Bold, ';text-align:center;text-anchor:middle;fill:#00257d;stroke-width:0.969567" /></svg>
