<?xml version="1.0" encoding="UTF-8" standalone="no"?>
<svg
   height="388.936"
   viewBox="0 0 609.499 388.936"
   width="609.499"
   version="1.1"
   id="svg2737"
   sodipodi:docname="isometric-white-book.svg"
   xml:space="preserve"
   inkscape:version="1.2.1 (9c6d41e410, 2022-07-14)"
   xmlns:inkscape="http://www.inkscape.org/namespaces/inkscape"
   xmlns:sodipodi="http://sodipodi.sourceforge.net/DTD/sodipodi-0.dtd"
   xmlns="http://www.w3.org/2000/svg"
   xmlns:svg="http://www.w3.org/2000/svg"><defs
     id="defs2741"><inkscape:path-effect
       effect="perspective-envelope"
       up_left_point="-135.22958,131.77793"
       up_right_point="88.400592,2.664992"
       down_left_point="190.05067,319.57857"
       down_right_point="413.68084,190.46563"
       id="path-effect11467"
       is_visible="true"
       lpeversion="1"
       deform_type="perspective"
       horizontal_mirror="false"
       vertical_mirror="false"
       overflow_perspective="false" /><inkscape:path-effect
       effect="perspective-envelope"
       up_left_point="58.37858,126.17153"
       up_right_point="99.514785,102.42154"
       down_left_point="71.368961,133.67153"
       down_right_point="112.50517,109.92154"
       id="path-effect11397"
       is_visible="true"
       lpeversion="1"
       deform_type="perspective"
       horizontal_mirror="false"
       vertical_mirror="false"
       overflow_perspective="false" /></defs><sodipodi:namedview
     id="namedview2739"
     pagecolor="#ffffff"
     bordercolor="#000000"
     borderopacity="0.25"
     inkscape:showpageshadow="2"
     inkscape:pageopacity="0.0"
     inkscape:pagecheckerboard="0"
     inkscape:deskcolor="#d1d1d1"
     showgrid="true"
     inkscape:zoom="2.0723204"
     inkscape:cx="293.14966"
     inkscape:cy="138.00955"
     inkscape:window-width="1920"
     inkscape:window-height="1009"
     inkscape:window-x="-8"
     inkscape:window-y="-8"
     inkscape:window-maximized="1"
     inkscape:current-layer="svg2737"><inkscape:grid
       type="axonomgrid"
       id="grid5751"
       spacingy="1.8897637" /></sodipodi:namedview><path
     d="m604.609 222.095-5.269 7.71-272.73 158.131-325.61-188.71 281.584-162.032z"
     id="path2679" /><path
     d="m326.61 388.936c-.173 0-.347-.045-.501-.135l-325.611-188.71c-.309-.179-.499-.51-.498-.867s.191-.687.501-.865l281.584-162.032c.309-.178.688-.178.997 0l322.025 184.901c.241.139.414.372.477.644s.009.557-.149.787l-5.27 7.71c-.084.123-.194.226-.323.301l-272.729 158.131c-.155.09-.329.135-.502.135zm-323.61-189.707 323.61 187.551 272.032-157.726 4.531-6.63-320.588-184.077z"
     id="path2681" /><path
     d="m326.61 323.209-305.602-172.992.15 49.009 305.452 173.876z"
     fill="#adc4cb"
     id="path2683" /><path
     d="m326.61 374.102c-.171 0-.341-.044-.495-.131l-305.453-173.876c-.312-.177-.504-.508-.505-.866l-.149-49.01c0-.356.188-.686.495-.866.309-.18.688-.183.997-.007l305.603 172.992c.314.177.508.51.508.87v49.893c0 .356-.189.686-.497.865-.155.09-.329.135-.503.135zm-304.455-175.459 303.455 172.739v-47.59l-303.597-171.857.143 46.708z"
     id="path2685" /><path
     d="m326.61 387.936 271.068-157.167c7.796-3.717 9.866-10.757 10.554-18.254 2.064-22.509-8.468-25.874-8.468-25.874s-5.783-2.672-12.766 1.373l-260.376 150.819-.011 49.102z"
     id="path2687" /><path
     d="m326.61 388.936c-.173 0-.345-.044-.499-.134-.311-.178-.501-.509-.501-.867l.011-49.102c0-.357.19-.686.499-.865l260.376-150.819c7.069-4.095 12.969-1.73 13.633-1.44.984.346 11.153 4.487 9.099 26.898-.615 6.701-2.434 14.924-11.119 19.065l-270.996 157.129c-.155.09-.329.135-.502.135zm1.011-49.526-.011 46.79 269.565-156.296c7.802-3.723 9.459-10.923 10.06-17.48 1.968-21.461-7.679-24.8-7.776-24.831-.039-.013-.077-.028-.114-.045-.216-.097-5.43-2.385-11.847 1.331z"
     id="path2689" /><path
     d="m326.61 372.893 266.546-150.828c3.515-1.989 5.688-5.715 5.688-9.754v-11.105c0-6.232-5.052-11.284-11.284-11.284h-12.237l-248.714 133.287v49.684z"
     fill="#adc4cb"
     id="path2691" /><path
     d="m326.61 373.893c-.174 0-.349-.045-.504-.136-.307-.179-.496-.508-.496-.864v-49.684c0-.369.203-.707.527-.881l248.713-133.287c.146-.078.308-.119.473-.119h12.237c6.773 0 12.283 5.51 12.283 12.283v11.105c0 4.391-2.374 8.461-6.195 10.624l-266.546 150.828c-.152.086-.322.13-.492.13zm1-50.085v47.37l265.054-149.983c3.195-1.808 5.18-5.212 5.18-8.883v-11.105c0-5.67-4.613-10.283-10.283-10.283h-11.986l-247.964 132.885z"
     id="path2693" /><path
     d="m186.125 168.37-119.156-69.396 43.671-23.29 117.303 68.317z"
     fill="#dbf301"
     id="path2695"
     style="fill:#34beed;fill-opacity:1" /><path
     d="m186.125 169.37c-.174 0-.348-.045-.503-.136l-119.156-69.396c-.313-.183-.504-.521-.497-.883s.21-.693.529-.864l43.671-23.29c.306-.164.674-.156.974.018l117.304 68.317c.308.179.497.508.497.864s-.189.685-.496.864l-41.818 24.369c-.156.091-.33.136-.504.136zm-117.104-70.358 117.104 68.201 39.832-23.212-115.339-67.172-41.597 22.184z"
     id="path2697" /><path
     d="m239.021 72.486-66.726-38.862 24.455-13.042 65.689 38.257z"
     fill="#87c159"
     id="path2699"
     style="fill:#ed349f;fill-opacity:1" /><path
     d="m239.021 73.486c-.174 0-.348-.045-.503-.136l-66.727-38.861c-.313-.182-.504-.52-.497-.883s.21-.693.529-.864l24.455-13.042c.306-.164.674-.156.974.018l65.688 38.257c.308.179.497.508.497.864s-.189.685-.496.864l-23.417 13.646c-.156.091-.33.136-.504.136zm-64.674-39.823 64.674 37.666 21.431-12.489-63.724-37.113z"
     id="path2701" /><path
     d="m600.382 186.66-318.785-185.66-275.296 151.503 325.882 184.708z"
     fill="#fff"
     id="path2703" /><path
     d="m332.184 338.211c-.17 0-.34-.043-.493-.13l-325.882-184.708c-.315-.178-.509-.514-.507-.876s.2-.695.518-.87l275.294-151.503c.308-.17.682-.165.985.012l318.785 185.66c.311.18.5.513.497.872s-.197.688-.511.864l-268.198 150.551c-.151.085-.32.128-.489.128zm-323.832-185.695 323.833 183.547 266.182-149.419-316.784-184.495z"
     id="path2705" /><path
     d="m165.357 186.322c-1.607 0-3.214-.406-4.646-1.217l-71.12-40.31c-1.878-1.065-2.991-2.99-2.978-5.149.014-2.159 1.15-4.069 3.042-5.11l176.576-97.175c2.842-1.565 6.363-1.543 9.188.058l69.866 39.6c1.779 1.008 2.839 2.831 2.835 4.877-.005 2.045-1.072 3.864-2.855 4.865l-175.297 98.365c-1.423.798-3.017 1.197-4.61 1.197zm-74.779-43.267 71.12 40.31c2.245 1.273 5.04 1.278 7.291.016l175.297-98.365c1.146-.643 1.831-1.811 1.834-3.125.002-1.314-.679-2.485-1.821-3.133l-69.866-39.6c-2.224-1.26-4.997-1.279-7.236-.045l-176.576 97.175c-1.248.687-1.998 1.947-2.007 3.371-.01 1.424.725 2.694 1.964 3.396z"
     id="path2707" /><path
     d="m551.263 185.366-10.89 6.113-36.511-20.939 10.956-6.151z"
     id="path2709" /><path
     d="m540.373 192.479c-.172 0-.344-.044-.497-.133l-36.511-20.939c-.313-.179-.505-.512-.503-.872s.196-.691.511-.867l10.956-6.15c.306-.172.683-.171.988.005l36.444 20.977c.312.179.503.512.501.872s-.197.691-.511.867l-10.89 6.113c-.151.085-.32.128-.489.128zm-34.484-21.93 34.489 19.78 8.861-4.974-34.427-19.816-8.924 5.01z"
     id="path2711" /><path
     d="m529.33 197.678-36.46-20.968 3.25-1.824 36.248 21.087z"
     id="path2713" /><path
     d="m529.33 198.678c-.172 0-.345-.044-.499-.133l-36.46-20.968c-.312-.179-.503-.512-.501-.872s.197-.691.511-.867l3.25-1.824c.31-.173.687-.171.992.008l36.248 21.087c.311.18.5.513.497.872s-.197.689-.511.864l-3.038 1.705c-.152.085-.32.128-.489.128zm-34.436-21.958 34.441 19.807 1.017-.571-34.241-19.92-1.217.683z"
     id="path2715" /><path
     d="m518.676 203.658-36.627-20.874 3.264-1.832 36.49 20.951z"
     id="path2717" /><path
     d="m518.677 204.658c-.171 0-.342-.044-.495-.131l-36.628-20.874c-.313-.178-.506-.512-.505-.872 0-.361.196-.692.511-.869l3.265-1.833c.306-.172.682-.171.987.005l36.489 20.951c.312.179.504.512.502.872s-.196.691-.511.867l-3.126 1.755c-.151.085-.32.128-.489.128zm-34.597-21.867 34.601 19.718 1.097-.616-34.47-19.792-1.228.689z"
     id="path2719" /><path
     d="m503.764 212.029-35.926-21.268 6.92-3.884 36.234 21.095z"
     id="path2721" /><path
     d="m503.765 213.029c-.177 0-.353-.047-.51-.139l-35.926-21.268c-.308-.182-.494-.515-.49-.872s.199-.686.511-.861l6.92-3.885c.307-.173.686-.17.992.008l36.232 21.095c.311.181.5.513.497.872s-.197.688-.511.864l-7.227 4.057c-.151.085-.32.128-.489.128zm-33.924-22.245 33.938 20.091 5.198-2.919-34.227-19.927-4.909 2.756z"
     id="path2723" /><path
     d="m492.443 218.384-36.234-21.094 3.667-2.059 36.244 21.089z"
     id="path2725" /><path
     d="m492.442 219.384c-.174 0-.348-.045-.503-.136l-36.233-21.095c-.311-.181-.5-.513-.497-.872s.197-.688.511-.864l3.668-2.059c.31-.173.687-.171.992.008l36.243 21.09c.311.18.5.513.497.872s-.197.689-.511.864l-3.678 2.064c-.152.085-.32.128-.489.128zm-34.219-22.079 34.228 19.927 1.653-.928-34.236-19.922z"
     id="path2727" /><path
     d="m444.947 203.611 4.344-2.438 36.203 21.112-4.53 2.542z"
     id="path2729" /><path
     d="m480.965 225.828c-.176 0-.351-.046-.508-.138l-36.018-21.216c-.308-.182-.496-.514-.492-.872s.198-.687.511-.862l4.344-2.439c.308-.173.688-.171.993.008l36.203 21.112c.31.181.499.513.496.872s-.197.688-.511.864l-4.529 2.543c-.151.085-.32.128-.489.128zm-34.012-22.196 34.023 20.042 2.504-1.406-34.199-19.944-2.328 1.307z"
     id="path2731" /><path
     d="m472.318 229.681-8.996 5.05-36.417-21.082 8.002-4.42z"
     id="path2733" /><path
     d="m463.322 235.731c-.173 0-.346-.045-.501-.135l-36.418-21.082c-.312-.181-.503-.515-.499-.875.004-.361.201-.691.517-.865l8.003-4.419c.301-.166.664-.166.963-.002l37.411 20.451c.319.174.519.508.521.872s-.193.7-.511.878l-8.996 5.05c-.151.085-.32.128-.489.128zm-34.387-22.062 34.395 19.91 6.925-3.887-35.346-19.322z"
     id="path2735" /><g
     inkscape:label="Layer 1"
     id="layer1"
     transform="matrix(3.7795276,0,0,3.7795276,-106.08262,-335.13652)"><g
       transform="scale(0.26458333)"
       id="flowRoot3721"
       style="font-weight:bold;font-stretch:extra-expanded;font-size:40px;line-height:1.25;font-family:'FOT-Rodin Pro';-inkscape-font-specification:'FOT-Rodin Pro Bold Extra-Expanded';letter-spacing:0px;word-spacing:0px" /><g
       aria-label="open"
       id="text3731"
       style="font-size:4.26377px;line-height:1.25;letter-spacing:0px;word-spacing:0px;fill:#34beed;stroke-width:0.106594"><path
         d="m 72.847763,123.54143 c -3.008295,-1.73684 -6.751951,-1.82544 -9.704631,-0.12071 -2.919127,1.68535 -2.815992,3.87581 0.192303,5.61265 2.991208,1.72698 6.785185,1.78652 9.704312,0.10116 2.95268,-1.70473 2.799224,-3.86613 -0.191984,-5.5931 z m -2.41583,1.39478 c 1.880186,1.08552 2.085583,2.26957 0.676349,3.08319 -1.358904,0.78456 -3.511016,0.68498 -5.357018,-0.38081 -1.880185,-1.08552 -2.018476,-2.30831 -0.659572,-3.09287 1.409234,-0.81362 3.460056,-0.69504 5.340241,0.39049 z"
         style="font-weight:bold;font-stretch:extra-expanded;font-size:20.4661px;font-family:'FOT-Rodin Pro';-inkscape-font-specification:'FOT-Rodin Pro Bold Extra-Expanded'"
         id="path11388" /><path
         d="m 83.718682,117.24536 c -3.2305,-1.86513 -6.634198,-1.87368 -9.100358,-0.44985 -1.107255,0.63928 -1.784668,1.6817 -1.163015,2.42805 l -1.316131,-0.75987 -2.16418,1.24949 12.785273,7.38158 2.382276,-1.37541 -4.016767,-2.31908 c 1.050265,0.0252 2.500001,-0.37759 3.405937,-0.90063 2.432606,-1.40447 2.451657,-3.36941 -0.813035,-5.25428 z m -2.415832,1.39478 c 2.051119,1.18422 2.120094,2.30887 0.845072,3.045 -0.989819,0.57147 -2.225576,0.59414 -3.345787,0.43169 l -2.615166,-1.50987 c -1.213572,-0.70066 -1.230637,-1.75659 -0.106605,-2.40555 1.358904,-0.78457 3.205558,-0.72574 5.222486,0.43873 z"
         style="fill:#34ed90"
         id="path11390" /><path
         d="m 94.190124,111.37731 -0.256388,-0.14802 c -2.922841,-1.68751 -6.514869,-1.82417 -9.19912,-0.27442 -2.902354,1.67568 -2.44344,3.87782 0.359747,5.49624 3.025391,1.74671 6.802281,1.79639 9.603973,0.17883 2.02997,-1.172 2.503221,-2.27417 2.159814,-3.61538 l -2.644317,-0.17067 c 0.438366,0.93111 -0.104833,1.89604 -1.295968,2.58374 -1.34213,0.77488 -3.116628,0.99018 -4.600208,0.34673 z m -3.718026,0.44923 -3.914349,2.97048 c -1.437357,-0.92672 -1.318311,-1.94282 0.05737,-2.73707 1.191136,-0.6877 2.679487,-0.797 3.85698,-0.23341 z"
         style="fill:#edd134"
         id="path11392" /><path
         d="m 109.20629,108.01693 -6.32426,-3.65131 c -1.91437,-1.10526 -4.726146,-1.15952 -6.756116,0.0125 -1.543445,0.89111 -2.036628,1.80744 -1.601099,2.56256 l -1.213581,-0.70066 -2.180955,1.25917 9.486401,5.47698 2.38227,-1.37541 -6.204611,-3.58223 c -0.689398,-0.74672 -0.363972,-1.56618 0.609068,-2.12796 0.956268,-0.5521 2.293309,-0.59379 3.421423,0.0575 l 5.98241,3.45395 z"
         style="fill:#ed349f;fill-opacity:0.8"
         id="path11394" /></g><g
       transform="scale(0.26458333)"
       id="flowRoot4598"
       style="font-size:40px;line-height:1.25;letter-spacing:0px;word-spacing:0px" /><g
       transform="scale(0.26458333)"
       id="flowRoot4606"
       style="font-size:40px;line-height:1.25;letter-spacing:0px;word-spacing:0px" /></g><g
     id="g11465"
     transform="matrix(0.40250421,0,0,0.40250421,287.38954,116.31272)"><path
       d="m 223.50591,185.13622 -71.13952,41.07242 -13.19626,-7.61886 C 98.943472,195.36491 102.10684,157.40436 118.4783,129.6227 c 3.86195,-6.55519 8.03387,-18.81597 -7.43549,-27.28184 -17.48427,-9.569413 -47.772331,-8.456537 -67.514641,2.47936 -10.2102,5.6721 -16.416348,13.01763 -17.419132,20.69715 -1.002342,7.68487 3.294075,14.71615 12.097717,19.79894 l -71.13952,41.07242 c -25.812771,-14.90301 -38.409654,-35.51527 -35.471328,-58.03989 2.936831,-22.52039 21.066529,-44.061002 50.993628,-60.644252 28.333,-15.694241 64.402363,-25.088368 101.563782,-26.453061 37.161424,-1.364693 71.446484,5.446377 96.536584,19.178146 35.38588,19.365791 45.54372,49.537947 27.17369,80.710107 -7.63977,12.96441 -9.25335,29.62292 2.44703,36.37814 z m -15.38095,34.91708 c -23.13543,13.35725 -25.37973,33.71918 -5.01047,45.47939 20.36927,11.7602 55.63607,10.46508 78.77261,-2.8928 23.13653,-13.35788 25.37973,-33.71918 5.01047,-45.47938 -20.36927,-11.76021 -55.63718,-10.46445 -78.77261,2.89279 z"
       fill="url(#a)"
       id="path11441" /><g
       fill="#ffffff"
       id="g11449"><path
         d="m 156.71807,217.03333 c -40.22667,-23.22487 -37.0633,-61.18542 -20.69087,-88.96652 3.86195,-6.55518 8.03387,-18.81597 -7.43549,-27.28184 -11.92256,-6.526194 -29.798109,-8.079564 -46.226175,-4.942001 10.717689,0.1291 20.949995,2.267959 28.679215,6.499011 15.47033,8.46642 11.29951,20.72658 7.43549,27.28184 -16.37146,27.78166 -19.534829,65.74221 20.69183,88.96708 l 13.19626,7.61886 10.12078,-5.84324 -5.77214,-3.33255 z"
         id="path11443" /><path
         d="M -50.856162,126.7924 C -47.919332,104.27201 -29.790603,82.730832 0.1364964,66.147581 22.79436,53.596669 50.403481,45.090689 79.557973,41.482196 c -35.52873,1.941131 -69.805986,11.17598 -96.968439,26.222392 -29.928068,16.58269 -48.056797,38.123862 -50.993628,60.644252 -2.938326,22.52462 9.659526,43.13744 35.471328,58.03989 l 10.44563,-6.03079 c -20.99511,-14.42806 -31.024429,-33.2159 -28.369026,-53.56554 z"
         id="path11445" /><path
         d="m 220.66146,263.97568 c -20.3683,-11.75964 -18.1251,-32.12094 5.01144,-45.47882 7.81825,-4.51388 17.02359,-7.64456 26.56958,-9.36555 -15.39723,-0.0233 -31.54664,3.6642 -44.11752,10.92199 -23.13543,13.35725 -25.37863,33.71855 -5.01033,45.47819 13.48515,7.78566 33.4993,9.8439 52.20301,6.47275 -12.94262,-0.0188 -25.35424,-2.65808 -34.65618,-8.02856 z"
         id="path11447" /></g><path
       d="m 285.27923,264.59834 c -25.22434,14.56327 -63.81131,15.97972 -86.0177,3.15886 -22.20736,-12.82143 -19.7529,-35.10026 5.47033,-49.6629 25.22324,-14.56265 63.81242,-15.98037 86.01977,-3.15894 22.20736,12.82142 19.75193,35.0997 -5.4724,49.66298 z m -73.76116,-42.58603 c -20.97385,12.10926 -23.01366,30.63367 -4.5484,41.29459 18.46525,10.66092 50.55061,9.48204 71.52336,-2.62658 20.97274,-12.10862 23.01572,-30.63375 4.55047,-41.29467 -18.46526,-10.66091 -50.55159,-9.4826 -71.52543,2.62666 z m 15.38191,-34.91652 -71.13952,41.07242 c -2.12855,1.22892 -5.37321,1.34807 -7.24717,0.26614 l -13.19626,-7.61886 c -41.693447,-24.07173 -38.536217,-63.21197 -21.67927,-91.81573 3.47869,-5.90293 7.27547,-16.92061 -6.36649,-24.38737 -15.651042,-8.566949 -42.764843,-7.570644 -60.441397,2.21961 -9.141308,5.09527 -14.704002,11.67303 -15.600003,18.53304 -0.89727,6.8809 2.950235,13.17618 10.831923,17.72668 1.873962,1.08193 1.667579,2.95524 -0.460969,4.18415 l -71.13952,41.07242 c -2.128547,1.22892 -5.373209,1.34808 -7.24717,0.26614 -26.733756,-15.43474 -39.780652,-36.78236 -36.738224,-60.11149 3.040011,-23.31655 21.815761,-45.629804 52.809718,-62.808856 C 8.6354067,49.437433 45.992671,39.70609 84.477216,38.292807 c 38.485514,-1.412723 73.994474,5.642131 99.982014,19.866609 36.69984,20.083713 47.25817,51.337734 28.24367,83.605134 -6.96752,11.82291 -8.82441,27.59202 1.45862,33.52893 l 13.19626,7.61886 c 1.87616,1.08066 1.67075,2.95453 -0.4578,4.18345 z m -74.07165,34.92926 63.43138,-36.62213 -9.80316,-5.65985 C 192.8444,171.88409 195.13299,153.90002 203.02208,140.51628 220.74694,110.4364 210.98752,81.346197 176.91643,62.700082 152.72584,49.460946 119.66674,42.893584 83.827345,44.210323 47.988083,45.525866 13.206489,54.583973 -14.1107,69.715244 -42.972079,85.72238 -60.453392,106.48789 -63.283128,128.19531 c -2.704599,20.73067 8.237098,39.78207 30.880704,53.96921 l 63.540396,-36.68507 c -7.543306,-5.38505 -11.127028,-12.31511 -10.149901,-19.80854 1.105748,-8.46436 7.912969,-16.57672 19.231655,-22.85745 21.820884,-12.085594 55.282105,-13.314403 74.596554,-2.74301 17.2947,9.46505 12.75178,22.96879 8.5056,30.17568 -15.88707,26.96019 -19.05548,63.7404 19.70343,86.11787 l 9.80412,5.66041 z"
       id="path11451" /></g></svg>
