<?xml version="1.0" encoding="UTF-8" standalone="no"?>
<svg
   height="1888.957"
   viewBox="0 0 4908.4092 1888.957"
   width="4908.4092"
   version="1.1"
   id="svg2199"
   sodipodi:docname="repository-manager-logo-text.svg"
   xml:space="preserve"
   inkscape:version="1.2.1 (9c6d41e410, 2022-07-14)"
   xmlns:inkscape="http://www.inkscape.org/namespaces/inkscape"
   xmlns:sodipodi="http://sodipodi.sourceforge.net/DTD/sodipodi-0.dtd"
   xmlns="http://www.w3.org/2000/svg"
   xmlns:svg="http://www.w3.org/2000/svg"><defs
     id="defs2203" /><sodipodi:namedview
     id="namedview2201"
     pagecolor="#ffffff"
     bordercolor="#000000"
     borderopacity="0.25"
     inkscape:showpageshadow="2"
     inkscape:pageopacity="0.0"
     inkscape:pagecheckerboard="0"
     inkscape:deskcolor="#d1d1d1"
     showgrid="false"
     inkscape:zoom="0.15516275"
     inkscape:cx="3476.9944"
     inkscape:cy="534.92222"
     inkscape:window-width="1920"
     inkscape:window-height="1009"
     inkscape:window-x="-8"
     inkscape:window-y="-8"
     inkscape:window-maximized="1"
     inkscape:current-layer="g6536" /><path
     d="m 1853.001,7.612 98.484,39.817 -643.371,644.034 -102.29,-41.367 z"
     id="path2119" /><path
     d="m 1781.865,612.617 207.383,-444.565 c 32.853,-70.426 -3.85,-128.047 -81.562,-128.047 h -293.16 c -58.287,0 -111.296,33.765 -135.937,86.588 l -207.383,444.565 c -32.853,70.426 3.85,128.047 81.562,128.047 h 293.16 c 58.287,0 111.296,-33.765 135.937,-86.588 z"
     id="path2121" /><path
     d="m 1890.25,128.05 -207.39,444.57 c -24.64,52.82 -77.65,86.58 -135.93,86.58 h -293.16 c -16.92,0 -31.9,-2.73 -44.64,-7.74 -4.86,-1.9 -9.39,-4.14 -13.58,-6.69 -1.25,-0.75 -2.46,-1.53 -3.65,-2.35 -0.31,-0.2 -0.61,-0.41 -0.91,-0.64 -2.26,-1.57 -4.4,-3.26 -6.43,-5.05 -0.84,-0.73 -1.67,-1.48 -2.47,-2.26 -0.74,-0.71 -1.46,-1.44 -2.16,-2.18 -3.58,-3.74 -6.7,-7.83 -9.33,-12.21 -0.6,-0.99 -1.17,-2 -1.72,-3.02 -4.88,-9.1 -7.78,-19.4 -8.53,-30.59 -0.18,-2.69 -0.23,-5.43 -0.15,-8.22 0.38,-14.59 4.26,-30.49 12,-47.09 L 1379.59,86.59 c 21.12,-45.28 63.09,-76.56 111.36,-84.57 0.82,-0.14 1.65,-0.27 2.48,-0.39 1.84,-0.27 3.7,-0.51 5.56,-0.71 0.45,-0.06 0.9,-0.11 1.35,-0.15 1.32,-0.14 2.65,-0.25 3.98,-0.35 3.25,-0.25 6.51,-0.38 9.8,-0.41 0.47,-0.01 0.93,-0.01 1.4,-0.01 h 293.17 c 77.71,0 114.41,57.63 81.56,128.05 z"
     fill="#91a0e2"
     id="path2123"
     style="fill:#00aad4" /><path
     d="m 1520.57,31.86 c 0.71,-10.79 3.62,-21.42 7.51,-31.86 h -12.56 c -0.47,0 -0.93,0 -1.4,0.01 -6.55,13.22 -13.73,25.82 -16.27,38.39 -1.24,-0.46 -2.55,-1.4 -3.33,1.08 1.05,0.73 2.98,0.94 2.5,2.52 -2.96,4.72 -6.23,7.68 -9.8,8.65 0.97,1.81 1.33,3.96 1.66,6.12 1.14,-1.81 0.5,-6.41 3.16,-6.49 -0.68,2.21 1.22,2.98 -1.12,6.12 -6.97,2.13 -2.61,1.14 -7.25,7.21 0.96,-1.83 0.78,-3.05 0.08,-3.96 -0.03,6.06 -7.84,11.7 -7.68,17.64 3.98,-5.04 4.08,-7.17 8.07,-10.8 -2.22,5.87 -3.36,6.94 -4.29,12.6 -1.91,0.37 -0.95,-4.44 -3.03,-1.44 0.69,6.61 -11.69,11.03 -11.53,19.82 0.42,-2.5 4.1,-5.39 3.09,-2.52 -1.2,2.74 -2.82,2.78 -4.14,4.69 3.14,6.6 -5.42,12.23 -5.43,18.71 -2.35,2.2 -3.38,1.55 -4.59,1.82 1.62,3.01 -2.5,13.38 -3.84,15.48 -2.64,-0.6 1.85,-5.23 0.36,-6.48 -4.79,11.09 -3.97,15.95 -4.95,21.6 -0.99,2.59 -2.76,0.16 -3.86,2.16 4.15,-0.19 0.87,8.32 -1.26,14.04 -2.48,-1.64 -3.87,-1.91 -4,-3.24 1.43,-0.73 2.7,-4.83 2.4,-6.84 -2.99,2.39 -1.16,-4.5 -2.95,-5.38 1.52,-2.04 2.3,-1.73 2.8,-0.01 2.15,-8.83 8.99,-17.84 11.15,-26.65 0.81,0.58 0.77,2.74 2.26,1.08 -3.5,0.4 1.33,-3.89 -0.68,-4.33 -3,2.39 -2,-4.02 -1.68,-6.1 0.51,1.72 1.29,2.03 2.8,-0.01 -3.43,-4.67 4.48,-7.89 3.01,-11.89 2.33,-1.98 1.37,3.25 3.33,-1.08 -1.01,-0.48 -2.02,-0.95 -3.02,-1.43 1.53,-4.07 6.75,-15.5 8.2,-18.72 1.7,-2.55 -5.22,1.23 -1.96,-3.59 3.05,2.38 4.39,-12.65 10.11,-11.19 2.42,-11.19 7.99,-13.55 8.8,-23.75 1.5,0.16 5.62,-5.16 4.44,-7.21 -0.3,2.02 -3.78,3.98 -2.55,1.43 7.99,-10.18 14.51,-24.47 21.19,-37.64 -1.33,0.1 -2.66,0.21 -3.98,0.35 -0.77,4.05 -2.54,8.92 -6.29,9.21 2.51,-1.92 3.74,-5.54 4.939,-9.06 -1.86,0.2 -3.72,0.44 -5.56,0.71 -0.01,1.37 -0.52,2.74 -1.58,3.32 -0.47,-0.89 -0.92,-1.78 -0.9,-2.93 -48.27,8.01 -90.24,39.29 -111.36,84.57 l -207.39,444.57 c -7.74,16.6 -11.62,32.5 -12,47.09 0.95,0.54 1.88,0.96 2.57,-0.14 -0.5,2.65 -1.34,5.46 -2.42,8.36 0.75,11.19 3.65,21.49 8.53,30.59 0.02,-0.04 0.03,-0.07 0.04,-0.11 1.15,0.6 1.78,1.9 1.68,3.13 2.63,4.38 5.75,8.47 9.33,12.21 1.52,-3.3 4.41,-6.83 5.69,-11.42 1.6,1.19 2,3.05 4.76,3.59 -2.73,4.47 -5.12,6.52 -8.29,10.01 0.8,0.78 1.63,1.53 2.47,2.26 1.2,-1.73 2.52,-3.18 3.64,-3.99 3.27,0.56 2.49,7.41 5.81,1.42 0.11,2.19 -1.29,4.88 -3.021,7.62 0.3,0.23 0.6,0.44 0.91,0.64 3.16,-6.31 6.36,-12.45 10.33,-13.68 -1.1,6.2 -3.71,11.16 -6.68,16.03 4.189,2.55 8.72,4.79 13.58,6.69 3.97,-9.07 7.19,-17.82 8.87,-24.55 2.32,-0.08 3.77,-5.64 6.42,-3.62 0.26,-7.48 6.58,-8.71 5.36,-14.76 -0.74,1.29 -1.49,2.46 -2.57,1.45 0.62,-2.89 0.91,-3.09 2.93,-7.92 1.24,0.45 2.55,1.39 3.33,-1.09 -3.18,-5.8 5.88,-12.15 9.19,-16.93 -1.33,-1.02 -2.22,0.75 -3.32,1.1 1.66,-4.39 4.97,-12.46 9.35,-11.55 -0.53,3.15 -5.09,2.25 -3.4,5.05 0.95,-1.43 2.27,-0.45 3.32,-1.09 1.42,-13.82 10.79,-29.43 15.15,-36.73 1.6,-2.69 -0.3,-5.26 0.36,-6.48 1.8,-3.27 6.4,-4.35 8.03,-10.64 -0.13,0.74 0.92,-1.81 2.16,-4.49 0.49,-1.08 4.44,-13.15 8.89,-14.41 2.12,0.44 -3.06,8.94 -0.37,6.47 1.63,-4.01 1.38,-5.75 4.22,-8.65 -4.32,-1.01 -0.38,-7.15 2.18,-8.27 -0.55,3.97 -2.77,8.87 -0.97,11.52 2.07,-7.27 4.91,-21.38 11.229,-17.3 -0.76,-0.38 -0.02,-2.34 1.061,-2.16 -0.271,5.29 2.22,4.31 2.13,8.99 0.29,-17.03 16.46,-23.24 13.16,-40.32 1.56,0.43 1.07,2 2.5,2.51 1.71,-3.32 -0.87,-4.21 2.18,-8.29 1.31,0.92 2.26,-0.42 3.56,0.35 1.08,-2.95 2.5,-6.11 2.18,-8.28 -2.021,4.95 -4.6,6.25 -7.48,5.78 4.66,-6.66 2.95,-11.81 9.95,-16.58 -2.85,3.97 0.68,4.33 -2.18,8.29 2.3,-0.2 4.96,1.92 6.64,-2.18 -1.03,-0.71 -2.97,-0.93 -2.49,-2.51 3.07,2.35 11.01,-11.28 14.03,-17.3 -2.26,-2.5 -3.46,1.66 -5.59,0.02 1.48,-0.87 2.72,-3.41 3.92,-6.13 0.74,3.13 0.85,2.3 4,3.23 2.37,-3.15 -1.76,-2.66 -0.15,-5.4 2.8,1.5 4.33,-4.94 6.94,-4.69 -0.22,-5.93 2.54,-6.31 4.14,-4.7 -0.06,-5.1 1.45,-6.36 0.45,-10.43 2.38,-1.08 0.91,0.56 3.02,1.43 1.48,-5 1.61,-4.37 4.45,-7.2 -0.04,-2.07 -0.88,-3.68 -0.92,-5.75 2.48,-1.2 2.65,-4.16 2.8,-0.01 7.32,-11.17 0.68,-19.24 5.26,-24.12 -5.22,-3.35 -0.62,-7.27 3.24,-10.44 -1,-2.29 -4.2,1.44 -3.02,-1.44 3.13,-2.18 4.12,-4.79 5.49,-9.36 2.87,0.22 1.51,2.82 2.729,3.95 -0.07,-2.99 3.021,-5.77 2.41,-6.83 -1.18,1.35 -2.47,2.08 -3.85,2.17 1.26,-2.54 0.25,-3.8 2.41,-6.85 0.76,0.36 1.51,0.72 2.27,1.07 0.33,-11.1 10.34,-22.07 8.88,-27.72 1.03,-3.78 3.06,-1.31 4.38,-3.24 -1.02,-0.55 -1.92,-0.29 -2.79,0 -0.43,-3.5 11.58,-13.45 4.21,-8.65 2.81,-4.96 6.51,-5.07 6.26,-9 -1.46,2.41 -3.27,1.55 -2.27,-1.07 0.35,2.07 1.99,1.96 3.32,-1.1 -0.79,-1.64 0.01,-4.17 0.38,-6.47 0.63,3.88 3.79,-4.33 3.91,-6.13 -0.57,0.76 -1.05,2.12 -1.81,1.8 0.75,-2.3 2.05,-8.9 4.75,-9.72 0.73,1.16 -1.92,4.22 -0.6,5.04 3.12,-3.01 1.33,-5.3 2.71,-9.37 5.33,0.48 1.88,-12.36 8.07,-10.8 -7.13,7.28 -0.21,17.5 -8.74,19.81 4.17,2.23 -0.17,4.64 -1.19,10.08 2.98,-0.11 1,2.56 1.96,3.58 3.04,-4.7 0.67,-3.48 0.6,-5.03 1.3,-0.63 2.17,-3.87 3.85,-2.17 -0.51,1.33 -1.63,3.01 -0.82,3.61 1.57,-4.75 3.61,-6.58 5.94,-6.5 1.02,-6.49 5.09,-9.45 9.8,-21.97 -0.34,-2.66 -3.06,0.37 -1.96,-3.59 10.31,-12.41 9.94,-28.44 16.94,-38.53 -1.2,-3.3 -5.32,-0.08 -2.95,-5.39 2.37,-2.17 3.54,-0.68 5.07,1.06 1.85,-11.33 9.54,-15.56 13.94,-26.65 -4.24,-7.52 9.25,-19.4 7.37,-28.45 -1.39,5.52 -4.5,11.99 -8.36,13.34 -0.77,-5.37 4.57,-18.45 8.89,-14.42 0.2,-7.2 8.46,-9.5 4.82,-13.68 5.36,1.06 11.13,-11.21 13.02,-18.99 -0.13,0.89 1.69,-1.38 2.89,-4.07 6.43,-14.57 16.15,-31.63 19.12,-46.81 1.24,0.45 2.56,1.39 3.33,-1.09 -1.87,-1.04 -3.8,-2.05 -2.2,-5.03 1.99,0.08 0.91,4.19 2.8,-0.01 -0.77,-1.64 -0.57,-4.45 1.88,-5.76 0.08,-2.9 -2.51,0.48 -1.74,-2.15 1.08,-1.97 2.26,-3.38 3.62,-3.61 1.14,0.66 -0.75,3.03 1.21,3.24 0.31,-4.74 1.42,-5.36 2.48,-10.8 -2.49,-1.43 -1.71,3.67 -5.13,2.88 z M 1486.94,9.28 c 0.79,-2.41 1.91,-2.61 2.87,-3.96 -0.16,2.14 0.94,5.1 2.8,-0.01 -0.63,4.29 -4.8,10.73 -7.17,16.56 -2.8,-4.02 6.08,-10.46 1.5,-12.59 z m -8.28,22.69 c -2.65,9 -9.16,19.61 -13.55,33.49 3.64,0.69 1.86,-5.56 5.19,-6.85 2.33,1.57 -1.85,6.78 -3.23,10.44 -3.81,0.85 -2.97,-3.33 -6.79,-3.22 6.84,-13.04 9.2,-23.18 18.38,-33.86 z m -19.96,50.41 c 3.31,0.49 -1.53,5.56 -2.18,8.27 -1.38,-2.61 0.55,-3.25 2.18,-8.27 z m -6.48,7.56 c 1.82,1.33 1.17,4.05 0.38,6.84 -0.26,-1.16 -1.14,-1.96 -2.49,-2.51 0.7,-1.44 1.41,-2.88 2.11,-4.33 z m -4.35,29.88 c 0.55,0.62 0.58,5.22 -1.35,4.68 -0.49,1.06 0.51,1.28 0.98,1.8 -2.19,2.83 -1.72,0.68 -3.55,-0.35 1.06,-3.57 2.85,-2.56 3.92,-6.13 z m -6.03,10.44 c 0.35,0.99 0.71,1.95 1.51,0.72 1.73,0.6 -1.53,4 -1.88,5.77 -0.84,-1.62 -1.64,-3.27 0.37,-6.49 z m -234.77,427.6 c 1.31,1.61 -2.67,6.2 -3.46,9.01 -2.74,-3.72 1.04,-4.68 3.46,-9.01 z m -20.29,26.32 c -1.12,-2.41 0.49,-4.37 2.41,-6.85 3.46,1.51 -1.92,3.11 -2.41,6.85 z m 17.09,24.06 c -1.28,-0.79 -2.23,0.56 -3.55,-0.36 1.36,-4.66 3.85,-2.17 5.2,-6.84 0.73,1.68 -1.41,4.98 -1.65,7.2 z m 11,-32.05 c -8.2,11.96 -13.34,23.81 -20.73,36.75 1.47,0.49 2.24,-3.44 3.62,-3.61 2.27,1.28 -1.771,7.29 -3.92,6.12 0.04,3.78 0.56,4.3 4.23,4.68 -9.55,6.39 -9.9,-1.24 -2.81,-13.31 -1.57,0.39 -2.78,2.95 -4.14,4.68 -2.64,-0.61 1.85,-5.21 0.36,-6.47 0.96,-1.35 2.35,0 3.55,0.35 4.36,-10.86 4.37,-11.82 9.57,-23.41 3.58,-0.08 2.69,-5.48 6.72,-6.13 0.75,-3.27 -3.3,2.48 -3.03,-1.43 4.33,-7.3 6.02,-5.58 8.89,-14.42 -2.05,-1.19 -2.53,7.51 -4.89,4.33 3.63,-4.42 4.87,-8.66 5.57,-13.32 1.92,0.49 2.81,1.55 3.25,2.87 1.61,-2.74 0.69,-4.05 -1.44,-4.67 1.87,-5.88 4.64,-5.99 7.24,-7.21 2.81,8.4 -12.47,25.08 -12.04,34.2 z m 66.36,-88.3 c -2.77,-3.07 1.74,-5.58 1.94,-9.72 2.52,1.46 -1.53,6.62 -1.94,9.72 z m 6.69,-19.44 c -3.17,-5.44 8.87,-25.99 13.63,-37.45 -0.37,9.91 -11.44,29.02 -13.63,37.45 z m 9.58,-10.09 c 0.71,-1.44 1.41,-2.88 2.11,-4.33 0.76,0.36 1.51,0.71 2.27,1.07 -1.33,1.92 -2.55,4.53 -4.38,3.26 z m 1.88,-5.77 c -1.87,-1.03 0.27,-4.32 1.66,-7.19 0.75,0.36 1.51,0.71 2.27,1.07 -1.21,2.71 -2.43,5.26 -3.93,6.12 z m 9.15,13.65 c 1.64,5.38 -2.42,-0.12 -3.62,3.61 -0.87,-0.82 0.7,-3 1.36,-4.68 1.02,0.6 2.05,1.2 2.79,-0.01 0.76,0.61 -0.11,1.29 -0.53,1.08 z m 27.68,-41.44 c -3.26,-0.71 -3.56,-0.57 -4.77,-3.59 2.35,-0.89 6.86,-0.93 4.77,3.59 z m 0.36,-6.46 c -1.11,0.32 -1.99,2.1 -3.33,1.07 0.95,-0.74 1.87,-1.49 1.07,-2.15 0.76,-1.09 1.86,-0.03 2.57,-1.46 0.32,0.87 0.68,1.71 1.73,2.17 -0.87,1.11 -2.67,2.1 -2.04,0.37 z m 19.85,-86.41 c 1.03,0.61 2.05,1.2 2.79,0.01 2.19,1.05 -1.19,6.95 -2.94,7.92 -1.73,-1.65 -1.51,-4.38 0.15,-7.93 z m -3.46,9 c 2.39,2.05 -2.26,4.24 -3.47,9.01 -1.29,-0.77 -2.24,0.57 -3.55,-0.35 2.3,-3.2 4.54,-6.67 7.02,-8.66 z m -2.43,64.06 c -0.87,-0.82 0.69,-3.01 1.35,-4.69 -0.97,-0.24 -1.59,1.67 -2.34,2.89 -1.91,0.36 -0.95,-4.44 -3.02,-1.43 -0.66,-1.62 4.57,-3.22 6.41,-3.62 -1.61,3.96 0.79,3.64 -2.4,6.85 z m 3.97,-36.72 c -2.48,-0.68 0.15,-4.26 0.36,-6.47 0.76,0.36 1.52,0.71 2.27,1.08 -0.88,1.8 -1.76,3.6 -2.63,5.39 z m 11.92,0.35 c -0.51,-3.12 -1.75,-0.5 -3.09,2.52 -2.41,-2.75 3.68,-6.42 5.5,-9.38 1.6,0.94 -1.92,4.75 -2.41,6.86 z m -3.49,-17.63 c 1.52,5.82 2.19,11.08 -4.89,17.64 -0.79,-3.81 5.67,-10.05 0.51,-14.39 5.62,-8.44 7.97,-16.31 11.54,-19.81 2.06,5.34 -2.49,13.86 -7.16,16.56 z m 15,-28.82 c -3.23,5.29 -5.9,6.59 -5.8,11.89 -1.26,-0.6 -2.52,-1.2 -3.79,-1.79 3.88,-5.45 5.83,-14.06 10.79,-20.17 1.36,3.8 -3.71,6.63 -1.2,10.07 z m 40.09,-82.12 c -2.7,-0.32 -1.32,-2.92 -4.01,-3.24 2.17,-0.99 3.47,-7.46 6.19,-5.04 -1.91,-2.76 2.97,-6.85 5.11,-10.51 -3.83,6.9 -3.57,14.09 -7.29,18.79 z m 4.92,22.3 c -1.27,-0.67 -2.35,-0.12 -3.31,1.07 -1.58,-0.93 -0.31,-3.47 1.12,-6.11 0.63,2.62 1.87,-0.1 2.5,2.52 1.32,-1.88 2.15,-7.01 4.14,-4.69 -1.72,0.91 -3.04,4.34 -4.45,7.21 z m 0.72,-39.58 c -2.15,1.23 -4.85,-1.24 -2.19,-5.02 2.92,5.4 1.94,-5.02 6.41,-3.63 -2.78,4.11 -1.93,3.67 -4.22,8.65 z m 3.74,-38.14 c -0.07,-3.36 2.09,-4.13 3.46,-9.01 2.26,1.17 -1.67,7.91 -3.46,9.01 z m 1.45,17.98 c -0.67,-1.45 -0.3,-3.49 1.13,-6.11 2.35,0.83 0.78,5.11 -1.13,6.11 z m -0.33,46.42 c -0.79,-3.97 1.4,-4.51 3.69,-7.57 0.79,3.95 -1.4,4.5 -3.69,7.57 z m 7.46,-89.61 c 2.14,2.19 -2.31,4.26 -2.18,8.28 -3.29,-0.49 1.53,-5.56 2.18,-8.28 z m -0.89,20.87 c -0.78,-4.84 0.4,-6.83 2.03,-13.67 0.42,2.15 -1.09,8.44 2.49,2.51 2.52,3.03 -3.01,7.03 -4.52,11.16 z m 11.27,9.32 c 2.51,-3.57 0.83,-6.02 3.68,-7.55 3.86,0.26 -1.06,10.36 -3.68,7.55 z m 3.98,-10.08 c 3.32,-1.12 6.1,-5.58 9.74,-4.7 -2.89,3.8 -5.8,7.55 -9.74,4.7 z"
     fill="#576cc0"
     fill-rule="evenodd"
     opacity="0.5"
     id="path2125"
     style="fill:#0088aa" /><path
     d="m 448.813,239.74871 h 932.395 V 659.213 H 448.813 Z"
     fill="#fcae1d"
     id="path2127"
     style="stroke-width:1.3059" /><path
     d="M 448.81,239.75212 H 777.98 V 659.20788 H 448.81 Z"
     fill="#fdc93a"
     id="path2129"
     style="stroke-width:1.3059" /><path
     d="m 477.34,241.52212 c -0.2,-0.87 1.25,-1.33 2.85,-1.77 h -31.38 v 8.44 c 2.63,-0.86 2.35,-1.35 5.14,-2.1 -0.91,0.17 -2.83,-0.16 -3.05,0.32 -0.18,-0.87 1.84,-1.27 4.79,-2.04 -0.06,0.02 -0.36,0.39 -0.76,0.46 4.32,-0.74 12.09,-5.63 17.7,-4.03 -1.67,0.41 -3.1,0.89 -3.94,1.53 1.08,-0.59 5.8,-0.8 5.96,-2.32 1.28,-0.46 1.79,-0.17 2.29,0.13 0.01,0.58 0.04,1.15 -1.4,1.37 -0.01,0.6 1.86,-0.64 1.44,0.35 -2.69,0.77 -4.44,0.61 -7.22,1.45 1.08,0.23 2.9,-0.05 5.63,-0.76 -5.72,2.86 -9.58,4.09 -16.41,5.41 0.35,1.05 2.75,0.08 3.39,0.83 -4.56,0.7 -7.15,2.92 -10.28,3.27 -0.05,-0.16 -0.1,-0.31 -0.14,-0.46 -0.34,-0.44 0.46,-0.6 1.12,-0.8 -0.94,-0.49 -2.19,0.73 -1.4,1.37 -1.12,0.31 -1.73,0.75 -2.86,1.06 v 45.5 c 0.05,-0.04 0.1,-0.07 0.17,-0.1 0.75,0.49 4.62,-0.97 3.66,0.26 2.93,-1.19 7.5,-2.22 9.09,-1.21 4.92,-1.9 8.71,-3.64 13.97,-4.51 0.18,0.33 0.1,0.89 0.69,0.81 0.18,-0.6 1.29,-0.97 1.81,-1.48 0.36,0.77 1.12,-0.33 1.39,0.12 -0.57,0.22 -0.33,0.64 -0.63,0.92 0.94,-0.34 1.61,-0.4 2.14,-0.33 0.11,-0.8 -1.51,0.1 -1.16,-0.93 1.04,-0.25 1.18,-0.71 1.95,-1.02 1.85,0.42 3.96,-1.77 7.15,-1.68 -0.04,0.34 -0.47,0.6 -0.15,1.03 1.51,-0.49 1.17,-1.42 2.58,-1.94 0,0.36 -0.57,0.58 -0.63,0.92 1.6,-2.24 7.07,-1.71 8.4,-2.02 -0.47,0.07 -1.11,-0.11 -0.55,-0.35 6.86,-1.36 12.49,-3.42 18.76,-5.05 0.12,0.25 -0.5,0.52 0.13,0.46 2.78,-0.96 16.49,-7.43 14.59,-3.93 0.34,-0.04 0.82,-0.21 0.9,0 -0.48,0.17 -1.19,0.28 -1.18,0.57 1.39,0.02 3.58,-1.33 5.28,-1.92 0.51,0.2 0.89,0.51 1.52,0.59 2.63,-2.46 5.44,-0.5 8.4,-2.02 0.3,0.57 -1.56,0.62 -0.98,1.26 3.74,-3.05 11.42,-3.37 17.24,-5.64 0.31,0.58 -2.4,0.41 -1.47,1.14 4.15,-1.81 12.52,-3.2 17.79,-5.29 -1.07,1.04 1.63,-0.1 1.93,0.47 -3.22,2.53 -7.53,2.18 -12.1,4.75 0.33,0.28 -0.14,1.33 0.75,1.04 0.73,-2.5 6.28,-2.61 9.54,-4.3 0.28,0.31 1.37,-0.16 1.1,0.69 2.86,-2.2 9.35,-3.6 14.52,-4.16 0.95,-1.34 4.13,-0.94 6.12,-2.15 -0.81,0.59 -0.28,1.51 -1.68,1.95 -0.67,-0.47 0.99,-1.34 -0.69,-0.81 -0.06,1.84 -5.79,2.16 -6.75,3.06 1.09,-0.23 -0.46,0.55 0.27,0.92 1.6,-1.11 3.41,-0.86 4.8,-2.03 1.07,0.43 4.44,0.23 2.8,-0.55 1.83,0.63 4.64,-1.1 6.35,-0.43 -4.59,1.04 -5.95,2.53 -9.32,3.5 2.2,0.27 3.19,-0.47 5.14,-0.88 0.11,0.31 -0.05,0.56 -0.22,0.8 6.07,-1.5 10.03,-2.82 14.99,-2.55 -0.01,-0.28 -0.26,-0.63 0.22,-0.8 2.95,0.23 7.81,-1.51 10.55,-2.35 -0.52,0.11 -1.01,0.2 -0.96,-0.23 1.82,-0.51 3.93,-1.29 4.36,-0.43 0.94,-0.35 0.11,-1.12 1.4,-1.38 1.44,0.17 2.28,0.93 3.87,0.95 -1.57,-0.55 5.26,-2.89 3.82,-0.78 2.65,-0.55 3.87,-1.62 6.04,-0.88 0.64,-0.63 1.14,-1.3 2.16,-1.83 -0.91,-2.13 -0.11,-2.63 -0.79,-4.26 -2.08,1.09 -3.62,1.8 -4.78,0.54 -0.29,0.74 -3.64,1.61 -4.59,1.24 -2.42,2.22 -6.89,1.3 -11.32,2.8 -0.08,-1.18 -1.46,0.1 -2.41,-0.59 1.47,-0.5 2.7,-1.05 4.03,-1.58 -0.39,0.87 0.33,0.87 1.23,1.15 0.39,-0.83 2.56,-1.23 3.34,-0.9 0.21,-1.09 -1.88,0.07 -2.35,-0.36 1.51,-0.77 3.42,-1.44 4.73,-2.27 1.17,1.07 4.23,0.17 6.03,-0.88 0.99,0.32 1.01,0.4 0.34,1.16 3.56,-2.05 8.39,-3.01 11.32,-2.81 0.62,-1.98 4.62,-0.67 5.83,-1.57 -0.63,0.03 -1.11,-0.08 -1.45,-0.35 1.33,-0.18 1.12,-0.73 2.44,-0.91 0.16,0.93 1.79,0.42 2.83,0.48 0.28,-0.54 -1.47,-0.43 -0.27,-0.92 3.6,-0.7 4.98,-0.87 7.44,-2.25 0.58,0.65 0.42,1.4 2.91,0.71 -0.15,-0.4 -0.12,-0.75 0.14,-1.04 1.37,-0.18 2.64,-0.16 3.71,-1.21 0.75,0.91 -1.34,1.49 -2.61,1.91 2.74,-0.64 5.08,1.43 5.69,-0.54 4.29,-0.55 7.35,-0.36 11.92,-0.73 0,0.36 -0.57,0.58 -0.63,0.92 2.34,-0.11 3.18,-2.13 3.82,-0.78 -2.03,0.58 -4.52,1.04 -5.29,1.92 0.79,-0.18 1.44,-0.22 1.81,0.01 -2,-0.05 -0.13,1 -3.62,1.47 0.59,0.79 -1.02,1.04 -0.85,1.73 1.1,0.1 2.86,-0.44 3.6,0.02 -3.04,1.54 -5.09,1.91 -7.22,1.45 0.57,-0.29 2.23,-0.31 2.02,-0.8 -2.27,0.75 1.23,-1.21 -1.04,-0.46 -0.96,1.28 -2.43,1.71 -3.76,2.5 0.57,-1.16 -1.72,1.13 -2.7,-0.01 -0.66,0.41 -0.62,0.99 -1.4,1.37 -3.66,-0.6 -9.93,1.29 -13.39,1.87 0.69,0.1 1.92,-0.31 1.93,0.47 -0.41,0.11 -0.44,0.32 -0.76,0.45 -1.58,-0.68 -4.04,1.22 -4.92,0.09 -2.14,0.6 -2,0.79 -3.4,0.67 -0.229,0.6 0.53,1.01 -1.82,1.48 -0.01,-0.5 1,-0.76 0.98,-1.26 -3.31,0.79 -9.01,3.26 -11.39,2.57 -4.4,5.01 -14.35,2.34 -18,6.1 -0.09,-0.31 -0.79,-0.02 -0.96,-0.24 1.12,-0.15 1.47,-0.5 1.05,-1.03 -2.1,0.64 -2.06,0.53 -5.14,0.89 0.99,1.1 4.17,0.06 5.6,0.72 -0.77,0.67 -3.01,0.98 -4.52,1.47 0.74,0.53 4.49,-0.46 5.62,-0.77 0.06,-0.01 0.01,-0.8 0.64,-0.91 0.59,-0.11 1.26,0.35 1.87,0.24 2.84,-0.53 6.58,-2.78 8.46,-1.78 -1.51,0.26 -2.09,0.77 -2.3,1.36 6.83,-2.39 11.31,-2.86 19.17,-5.17 0.07,0.23 -0.25,0.37 -0.28,0.58 2.57,-1.25 5.8,-1.19 8.55,-3.06 0,0.36 -0.57,0.58 -0.63,0.92 1.69,-0.65 3,-1.41 4.32,-2.16 -0.72,0.8 1.61,0.39 2.06,0.94 -0.21,-0.48 0.14,-0.83 1.06,-1.03 1.01,0.08 -0.37,0.7 0.61,0.58 2.07,-0.85 4.47,-1.62 5.99,-2.61 0.14,0.42 -1.91,1.36 -0.5,1.38 2.27,-1.9 9.76,-2.12 12.29,-2.57 -1.31,0.05 1.08,-1.08 1.59,-0.68 0.39,-0.72 -1.85,-0.27 -0.67,-0.81 0.82,0.76 3.38,-0.64 3.95,-0.32 0.88,0.65 -1.38,0.52 -1.05,1.03 1.84,0.07 3.9,-0.08 6.16,-0.42 -3.62,2.06 -11.83,2.32 -16.81,5.53 0.5,0.45 1.77,-0.68 2.43,-0.91 0.71,1.45 1.48,-0.26 2.7,0.02 -0.51,2.15 -4.51,1.08 -6.12,2.15 0.52,-0.11 1.01,-0.2 0.97,0.24 -0.42,0.11 -0.44,0.32 -0.77,0.45 -2.65,0.55 -7.5,0.95 -7.43,2.25 -2.07,0.44 -4.12,-0.7 -5.76,0.31 2.29,-0.16 4.43,-0.19 5.61,0.73 0.06,0.33 -2.96,0.95 -1.53,0.91 2.811,-1.56 3.98,-1.75 6.88,-2.6 -0.42,-0.29 -2.02,0.6 -1.87,-0.24 1.28,-0.27 3.17,-1.13 3.47,-0.44 -1.1,0.69 0.98,1.04 1.03,0.46 -1.19,0.1 0.11,-0.94 0.57,-1.14 0.18,0.32 1.07,-0.06 1.74,-0.22 0.08,0.41 0.3,0.69 0.68,0.81 1.3,-0.33 1.91,-0.82 2.78,-1.25 5.67,-0.16 12.4,-4.61 17.68,-5.27 0.86,-0.92 3.13,-0.89 2.83,-1.5 0.53,0.09 2.92,-0.14 2.98,-0.55 -0.37,-0.34 -1.97,0.55 -2.22,0.1 0.01,-0.29 0.36,-0.49 0.7,-0.69 1.28,0.33 1.37,-0.03 2.51,-0.67 0.47,0.12 0.95,0.24 1.44,0.35 2.5,-1.04 3.65,-1.27 6.12,-2.14 0.11,0.31 -0.04,0.55 -0.21,0.8 1.04,-0.53 2.05,-0.81 2.98,-0.56 -1.14,0.58 -1.91,1.25 -2.58,1.94 1.72,-0.86 4.73,-1.41 5.08,-2.61 -0.78,0.06 -1.53,1.14 -2.08,0.56 1.22,-0.56 2.25,-1.16 3.07,-1.82 0.06,0.43 0.57,0.43 1.38,0.12 -0.76,0.83 0.85,1.15 1.72,1.28 0.03,-0.92 -1.16,-0.64 -1.31,-1.39 2,-0.32 0.34,-0.48 1.13,-0.8 2.1,-0.67 2.61,0.21 4.43,-0.2 -0.28,0.86 -1.93,1.39 -2.52,2.17 2.39,-0.48 2.32,-1.57 4.32,-2.15 0.12,0.59 -0.58,0.93 0.68,0.8 2.22,-2.13 7.7,-3.09 10.92,-4.18 -0.72,-0.42 -1.14,0.75 -1.73,0.22 0.01,-0.36 0.84,-0.51 1.12,-0.8 0.39,0.5 1.75,0.06 1.65,1.04 2.1,-1.45 4.84,-1.43 7.78,-2.59 0.49,0.24 1.51,1.45 2.36,0.36 -0.52,0.11 -1.01,0.2 -0.97,-0.24 1.69,-0.69 2.92,-1.02 5.771,-1.8 0.729,1.55 4.13,0.49 6.08,0.85 0.83,-0.58 -0.69,-0.42 0.22,-0.81 3.44,-0.01 5.74,-0.47 9.13,-1.09 v -0.17 H 481.56 c -0.46,0.98 -2.8,1.43 -4.22,1.77 z m -18.16,0.92 c -3.07,0.68 -4.72,1.7 -7.37,2.48 3.1,-1.88 4.76,-2.35 8.35,-3.74 -0.04,0.49 -1.9,0.53 -0.98,1.26 z m -9.79,56.08 c 2.02,-0.8 3.96,-1.42 6.67,-1.79 -2.02,1.13 -4.33,1.55 -6.67,1.79 z m 183.92,-39.87 c -0.04,0.43 0.45,0.35 0.96,0.24 -0.66,0.8 -1.74,-0.27 -2.91,0.78 -0.01,-0.28 -0.22,-0.38 -0.55,-0.35 0.8,-0.73 0.91,0.29 2.5,-0.67 z m 38.8,-1.01 c 0.48,-0.51 1.97,-1.24 2.85,-1.02 -0.03,0.57 -2.03,0.65 -2.85,1.02 z m 20.12,-9.65 c 0.26,-0.29 0.3,-0.64 0.15,-1.03 1.23,-0.52 0.98,0.41 2.22,-0.1 0.12,0.6 -1.27,0.83 -2.37,1.13 z m 20.59,-8.03 c 0.17,0.4 -0.37,0.62 -0.15,1.03 -1.09,-0.28 -1.61,0.52 -2.92,0.79 -0.22,-0.91 1.57,-1.33 3.07,-1.82 z m -21.73,18.03 c -0.27,0.51 -1.16,0.86 -2.37,1.14 0.15,-0.59 1.74,-1.3 2.37,-1.14 z m -0.65,2.42 c -0.59,-0.81 1.74,-1.43 1.67,-0.45 -0.56,0.14 -1.11,0.3 -1.67,0.45 z m 8.48,-3.29 c -2.12,0.53 -3.92,0.08 -5.55,1 -0.46,-0.24 -0.59,-0.8 -1.87,-0.24 2.03,-1.69 6.13,-1.52 8.27,-2.48 -0.62,0.49 -0.91,1.07 -0.85,1.72 z m 9.66,-16.27 c -0.25,0.67 0.01,0.53 -0.02,1.49 -2.14,-0.22 -6.29,0.4 -6.73,1.57 -0.75,0.14 -1.06,-0.14 -1.1,-0.7 -1.16,0.53 -0.37,0.47 -0.15,1.04 -1.23,0.22 -1.27,-0.73 -2.42,-0.59 3.31,-1.64 6.47,-1.03 10.42,-2.81 z m -10.35,3.04 c -1.53,1.02 -3.46,0.68 -5.35,1.69 -0.07,-0.23 -0.14,-0.46 -0.2,-0.69 1.88,-1.09 3.15,-0.67 5.55,-1 z m -8.79,-0.87 c -1.5,-0.27 -2.47,0.1 -3.95,0.32 0.66,-0.62 4.41,-1.76 3.95,-0.32 z m -12.07,1.77 c 0.66,0.03 1.66,-0.26 1.51,0.58 -0.8,0.12 -0.59,-0.76 -1.79,-0.27 0.1,-0.09 0.19,-0.2 0.28,-0.31 z m -4.5,1.64 c -0.79,0.23 -1.15,1 -1.62,0.5 0.55,-0.26 1.09,-0.4 1.62,-0.5 z m -50.01,18.02 c -0.47,0.44 -1.46,0.71 -2.09,0.56 -0.31,-0.73 2,-1.65 2.09,-0.56 z m -2.16,-5.88 c 0.6,0 0.92,0.28 1.1,0.7 -0.42,0.32 -1.03,0.6 -2.021,0.79 -0.4,-0.67 0.95,-0.91 0.92,-1.49 z m -4.3,0.66 c 0.24,0.15 0.48,0.31 0.97,0.23 0.12,0.61 -1.54,0.77 -1.4,1.38 -0.49,0.08 -0.3,-0.17 -0.07,-0.23 -0.06,-0.64 -1.67,0.25 -1.52,-0.59 1.03,-0.17 0.78,-0.66 2.02,-0.79 z m -2.44,0.9 c 0.34,0.71 -1.58,1.33 -2.36,1.14 -0.12,-0.6 1.26,-0.83 2.36,-1.14 z m -3.28,2.63 c -0.19,1.05 -1.6,0.6 -2.15,0.33 -0.08,-0.45 1.61,-0.23 2.15,-0.33 z m -0.03,2.99 c -0.07,0.61 -1.33,1.39 -2.37,1.14 0.271,-0.51 1.16,-0.86 2.37,-1.14 z m -6.25,1.69 c 0.78,-0.66 1.8,-0.93 2.85,-1.02 -0.16,1.01 -1.42,0.42 -2.85,1.02 z m -11.89,-2.27 c 0.06,0.8 -3.4,1.58 -3.41,0.67 1.62,-0.03 2.01,-0.58 3.41,-0.67 z m -10.21,2.01 c 1.33,-0.42 1.89,-0.07 3.4,-0.67 0.03,0.77 -2.63,1.6 -3.61,1.47 -0.23,-0.34 0.28,-0.5 0.21,-0.8 z m -39.49,7.91 c -0.23,0.53 -1.65,1.11 -2.44,0.9 -0.63,-0.75 2.08,-1.01 2.44,-0.9 z m -9.31,2.01 c 2.81,-0.23 3.5,-0.41 5.97,-1.11 -0.66,1.05 -4.03,1.44 -6.12,2.14 0.6,-0.67 -0.44,-0.37 0.15,-1.03 z m -52.16,13.81 c -0.66,-0.66 1.19,-0.71 1.94,-1.02 0.53,0.71 -1.22,1.21 -1.94,1.02 z m 223.97,-35.01 c -0.04,0 -0.07,0.01 -0.11,0.02 -0.02,0.01 -0.03,0.02 -0.03,0.03 0.05,-0.02 0.09,-0.04 0.14,-0.05 z m -0.35,0.34 c 0.05,-0.11 0.12,-0.2 0.2,-0.29 -0.18,0.07 -0.3,0.15 -0.2,0.29 z m -256.15,-3.93 v 0.38 c 0.33,-0.11 0.72,-0.21 1.12,-0.3 -0.33,-0.14 -0.71,-0.16 -1.12,-0.08 z m 0,47.33 v 0.4 c 0.18,0 0.36,0 0.56,-0.02 0.05,-0.36 -0.25,-0.38 -0.56,-0.38 z"
     fill="#fcae1d"
     fill-rule="evenodd"
     id="path2131" /><path
     d="m 1009.937,239.75212 v 120.09514 l 42.703,-28.7045 43.82,29.18936 28.72,-44.37788 21.145,37.23114 V 239.75212 Z"
     fill="#fbf8f2"
     id="path2139"
     style="stroke-width:1.10652" /><path
     d="m 422.977,1723.957 c 0,-76.022 -51.417,-140.024 -121.369,-159.157 v -5.803 h -40.467 c -1.053,-0.02 -2.106,-0.04 -3.164,-0.04 -1.058,0 -2.111,0.02 -3.164,0.04 h -0.465 v 0.01 c -89.45,1.931 -161.371,75.041 -161.371,164.954 0,89.913 71.921,163.023 161.371,164.954 v 0.046 h 47.26 v -5.843 c 69.952,-19.133 121.369,-83.135 121.369,-159.157 z"
     fill="#576cc0"
     id="path2147"
     style="fill:#006680" /><circle
     cx="297.97699"
     cy="1723.957"
     fill="#7584d7"
     r="165"
     id="circle2149"
     style="fill:#0088aa" /><path
     d="m 1762.15,1373.05 -16.96,113.87 -16.36,109.83 c -15.33,102.9 -103.68,179.06 -207.71,179.06 H 335.81 c -89.02,0 -170.04,-51.36 -208.02,-131.87 l -88.6,-187.81 c -4.91,-10.42 -9.38,-21.02 -13.37,-31.77 -0.32,-0.82 -0.62,-1.65 -0.91,-2.47 -0.21,-0.55 -0.41,-1.1 -0.61,-1.65 -4.81,-13.34 -8.92,-26.91 -12.3,-40.65 -0.22,-0.84 -0.43,-1.69 -0.62,-2.53 -0.33,-1.34 -0.64,-2.67 -0.95,-4.01 z"
     fill="#91a0e2"
     id="path2151"
     style="fill:#00aad4" /><path
     d="m 886.06,1438.4 c 0.51,0.04 1.03,0.07 1.52,0.12 -0.42,-0.07 -0.93,-0.11 -1.52,-0.12 z m 733.29,53.77 c 0.2,-0.31 0.43,-0.58 0.69,-0.82 -0.52,0.09 -0.9,0.28 -0.69,0.82 z m 0.81,-0.92 c -0.04,0.03 -0.08,0.07 -0.12,0.1 0.15,-0.02 0.31,-0.04 0.47,-0.06 -0.12,-0.02 -0.23,-0.03 -0.35,-0.04 z M 10.43,1373.05 c 0.31,1.34 0.62,2.67 0.95,4.01 1.62,-0.63 4.04,-0.77 6.63,-0.8 -0.39,2.11 -3.51,2.53 -6.01,3.33 3.38,13.74 7.49,27.31 12.3,40.65 3.3,-2.78 10.38,-1.8 12.01,1.19 -1.6,0.09 -1.03,1.52 -2.32,1.78 -2.03,-1.08 -5.46,-1.44 -9.08,-1.32 0.29,0.82 0.59,1.65 0.91,2.47 5.12,0.06 10.13,-0.15 14.17,-1.42 -1.41,-0.07 -3.38,0.29 -3.65,-0.68 3.53,0.06 3.58,-2.05 7.12,-2 0.87,1.79 -3.25,2.81 1.34,2.45 1.56,-0.91 2.23,-2.37 4.66,-2.72 7.96,2.11 20.11,2.93 27.73,0.37 11.27,6.44 33.97,-3.58 36.56,7.49 9.6,-2.34 19.45,-3.12 28.92,0.33 2.27,-0.21 0.68,-2.81 3.46,-2.68 9.88,4.61 24.25,-3.38 36.04,-1.68 -0.57,3.36 -12.08,-0.24 -8.22,3.73 16.93,-4.07 31.27,2.04 44.65,1.25 -0.34,1.95 -5.22,1.05 -4.63,3.57 3.73,-0.38 11.92,0.77 16.82,-0.78 0.45,1.11 1.81,1.51 1.4,3.27 8.8,-2.37 16.66,0.92 26.62,2.11 1.54,-1.98 -3.28,-2.99 -0.2,-3.35 2.4,-0.1 4.8,-0.21 7.21,-0.33 -1.5,1.19 -1.4,3.19 1.4,3.29 10.19,-1.89 22.95,-0.27 32.29,-4.02 -3.43,3.26 3.15,0.62 3.64,0.66 0.19,0.02 -0.1,1.64 0.09,1.67 18.47,3.11 55.04,-6.64 63.71,-2.14 -2.14,-1.85 5.03,-5.59 9.47,-2.95 1,2.23 -2.28,1.78 -2.21,3.45 29,-2.86 60.99,-2.39 94.88,-4.44 -0.94,-0.15 -2.37,0.09 -2.45,-0.72 15.96,0.36 22.82,2.4 36.14,-0.02 12.06,0.84 34.48,-1.17 40.88,-1.07 -1.1,-0.45 -6.96,-1.43 -3.75,-2.34 13.17,4.82 24.28,4.16 42.33,3.04 1.58,3.91 14.56,3.42 14.41,-0.67 -3.91,-0.3 -6.02,0.53 -7.1,2 -1.59,-1.09 -6.35,0.25 -5.01,-3.11 6.14,-0.23 25.25,-2.03 15.77,1.77 18.45,-3.88 24.47,2.02 40.88,-1.07 3.43,7.93 25.58,0.24 24.35,4.72 4.32,-2.27 11.16,-2.18 15.73,0.93 -10.26,2.64 -17.53,1.39 -23.88,3.63 3.97,-0.45 7.39,-0.46 8.51,1.28 5.19,-2.99 10.55,-2.83 15.62,-0.73 -0.41,-3.71 4.83,-0.73 5.99,-0.28 1.33,-2.78 -3.92,-0.46 -2.59,-3.23 7.76,-1.76 17.38,-0.94 25.37,1.32 -2.23,0.22 -3.98,0.75 -4.71,1.9 6.63,-1.54 14.43,2.59 15.52,-2.4 -2.52,-0.38 -7.83,1.4 -8.46,-0.44 8.6,-1.84 14.95,-1.11 20.52,0.71 -1.58,-0.03 -8.7,0.28 -4.76,1.07 5.63,0.55 7.19,-1.43 10.72,-2.18 12.43,5.51 21.09,2.96 33.97,4.26 1.48,-3.09 8.74,-2.59 14.26,-3.17 0.02,1.16 0.67,1.8 1.35,2.45 0.48,2.17 -4.63,0.87 -3.41,3.51 4.89,0 15.71,-1.88 22.97,1.43 2.92,-1.86 17.32,-4.46 19.31,0.77 -8.35,1.14 -15.67,2.43 -20.41,0.96 -1.15,2.87 -24.84,-0.44 -22.63,4.4 -1.11,-1.17 -1.95,-2.56 -4.95,-2.27 -1.66,1.39 -5.32,2.75 -8.12,5.39 0.26,-5.99 -7.03,3.14 -8.54,-2.11 -3.91,-0.55 -2.37,2.28 -4.68,2.73 -3.27,-0.66 -4.82,-2.66 -8.59,-2.95 -26.97,7.65 -58.32,1.6 -85.23,4.83 6.1,0.53 13.71,-0.13 17.01,2.55 -2.1,0.32 -6.13,-2.07 -7.21,0.33 2.15,0.67 6.01,0.01 7.3,1.34 -6.4,1.72 -10.97,-2.51 -13.3,-1.05 6.94,0.1 -0.14,3.15 0.19,3.34 2.43,1.3 5.95,-1.13 9.76,2.05 0.18,-1.59 -1.46,-1.78 -1.4,-3.28 2.47,0.13 2.48,2.15 4.96,2.28 16.24,-9.28 42.71,-2.62 62.16,-7.93 1.27,4.25 5.38,1.8 4.8,-0.23 5.5,1.02 6.43,2.75 8.7,4.62 4.67,-5.84 19.63,-0.36 26.23,-4.57 7.65,4.7 24.15,-1.85 32.43,-1.52 -0.95,-0.14 -1.43,-0.63 -1.29,-1.62 4.229,-0.55 6.76,-1.6 9.65,0.39 -2.72,2.17 -2.31,-1.14 -6.05,-0.55 8.96,5.55 22.51,0.26 35.02,1.71 1.8,-1.3 4.58,-1.98 7.06,-2.85 2.36,2.24 9.02,1.18 14.52,1 0.77,-2.46 2.72,-4.19 8.21,-3.73 -6.49,-5.48 -17.72,-3.45 -25.43,-2.16 4.03,-3.36 -2.66,-3.64 2.07,-5.95 3.39,4.11 19.67,0.92 26.25,1.08 -1.88,-0.15 -3.62,-0.41 -3.43,-2.15 3.62,-0.2 10.16,-2.73 13.21,-0.62 -6.06,-0.31 -4.51,3.17 -8.41,0.39 2.43,2.49 5.43,4.52 9.94,5.4 0.75,-2.62 -4.18,-0.83 -2.64,-4.06 1.22,-0.05 1.4,-0.75 2.36,-0.95 1.76,2.229 13.17,0.3 9.84,3.72 8.67,-1.77 21.72,-1.68 25.48,3 14.49,-2.63 25.85,-5.57 40.69,-4.42 0.28,1.24 -0.25,3.1 1.4,3.28 0.84,-1.89 4.07,-2.28 5.81,-3.61 0.52,2.89 3.24,-0.23 3.7,1.5 -1.68,0.29 -1.271,1.89 -2.25,2.61 2.76,-0.4 4.62,-0.08 6.04,0.56 0.76,-2.62 -4.19,-0.83 -2.64,-4.06 2.99,-0.02 3.64,-1.49 5.91,-1.95 4.81,2.87 11.81,-2.91 20.47,-0.12 -0.32,1.14 -1.63,1.66 -1.01,3.39 4.39,-0.48 4.03,-3.92 8.16,-4.57 -0.22,1.21 -1.89,1.51 -2.26,2.61 5.66,-6.32 20.24,-0.28 24.07,-0.28 -1.32,-0.15 -2.96,-1.24 -1.3,-1.61 19.5,0.7 36.03,-1.88 54.06,-2.53 0.18,0.93 -1.67,1.38 0.09,1.66 8.12,-1.08 49.25,-12.36 42.05,-1.96 0.93,0.15 2.36,-0.08 2.44,0.72 -1.4,0.2 -3.41,0.02 -3.54,1 3.78,1.14 10.52,-1.71 15.51,-2.39 1.26,1.06 2.12,2.42 3.79,3.17 8.59,-6.27 15.12,2.57 24.07,-0.28 0.49,2.17 -4.62,0.86 -3.4,3.49 11.96,-7.41 33.08,-2.51 50.25,-5.69 0.51,2.2 -6.78,-0.47 -4.66,2.73 12.37,-2.9 35.96,-1.09 51.55,-4.09 -3.52,2.71 4.5,0.95 5,3.11 -10.25,6.08 -21.8,1.53 -35.75,6.7 0.73,1.18 -1.14,4.38 1.46,4.11 3.44,-7.93 18.61,-3.96 28.48,-7.18 0.59,1.29 3.82,0.53 2.6,3.22 9.06,-5.26 27.56,-4.92 41.99,-2.8 3.35,-3.82 11.79,0.01 17.91,-2.51 -2.53,1.36 -1.64,4.88 -5.71,5.3 -1.53,-2.13 3.5,-3.78 -1.39,-3.29 -1.23,6.2 -17.04,2.8 -20.18,5.12 3.1,0.06 -1.57,1.51 0.19,3.34 5.03,-2.54 9.81,-0.28 14.26,-3.17 2.69,2.3 12.02,4.26 7.92,0.3 4.61,3.6 13.33,-0.1 17.61,3.52 -13.11,-0.06 -17.69,3.97 -27.44,4.62 5.83,2.63 8.97,0.89 14.51,1 0.12,1.15 -0.46,1.86 -1.05,2.56 17.42,-0.35 28.97,-1.74 42.33,3.05 0.13,-0.99 -0.35,-2.36 1.06,-2.55 7.89,3.08 22.16,0.95 30.13,0.25 -1.48,-0.03 -2.87,-0.12 -2.51,-1.55 5.26,-0.29 11.48,-1.31 12.16,1.94 2.75,-0.44 0.93,-3.71 4.61,-3.56 3.82,1.69 5.65,4.92 9.99,6.23 -3.96,-3.09 16,-5.72 10.86,0.32 7.53,0.2 11.48,-2.47 16.97,1.72 2.12,-1.63 3.86,-3.5 6.95,-4.51 -1.25,-7.96 1.23,-9.02 0.33,-15.08 -6.3,2.08 -10.92,3.29 -13.36,-1.88 -1.2,2.29 -10.86,2.61 -13.21,0.61 -7.89,5.64 -19.54,-0.96 -32.47,0.69 0.45,-4.07 -4.07,-0.8 -6.25,-3.9 4.31,-0.52 7.98,-1.45 11.91,-2.23 -1.58,2.67 0.38,3.23 2.69,4.89 1.53,-2.53 7.69,-2.19 9.61,-0.44 1.23,-3.56 -5.14,-1.25 -6.19,-3.06 4.57,-1.43 10.15,-2.24 14.21,-4.01 2.58,4.54 11.44,3.86 16.96,1.72 2.49,1.83 2.5,2.12 0.24,4.17 10.9,-4.16 24.62,-3.64 32.48,-0.69 2.85,-6.24 12.97,1.32 16.81,-0.78 -1.74,-0.38 -3,-1.16 -3.74,-2.34 3.71,0.43 3.44,-1.59 7.15,-1.16 -0.09,3.26 4.65,2.8 7.45,3.82 1.061,-1.6 -3.75,-2.61 -0.2,-3.33 10.2,0.44 14.07,0.93 21.58,-1.85 1.2,2.69 0.33,5.1 7.5,4.68 -0.18,-1.45 0.11,-2.62 1.01,-3.39 -0.07,-0.02 -0.14,-0.04 -0.21,-0.06 3.93,0.45 7.43,1.63 11.01,-1.18 1.55,3.7 -4.48,4.03 -8.18,4.46 7.81,0 12.97,8.79 15.79,2.61 12.01,1.46 20.23,4.52 32.9,6.82 -0.21,1.21 -1.88,1.51 -2.24,2.62 6.42,1.44 9.89,-4.73 10.86,0.33 -5.86,0.37 -12.93,-0.01 -15.52,2.4 2.24,0.01 4.04,0.36 4.9,1.44 -5.4,-1.71 -0.93,3.28 -10.71,2.18 1.15,3.13 -3.37,2.72 -3.32,5.18 2.95,1.2 8.06,0.75 9.81,2.89 -9.2,2.86 -14.98,2.53 -20.52,-0.72 1.72,-0.54 6.26,0.68 5.96,-1.12 -6.61,0.77 4.05,-3.15 -2.55,-2.39 -3.38,3.59 -7.64,3.9 -11.72,5.57 2.24,-3.48 -5.33,2.5 -7.35,-2.17 -2.02,0.9 -2.26,2.89 -4.61,3.56 -9.62,-4.87 -27.82,-3.35 -37.58,-4.09 1.84,0.9 5.42,0.46 5,3.11 -1.2,0.06 -1.39,0.74 -2.35,0.95 -3.91,-3.57 -11.72,0.979 -13.46,-3.56 -6.17,0.36 -5.89,1.13 -9.65,-0.38 -0.98,1.89 0.86,3.87 -5.81,3.61 0.25,-1.71 3.15,-1.78 3.41,-3.5 -9.49,0.11 -26.46,4.02 -32.54,-0.16 -14.9,13.58 -40.47,-3.26 -52.6,6.65 -0.07,-1.1 -2.14,-0.67 -2.49,-1.56 3.15,0.35 4.3,-0.54 3.46,-2.67 -6.08,0.54 -5.9,0.18 -14.52,-1 2.05,4.52 11.34,3.46 14.86,6.84 -2.49,1.67 -8.77,0.98 -13.17,1.45 1.69,2.36 12.49,1.94 15.76,1.77 0.15,0 0.49,-2.72 2.26,-2.61 1.67,0.11 3.22,2.2 4.95,2.29 8.07,0.42 19.56,-4.31 24.11,0.54 -4.27,-0.26 -6.15,0.99 -7.05,2.83 19.98,-2.79 32.47,-0.88 55.24,-2.58 0.06,0.84 -0.9,1.05 -1.1,1.73 7.71,-2.25 16.49,0.5 25.08,-3.69 -0.22,1.21 -1.9,1.51 -2.26,2.62 4.99,-0.9 8.98,-2.44 13.02,-3.95 -2.42,2.12 4.17,2.58 5.09,4.78 -0.32,-1.81 0.83,-2.69 3.47,-2.67 2.72,1.08 -1.41,2.11 1.34,2.45 6.12,-1.28 13.11,-2.02 17.82,-4.19 0.16,1.53 -5.99,3.12 -2.16,4.29 7.3,-4.67 27.83,0.43 34.98,0.87 -3.61,-0.85 3.59,-2.83 4.75,-1.06 1.48,-2.16 -4.9,-2.38 -1.38,-3.28 1.8,3.21 9.58,0.46 10.95,2 2.04,2.88 -4.05,0.69 -3.46,2.68 4.98,1.66 10.69,2.78 17.05,3.39 -11.06,4.15 -33.61,-1.38 -49.04,5.63 1.13,1.91 5.22,-0.94 7.15,-1.17 1.12,5.46 4.2,0.26 7.36,2.17 -2.64,6.89 -12.92,0.14 -17.93,2.51 1.47,0.02 2.86,0.11 2.51,1.55 -1.21,0.06 -1.39,0.75 -2.36,0.95 -7.54,-0.19 -21,-2.62 -21.57,1.84 -5.89,-0.12 -10.8,-5.57 -15.85,-3.43 6.31,1.22 12.18,2.79 14.85,6.83 -0.04,1.17 -8.61,0.92 -4.71,1.89 8.58,-3.1 11.88,-2.8 20.27,-3.45 -0.96,-1.3 -5.87,0.46 -4.95,-2.28 3.65,0.09 9.29,-1.36 9.71,1.22 -3.41,1.5 2.06,4.29 2.54,2.38 -3.3,-0.59 0.83,-3.11 2.21,-3.44 0.3,1.22 2.95,0.63 4.86,0.61 0,1.46 0.42,2.58 1.39,3.27 3.73,-0.08 5.69,-1.29 8.31,-2.05 15.52,3.87 36.42,-5.95 51.21,-4.12 2.94,-2.42 9.09,-0.59 8.61,-2.86 1.4,0.73 8.04,1.81 8.45,0.44 -0.81,-1.42 -5.69,0.33 -6.1,-1.39 0.19,-0.95 1.25,-1.36 2.3,-1.78 3.27,2.12 3.75,0.96 7.21,-0.34 1.22,0.8 2.47,1.58 3.74,2.33 7.42,-1.59 10.69,-1.46 17.92,-2.5 0.12,1.14 -0.45,1.86 -1.04,2.55 3.14,-0.99 6.06,-1.15 8.45,0.45 -3.44,1.06 -5.95,2.73 -8.16,4.56 5.19,-1.59 13.72,-1.11 15.36,-4.9 -2.17,-0.39 -4.84,2.67 -6,0.28 3.65,-0.95 6.81,-2.19 9.42,-3.78 -0.08,1.5 1.3,1.89 3.68,1.49 -2.53,2.23 1.66,4.53 3.96,5.67 0.62,-3.08 -2.79,-3.07 -2.75,-5.72 5.62,0.45 1.18,-1.37 3.52,-1.84 6.11,-0.66 6.99,2.72 12.2,2.77 -1.26,2.71 -6.06,3.21 -8.12,5.4 6.79,0.21 7.22,-3.54 13.02,-3.95 -0.02,2.1 -2.14,2.72 1.39,3.28 7.29,-5.5 22.78,-4.51 32.19,-5.69 -1.72,-1.97 -3.54,1.67 -4.85,-0.61 0.24,-1.19 2.58,-1.07 3.51,-1.84 0.77,2.01 4.74,1.56 3.89,4.84 1.05,-0.53 2.13,-0.91 3.23,-1.19 l 16.96,-113.87 z m 210.46,53.97 c -1.9,-0.13 -6.75,-0.63 -8.41,0.4 -4.71,-1.11 9.57,-3.99 8.41,-0.4 z m 36.18,0.82 c -6.21,-0.38 -9.07,1.33 -13.11,2.29 -1.15,-1.67 6.01,-1.94 2.25,-2.61 0.84,-1.15 11.62,-2.65 10.86,0.32 z m 391.43,0.11 c 3.68,-3.73 8.5,-1.77 15.46,-3.23 -2.98,2.16 -10.39,4.95 -15.46,3.23 z m 156.92,6.05 c -3.64,0.78 -4.43,-0.64 -7.26,-0.5 0.86,-1.92 7.89,-3.13 7.26,0.5 z m -16,14.97 c 2.52,-2.44 8.58,-0.27 12.02,-0.56 -2.06,2.1 -9.38,0.91 -12.02,0.56 z m 46.5,-8.03 c 2.77,0.28 6.24,1.37 8.42,-0.39 3,0.81 -8.97,5.57 -8.42,0.39 z m 17.32,7.56 c -2.92,0.66 -7.939,-0.11 -12.07,-0.27 -0.34,-3.43 9.39,-0.59 10.67,-3.01 4.23,0.03 -1.95,3.8 1.4,3.28 z m 45.05,-12.15 c 5.95,-1.13 11.61,-1.74 19.21,-0.9 -6.14,2.27 -12.7,1.91 -19.21,0.9 z m 91.48,-0.93 c -1.4,-2.75 3.66,-1.47 5.9,-1.95 1.02,2.85 -4.03,3.19 -5.9,1.95 z m 149.17,-2.79 c 2.01,-1.8 -0.98,-1.59 1.01,-3.39 7.78,1.41 9.77,1.35 16.91,0.88 -2.39,3.06 -11.81,1.75 -17.92,2.51 z m 20.38,-1.79 c -1.29,-3.02 6.24,-1.81 7.15,-1.17 -0.92,1.65 -5.14,2.5 -7.15,1.17 z m 118.33,5.34 c -0.41,-1.33 1.07,-1.48 1.06,-2.55 3.86,-0.37 5.17,1.23 9.65,0.37 -0.38,2.66 -8.1,3.41 -10.71,2.18 z m 20.37,-1.79 c 4.42,1.15 5.82,-0.41 9.66,0.39 -0.28,2.77 -10.16,2.7 -9.66,-0.39 z m 124.64,10.09 c -0.35,1.42 1.03,1.52 2.5,1.55 -2.28,2.19 -4.58,-2.27 -8.39,0.39 0.13,-0.98 -0.37,-1.48 -1.31,-1.61 2.6,-1.86 2.34,1.67 7.2,-0.33 z m -83.88,7.26 c 2.51,-1.62 5.44,-1.73 8.36,-1.23 -1.02,3.3 -4.12,0.32 -8.36,1.23 z m 10.91,1.16 c 1.02,-1.5 3.65,-2.02 7.11,-2.01 -0.54,2.01 -4.44,3.69 -7.11,2.01 z m 2.87,-12.69 c 0.03,-1.59 4.52,0.46 6.05,0.56 -1.13,3.4 -4.71,0.77 -6.05,-0.56 z m 9.42,-3.78 c 0.01,-2.14 3.93,-1.84 7.11,-2.01 0.49,2.66 -5.09,3.28 -7.11,2.01 z m 12.15,1.94 c -1.37,-0.1 -0.71,-0.8 -0.04,-0.84 0.22,-2.21 -4.7,-0.44 -3.8,-3.16 2.9,0.2 2.51,-1.66 5.96,-1.12 0.57,0.71 1.13,1.43 2.5,1.55 0,2.16 -4.62,1.42 -4.62,3.57 z m 10.69,17.91 c -0.45,-2.73 6.39,-4.06 6,-0.28 -1.52,1.14 -4.37,1.27 -6,0.28 z m 0.18,-17.58 c -0.72,-2.6 3.09,-2.36 3.35,-4.35 1.65,0.48 2.34,1.69 2.6,3.23 -1.34,0.76 -3.15,1.25 -5.95,1.12 z m 147.87,-4.41 c 1.67,-0.47 3.24,-0.53 4.75,-0.42 -2.3,0.13 -3.76,2.48 -4.75,0.42 z m 21.72,0.66 c -2.28,-0.23 -1.19,-3.07 -4.73,-2.32 0.31,-0.25 0.62,-0.53 0.93,-0.85 1.79,0.65 4.69,0.44 3.8,3.17 z m 30.13,0.26 c -3.93,-2.08 -6.79,-1.6 -10.96,-1.99 2.15,-1.61 13.04,-2.56 10.96,1.99 z m -55.71,36.08 c 1.6,-1.35 6.07,-2.66 8.36,-1.23 -0.41,1.9 -5.9,0.62 -8.36,1.23 z m 60.44,-17.05 c 0.88,-0.79 1.17,-1.94 0.99,-3.39 3.67,-0.8 2.45,2.18 6.11,1.39 -0.01,2.13 -3.93,1.84 -7.1,2 z m -16.04,35.06 c 0.75,-1.89 5.49,-3.04 7.12,-2 -1.02,1.51 -3.66,2.01 -7.12,2 z m 8.75,5.45 c -1.59,0.07 -3.2,0.15 -4.8,0.23 -1.13,-3.18 5.56,-3.49 4.8,-0.23 z m 20.22,-4.3 c -6.08,0.13 -10.73,-2.78 -15.7,-0.94 -1.12,-1.16 -1.15,-3.18 -4.96,-2.27 6.51,-4.16 17.59,-0.39 23.98,-1.96 -1.99,1.17 -3.1,2.9 -3.32,5.17 z m -9.78,-43.88 c -0.05,-0.84 -0.09,-1.68 -0.14,-2.51 5.75,-2.22 8.97,0.2 15.7,0.94 -4.76,2.29 -9.82,-0.37 -15.56,1.57 z m 44.64,1.25 c -5.729,-2.43 -17.38,-3.57 -19.26,0.07 -2.14,-0.11 -2.82,-1.31 -2.61,-3.229 -3.45,0.89 -1.27,1.31 -1,3.39 -3.49,-0.21 -3.04,-3.46 -6.25,-3.88 9.96,-2.98 18.23,1.55 30.03,-1.41 -1.08,2.09 -0.3,1.8 -0.91,5.06 z m 11.96,-1.39 c -2.79,-1.81 -4.67,0.5 -8.41,0.39 -0.07,-3.26 5.04,-3.29 9.41,-3.79 0.24,1.49 -1.36,1.84 -1,3.4 z"
     fill="#7584d7"
     fill-rule="evenodd"
     id="path2153"
     style="opacity:0.5;fill:#0088aa" /><path
     d="m 1762.15,889.27 v 483.78 H 10.43 C 3.52,1343.02 0,1312.21 0,1281.2 V 889.27 C 0,820.53 30.16,758.83 77.97,716.69 118.5,680.95 171.72,659.27 230,659.27 h 1302.15 c 73.02,0 138.08,34.02 180.22,87.08 31.17,39.25 49.78,88.91 49.78,142.92 z"
     fill="#b2bceb"
     id="path2155"
     style="fill:#00c0f0;fill-opacity:1" /><path
     d="m 1713.37,752.08 c -1.37,-2.31 -1.41,-4.19 -1,-5.73 -42.14,-53.06 -107.2,-87.08 -180.22,-87.08 H 230 c -58.28,0 -111.5,21.68 -152.03,57.42 22.4,-1.11 46.25,-1.26 71.12,-2.76 -0.94,-0.15 -2.38,0.09 -2.45,-0.72 15.95,0.36 22.81,2.4 36.13,-0.02 12.06,0.84 34.48,-1.17 40.88,-1.07 -1.1,-0.45 -6.95,-1.43 -3.75,-2.34 13.17,4.82 24.28,4.16 42.33,3.04 1.59,3.91 14.56,3.42 14.42,-0.67 -3.92,-0.3 -6.03,0.53 -7.11,2 -1.59,-1.09 -6.35,0.25 -5.01,-3.11 6.14,-0.23 25.25,-2.03 15.77,1.77 18.45,-3.88 24.47,2.02 40.89,-1.07 3.42,7.93 25.57,0.24 24.35,4.72 4.32,-2.27 11.16,-2.17 15.72,0.93 -10.26,2.64 -17.52,1.39 -23.88,3.63 3.97,-0.45 7.39,-0.46 8.51,1.28 5.19,-2.99 10.55,-2.83 15.62,-0.73 -0.41,-3.71 4.83,-0.73 5.99,-0.28 1.33,-2.78 -3.92,-0.46 -2.59,-3.23 7.77,-1.76 17.39,-0.94 25.37,1.32 -2.22,0.22 -3.98,0.75 -4.71,1.9 6.63,-1.54 14.43,2.59 15.52,-2.4 -2.52,-0.38 -7.83,1.4 -8.45,-0.44 8.6,-1.84 14.95,-1.11 20.52,0.71 -1.59,-0.03 -8.71,0.28 -4.76,1.07 5.63,0.55 7.18,-1.43 10.71,-2.18 12.44,5.51 21.09,2.96 33.97,4.27 1.48,-3.1 8.74,-2.6 14.26,-3.18 0.03,1.16 0.68,1.8 1.36,2.45 0.48,2.17 -4.63,0.87 -3.42,3.51 4.89,0 15.71,-1.88 22.97,1.43 2.92,-1.86 17.32,-4.46 19.31,0.77 -8.35,1.14 -15.67,2.43 -20.41,0.96 -1.15,2.87 -24.84,-0.44 -22.63,4.4 -1.11,-1.17 -1.95,-2.56 -4.95,-2.27 -1.66,1.39 -5.31,2.75 -8.12,5.39 0.26,-5.99 -7.03,3.14 -8.54,-2.11 -3.91,-0.55 -2.37,2.28 -4.67,2.73 -3.28,-0.66 -4.83,-2.66 -8.6,-2.95 -26.97,7.65 -58.31,1.6 -85.23,4.83 6.1,0.53 13.71,-0.13 17.01,2.55 -2.09,0.32 -6.13,-2.07 -7.2,0.33 2.14,0.67 6,0.01 7.29,1.34 -6.4,1.72 -10.97,-2.51 -13.3,-1.05 6.94,0.1 -0.14,3.16 0.19,3.34 2.43,1.31 5.95,-1.13 9.76,2.05 0.18,-1.59 -1.45,-1.78 -1.4,-3.28 2.47,0.13 2.49,2.15 4.96,2.28 16.24,-9.28 42.72,-2.61 62.17,-7.93 1.27,4.25 5.37,1.8 4.8,-0.23 5.49,1.02 6.42,2.75 8.69,4.62 4.68,-5.84 19.63,-0.36 26.24,-4.57 7.64,4.7 24.15,-1.84 32.42,-1.52 -0.94,-0.14 -1.43,-0.63 -1.29,-1.62 4.23,-0.55 6.76,-1.6 9.65,0.39 -2.71,2.17 -2.3,-1.13 -6.05,-0.55 8.96,5.55 22.51,0.26 35.03,1.71 1.79,-1.3 4.57,-1.98 7.05,-2.85 2.36,2.24 9.02,1.18 14.52,1 0.77,-2.45 2.72,-4.19 8.21,-3.73 -6.48,-5.48 -17.72,-3.45 -25.42,-2.16 4.02,-3.36 -2.67,-3.64 2.06,-5.95 3.39,4.11 19.67,0.92 26.25,1.08 -1.88,-0.15 -3.62,-0.41 -3.43,-2.15 3.62,-0.2 10.16,-2.73 13.21,-0.62 -6.05,-0.31 -4.51,3.17 -8.41,0.39 2.43,2.49 5.43,4.53 9.95,5.4 0.74,-2.62 -4.19,-0.83 -2.65,-4.06 1.22,-0.05 1.4,-0.75 2.36,-0.95 1.77,2.23 13.17,0.3 9.85,3.72 8.66,-1.77 21.71,-1.68 25.47,3 14.5,-2.63 25.86,-5.57 40.69,-4.42 0.28,1.24 -0.25,3.1 1.4,3.28 0.85,-1.89 4.07,-2.28 5.811,-3.61 0.52,2.89 3.24,-0.23 3.7,1.5 -1.68,0.29 -1.27,1.89 -2.25,2.61 2.77,-0.4 4.62,-0.08 6.04,0.56 0.76,-2.62 -4.19,-0.83 -2.64,-4.06 2.99,-0.02 3.65,-1.49 5.91,-1.95 4.81,2.87 11.81,-2.91 20.47,-0.12 -0.32,1.14 -1.62,1.66 -1.01,3.39 4.4,-0.48 4.03,-3.92 8.17,-4.57 -0.22,1.21 -1.9,1.51 -2.27,2.61 5.66,-6.32 20.24,-0.28 24.07,-0.28 -1.32,-0.15 -2.95,-1.23 -1.29,-1.61 19.49,0.7 36.02,-1.88 54.06,-2.53 0.17,0.93 -1.68,1.38 0.09,1.66 8.11,-1.08 49.25,-12.36 42.04,-1.96 0.94,0.15 2.36,-0.08 2.45,0.72 -1.41,0.2 -3.42,0.02 -3.55,1 3.78,1.14 10.52,-1.71 15.51,-2.39 1.26,1.06 2.12,2.42 3.8,3.17 8.58,-6.27 15.11,2.57 24.06,-0.28 0.49,2.17 -4.61,0.86 -3.39,3.49 11.95,-7.41 33.07,-2.51 50.24,-5.69 0.51,2.2 -6.771,-0.47 -4.66,2.73 12.37,-2.9 35.97,-1.09 51.55,-4.09 -3.52,2.71 4.5,0.95 5,3.12 -10.25,6.07 -21.8,1.52 -35.74,6.69 0.73,1.18 -1.15,4.38 1.45,4.11 3.44,-7.93 18.62,-3.96 28.48,-7.18 0.59,1.29 3.82,0.53 2.6,3.22 9.07,-5.25 27.57,-4.92 41.99,-2.8 3.36,-3.82 11.79,0.01 17.92,-2.51 -2.54,1.36 -1.64,4.88 -5.72,5.3 -1.52,-2.13 3.5,-3.78 -1.39,-3.29 -1.229,6.2 -17.04,2.8 -20.17,5.12 3.09,0.06 -1.57,1.51 0.18,3.34 5.04,-2.54 9.82,-0.28 14.27,-3.17 2.68,2.3 12.01,4.26 7.91,0.3 4.61,3.6 13.33,-0.1 17.61,3.52 -13.11,-0.06 -17.68,3.97 -27.43,4.62 5.82,2.63 8.96,0.89 14.51,1 0.11,1.15 -0.47,1.86 -1.06,2.56 17.42,-0.35 28.97,-1.74 42.34,3.05 0.12,-0.99 -0.36,-2.36 1.05,-2.55 7.89,3.08 22.16,0.95 30.13,0.25 -1.48,-0.03 -2.86,-0.12 -2.51,-1.55 5.26,-0.29 11.48,-1.31 12.16,1.94 2.75,-0.44 0.93,-3.71 4.61,-3.56 3.82,1.69 5.65,4.92 10,6.23 -3.97,-3.08 15.99,-5.72 10.86,0.32 7.52,0.2 11.47,-2.46 16.96,1.72 2.13,-1.63 3.86,-3.5 6.96,-4.51 -1.26,-7.96 1.22,-9.02 0.33,-15.08 -6.3,2.08 -10.93,3.29 -13.36,-1.88 -1.21,2.29 -10.86,2.61 -13.22,0.61 -7.89,5.65 -19.54,-0.96 -32.47,0.69 0.45,-4.07 -4.07,-0.8 -6.25,-3.9 4.32,-0.52 7.98,-1.45 11.91,-2.23 -1.58,2.67 0.38,3.23 2.7,4.89 1.52,-2.53 7.68,-2.19 9.6,-0.44 1.23,-3.56 -5.14,-1.25 -6.19,-3.06 4.57,-1.43 10.16,-2.24 14.21,-4.01 2.58,4.54 11.44,3.86 16.96,1.72 2.49,1.83 2.5,2.12 0.25,4.17 10.89,-4.16 24.61,-3.64 32.47,-0.68 2.85,-6.25 12.97,1.31 16.82,-0.79 -1.75,-0.38 -3,-1.16 -3.75,-2.34 3.72,0.43 3.45,-1.59 7.15,-1.16 -0.08,3.26 4.65,2.81 7.46,3.82 1.061,-1.6 -3.76,-2.61 -0.21,-3.33 10.2,0.44 14.07,0.93 21.58,-1.85 1.21,2.69 0.33,5.1 7.51,4.68 -0.18,-1.45 0.11,-2.62 1,-3.39 -0.07,-0.02 -0.14,-0.04 -0.21,-0.06 3.93,0.45 7.44,1.63 11.01,-1.18 1.56,3.7 -4.48,4.03 -8.18,4.46 7.82,0 12.97,8.79 15.79,2.61 12.01,1.46 20.23,4.52 32.9,6.82 -0.21,1.21 -1.88,1.51 -2.24,2.62 6.42,1.44 9.89,-4.73 10.86,0.33 -5.86,0.37 -12.93,-0.01 -15.521,2.4 2.24,0.01 4.04,0.36 4.91,1.44 -5.41,-1.71 -0.93,3.28 -10.72,2.18 1.15,3.13 -3.36,2.72 -3.31,5.18 2.95,1.2 8.05,0.75 9.8,2.89 -9.2,2.86 -14.98,2.53 -20.52,-0.72 1.72,-0.54 6.26,0.68 5.96,-1.12 -6.61,0.77 4.05,-3.15 -2.55,-2.39 -3.38,3.59 -7.63,3.9 -11.72,5.57 2.24,-3.48 -5.33,2.5 -7.35,-2.17 -2.02,0.9 -2.26,2.89 -4.61,3.56 -9.62,-4.87 -27.81,-3.35 -37.58,-4.09 1.84,0.9 5.42,0.46 5,3.11 -1.2,0.06 -1.39,0.74 -2.35,0.95 -3.91,-3.57 -11.72,0.98 -13.46,-3.56 -6.17,0.36 -5.89,1.13 -9.65,-0.38 -0.97,1.89 0.86,3.87 -5.81,3.61 0.25,-1.71 3.15,-1.78 3.41,-3.5 -9.48,0.11 -26.46,4.02 -32.53,-0.15 -14.91,13.57 -40.48,-3.27 -52.6,6.64 -0.08,-1.1 -2.15,-0.67 -2.5,-1.56 3.15,0.35 4.3,-0.54 3.46,-2.67 -6.08,0.54 -5.9,0.18 -14.52,-1 2.05,4.52 11.34,3.46 14.86,6.84 -2.49,1.67 -8.77,0.98 -13.17,1.45 1.69,2.36 12.49,1.94 15.76,1.77 0.16,0 0.49,-2.72 2.26,-2.61 1.68,0.11 3.22,2.2 4.96,2.29 8.06,0.42 19.55,-4.31 24.1,0.54 -4.27,-0.26 -6.14,0.99 -7.05,2.83 19.979,-2.79 32.479,-0.88 55.24,-2.58 0.06,0.84 -0.9,1.05 -1.09,1.73 7.71,-2.24 16.49,0.5 25.07,-3.69 -0.22,1.21 -1.9,1.51 -2.26,2.62 4.99,-0.9 8.98,-2.44 13.02,-3.95 -2.42,2.12 4.17,2.58 5.09,4.78 -0.32,-1.81 0.83,-2.69 3.47,-2.67 2.72,1.08 -1.41,2.11 1.34,2.45 6.12,-1.28 13.12,-2.02 17.83,-4.19 0.15,1.53 -6,3.12 -2.17,4.29 7.3,-4.67 27.83,0.43 34.979,0.88 -3.61,-0.85 3.59,-2.84 4.75,-1.07 1.48,-2.16 -4.89,-2.38 -1.38,-3.28 1.8,3.21 9.58,0.46 10.95,2 2.04,2.88 -4.05,0.69 -3.46,2.68 4.99,1.67 10.7,2.78 17.05,3.39 -11.06,4.15 -33.6,-1.38 -49.04,5.63 1.13,1.92 5.23,-0.94 7.16,-1.17 1.11,5.46 4.19,0.26 7.35,2.17 -2.64,6.89 -12.92,0.14 -17.93,2.51 1.47,0.02 2.87,0.11 2.51,1.56 -1.21,0.05 -1.39,0.74 -2.36,0.94 -7.53,-0.19 -21,-2.62 -21.56,1.85 -5.9,-0.13 -10.81,-5.58 -15.86,-3.44 6.31,1.22 12.18,2.79 14.85,6.83 -0.03,1.17 -8.61,0.92 -4.71,1.89 8.59,-3.1 11.88,-2.8 20.28,-3.45 -0.97,-1.3 -5.87,0.46 -4.95,-2.28 3.64,0.09 9.28,-1.36 9.71,1.22 -3.42,1.5 2.05,4.29 2.53,2.38 -3.29,-0.59 0.84,-3.11 2.22,-3.44 0.29,1.22 2.95,0.63 4.85,0.61 0,1.46 0.42,2.58 1.4,3.27 3.72,-0.08 5.68,-1.29 8.3,-2.05 15.53,3.87 36.43,-5.95 51.22,-4.12 2.93,-2.42 9.08,-0.59 8.6,-2.86 1.41,0.73 8.04,1.81 8.45,0.44 -0.81,-1.42 -5.69,0.33 -6.1,-1.39 0.19,-0.95 1.26,-1.36 2.3,-1.78 3.28,2.12 3.75,0.96 7.21,-0.34 1.23,0.8 2.47,1.58 3.74,2.33 7.42,-1.59 10.69,-1.46 17.93,-2.5 0.12,1.14 -0.45,1.86 -1.05,2.55 3.14,-0.99 6.061,-1.15 8.45,0.45 -3.44,1.07 -5.94,2.73 -8.16,4.56 5.19,-1.59 13.72,-1.11 15.36,-4.9 -2.16,-0.39 -4.84,2.67 -6,0.28 3.65,-0.95 6.81,-2.19 9.42,-3.78 -0.07,1.5 1.31,1.89 3.68,1.49 -2.52,2.23 1.66,4.53 3.96,5.67 0.62,-3.08 -2.79,-3.07 -2.75,-5.72 5.62,0.45 1.19,-1.37 3.52,-1.84 6.12,-0.66 7,2.72 12.2,2.78 -1.26,2.7 -6.06,3.2 -8.12,5.39 6.8,0.21 7.22,-3.54 13.02,-3.95 -0.02,2.1 -2.13,2.72 1.39,3.28 7.29,-5.5 22.78,-4.51 32.19,-5.69 -1.72,-1.97 -3.54,1.67 -4.85,-0.6 0.24,-1.2 2.58,-1.08 3.51,-1.85 0.78,2.01 4.75,1.57 3.89,4.84 6.58,-3.29 14.05,-1.09 22.72,-2.73 1.19,1.18 3.28,6.1 6.21,3.06 -1.48,-0.03 -2.86,-0.12 -2.5,-1.57 5.01,-1.03 8.56,-1.2 16.76,-1.61 1.12,5.81 10.97,4.89 16.11,7.61 2.59,-1.32 -1.64,-1.96 1.05,-2.56 12.54,3.52 20.01,2.77 36.37,4.16 -7.78,1.71 7.59,0.78 2.6,3.23 4.7,-1.85 12.91,-3.45 16.83,-2.79 -0.82,-0.94 -0.61,-3.46 0.9,-3.07 2.52,1.38 0.51,3.07 4.89,1.45 -0.54,3.04 0.71,4.69 3.9,4.84 1.63,-0.59 -0.01,-3.22 2.21,-3.45 3.79,1.17 4.71,0.5 7.3,1.34 -1.7,0.53 -2.86,1.43 -3.46,2.66 3.96,-0.76 2.04,1.63 1.34,2.45 3.76,0.59 7.44,1.24 9.81,2.88 -0.26,-4.08 -3.4,-6.02 -0.54,-9.17 -3.81,-0.25 -3.54,-3.66 -5.13,-5.62 17.7,-1.27 41.38,0.89 56.97,6.54 -2.17,2.79 -2,5.26 1.65,7.46 6.29,-16.12 30.35,1.01 45.4,-6.31 1.41,-4.71 -1.31,-5.06 -1.79,-9.96 9.49,0.29 11.38,-4.17 15.229,-7.41 7.04,-1.81 10.13,-1.15 17.92,-2.51 0.19,1.02 0.47,1.96 2.49,1.56 3.23,-0.92 -3.28,-1.4 -1.44,-4.11 8.15,-0.94 9.7,-8.97 17.62,-7.52 z M 328.49,713.07 c 3.68,-3.73 8.5,-1.77 15.46,-3.23 -2.97,2.16 -10.38,4.95 -15.46,3.23 z m 156.92,6.05 c -3.63,0.78 -4.42,-0.64 -7.25,-0.5 0.85,-1.92 7.88,-3.13 7.25,0.5 z m -16,14.97 c 2.53,-2.44 8.58,-0.27 12.02,-0.56 -2.06,2.1 -9.37,0.91 -12.02,0.56 z m 46.5,-8.03 c 2.77,0.28 6.25,1.37 8.43,-0.39 2.99,0.81 -8.98,5.57 -8.43,0.39 z m 17.32,7.56 c -2.92,0.66 -7.94,-0.11 -12.07,-0.27 -0.33,-3.43 9.39,-0.59 10.68,-3.01 4.22,0.03 -1.96,3.8 1.39,3.28 z m 45.06,-12.15 c 5.94,-1.13 11.6,-1.74 19.2,-0.89 -6.14,2.26 -12.7,1.9 -19.2,0.89 z m 91.47,-0.93 c -1.39,-2.75 3.66,-1.47 5.9,-1.95 1.03,2.85 -4.03,3.19 -5.9,1.95 z m 149.17,-2.79 c 2.01,-1.8 -0.98,-1.59 1.01,-3.39 7.78,1.41 9.78,1.35 16.92,0.88 -2.4,3.06 -11.82,1.75 -17.93,2.51 z m 20.38,-1.79 c -1.28,-3.02 6.24,-1.81 7.16,-1.17 -0.92,1.65 -5.14,2.5 -7.16,1.17 z m 118.34,5.34 c -0.42,-1.33 1.06,-1.48 1.05,-2.55 3.86,-0.37 5.17,1.23 9.66,0.38 -0.39,2.65 -8.11,3.4 -10.71,2.17 z m 20.37,-1.79 c 4.41,1.15 5.81,-0.41 9.66,0.39 -0.29,2.77 -10.17,2.7 -9.66,-0.39 z m 124.64,10.09 c -0.36,1.42 1.03,1.52 2.49,1.55 -2.28,2.19 -4.58,-2.26 -8.39,0.39 0.13,-0.98 -0.36,-1.48 -1.3,-1.61 2.59,-1.86 2.33,1.67 7.2,-0.33 z m -83.89,7.26 c 2.52,-1.62 5.44,-1.73 8.37,-1.23 -1.03,3.3 -4.12,0.32 -8.37,1.23 z m 10.91,1.16 c 1.02,-1.5 3.65,-2.02 7.12,-2.01 -0.55,2.01 -4.45,3.69 -7.12,2.01 z m 2.87,-12.69 c 0.03,-1.59 4.52,0.46 6.05,0.56 -1.13,3.4 -4.71,0.77 -6.05,-0.56 z m 9.42,-3.78 c 0.01,-2.14 3.93,-1.84 7.11,-2.01 0.5,2.66 -5.08,3.28 -7.11,2.01 z m 12.16,1.94 c -1.38,-0.1 -0.72,-0.8 -0.05,-0.84 0.22,-2.21 -4.7,-0.44 -3.8,-3.16 2.91,0.2 2.521,-1.66 5.96,-1.12 0.57,0.71 1.13,1.43 2.5,1.55 0,2.16 -4.62,1.42 -4.61,3.57 z m 10.68,17.91 c -0.44,-2.73 6.39,-4.06 6,-0.28 -1.52,1.14 -4.37,1.28 -6,0.28 z m 0.18,-17.58 c -0.72,-2.6 3.09,-2.36 3.35,-4.35 1.65,0.48 2.34,1.69 2.6,3.23 -1.34,0.76 -3.15,1.25 -5.95,1.12 z m 147.88,-4.41 c 1.66,-0.47 3.24,-0.53 4.75,-0.42 -2.31,0.12 -3.77,2.48 -4.75,0.42 z m 21.71,0.66 c -2.28,-0.23 -1.18,-3.07 -4.73,-2.32 0.31,-0.25 0.62,-0.53 0.93,-0.85 1.8,0.65 4.69,0.44 3.8,3.17 z m 30.13,0.26 c -3.92,-2.08 -6.78,-1.6 -10.96,-1.99 2.15,-1.61 13.04,-2.56 10.96,1.99 z m -55.7,36.08 c 1.59,-1.35 6.07,-2.66 8.36,-1.22 -0.42,1.89 -5.91,0.61 -8.36,1.22 z m 60.43,-17.05 c 0.88,-0.79 1.17,-1.94 0.99,-3.39 3.68,-0.8 2.45,2.18 6.11,1.39 -0.01,2.14 -3.93,1.84 -7.1,2 z m -16.04,35.06 c 0.75,-1.89 5.49,-3.04 7.12,-2 -1.02,1.51 -3.66,2.01 -7.12,2 z m 8.75,5.45 c -1.59,0.07 -3.2,0.15 -4.8,0.23 -1.13,-3.18 5.57,-3.49 4.8,-0.23 z m 20.22,-4.3 c -6.07,0.13 -10.73,-2.78 -15.7,-0.94 -1.12,-1.16 -1.15,-3.18 -4.95,-2.27 6.5,-4.16 17.59,-0.39 23.97,-1.96 -1.99,1.17 -3.09,2.9 -3.32,5.17 z m -9.78,-43.88 c -0.05,-0.84 -0.09,-1.67 -0.14,-2.51 5.76,-2.22 8.97,0.2 15.71,0.94 -4.76,2.29 -9.82,-0.37 -15.57,1.57 z m 44.64,1.25 c -5.73,-2.43 -17.38,-3.57 -19.26,0.07 -2.14,-0.11 -2.82,-1.31 -2.6,-3.23 -3.46,0.89 -1.28,1.31 -1.01,3.39 -3.49,-0.21 -3.04,-3.46 -6.25,-3.88 9.97,-2.98 18.23,1.55 30.03,-1.41 -1.08,2.1 -0.3,1.8 -0.91,5.06 z m 11.96,-1.39 c -2.78,-1.81 -4.67,0.51 -8.4,0.39 -0.08,-3.26 5.04,-3.29 9.41,-3.79 0.24,1.49 -1.37,1.84 -1.01,3.4 z m 195.49,47.76 c -3.15,0.39 -1.14,-3.19 -4.95,-2.28 2.76,-3.55 6.19,0.45 10.86,0.33 0.67,2.3 -6.59,-0.35 -5.91,1.95 z m 60.81,-10.38 c -5.939,2.45 -9.95,2.55 -16.66,3.29 -1.61,-1.02 -1.72,-3 -0.25,-4.17 -3.83,-0.81 -8.41,-1.06 -11,-2.83 6.84,-1.55 13.7,1.39 20.32,-2.62 4.24,-0.38 2.61,3.8 7.4,2.99 1.24,1.5 -3.43,2.96 0.189,3.34 z m 91.25,-46.11 c -4.91,-2.01 -12.16,-2.22 -12.5,-7.79 3.82,-1.33 9.29,-1.48 6.97,-4.5 8.96,-1.39 12.83,8.68 5.53,12.29 z m -137.55,57.49 c -0.31,-0.12 -0.68,-0.21 -1.09,-0.28 0.26,0.3 0.63,0.44 1.09,0.28 z m -238.69,-3.9 c -0.11,-0.02 -0.22,-0.03 -0.34,-0.04 -0.04,0.03 -0.08,0.06 -0.11,0.1 0.14,-0.02 0.3,-0.04 0.45,-0.06 z m -1.15,0.88 c 0.2,-0.31 0.43,-0.58 0.69,-0.82 -0.52,0.09 -0.9,0.27 -0.69,0.82 z m -733.3,-53.77 c 0.51,0.04 1.03,0.07 1.52,0.12 -0.42,-0.07 -0.93,-0.11 -1.52,-0.12 z"
     fill="#91a0e2"
     fill-rule="evenodd"
     id="path2157"
     style="opacity:0.5;fill:#0088aa" /><path
     d="m 1762.15,889.27 v 483.78 H 530.43 C 523.52,1343.02 520,1312.21 520,1281.2 V 889.27 c 0,-127.02 102.98,-230 230,-230 h 782.15 c 127.03,0 230,102.98 230,230 z"
     fill="#ffffff"
     id="path2159" /><path
     d="m 1762.15,1373.05 -33.32,223.7 c -15.33,102.9 -103.68,179.06 -207.71,179.06 H 843.13 c -81.27,0 -155.25,-46.9 -189.93,-120.4 l -94.01,-199.28 c -12.57,-26.67 -22.2,-54.52 -28.76,-83.08 z"
     fill="#ffffff"
     id="path2161" /><path
     d="M 1521.12,1780.81 H 843.13 c -40.825,0 -80.63,-11.555 -115.113,-33.415 -34.482,-21.859 -61.917,-52.93 -79.338,-89.852 l -94.01,-199.281 c -12.678,-26.9 -22.473,-55.193 -29.111,-84.094 -0.341,-1.484 0.013,-3.043 0.962,-4.234 0.949,-1.191 2.388,-1.885 3.911,-1.885 H 1762.15 c 1.455,0 2.837,0.634 3.787,1.735 0.95,1.102 1.373,2.563 1.158,4.001 l -33.32,223.701 c -7.591,50.951 -33.258,97.534 -72.273,131.167 -39.015,33.633 -88.871,52.156 -140.382,52.156 z M 536.759,1378.05 c 6.422,26.077 15.477,51.598 26.954,75.948 l 94.009,199.279 c 33.688,71.398 106.465,117.533 185.408,117.533 h 677.99 c 100.749,0 187.918,-75.146 202.765,-174.797 l 32.465,-217.964 H 536.759 Z"
     fill="#91a0e2"
     id="path2163"
     style="fill:#00aad4;fill-opacity:1" /><path
     d="m 0.003,934.79 h 520 v 327.455 h -520 z"
     id="path2165" /><path
     d="m 0.003,934.79 h 520 v 327.455 h -520 z"
     id="path2167" /><circle
     cx="706.71198"
     cy="858.52002"
     r="64.735001"
     id="circle2173" /><path
     d="M 1762.15,1378.05 H 530.43 c -2.33,0 -4.35,-1.609 -4.873,-3.879 -7.005,-30.444 -10.558,-61.724 -10.558,-92.971 V 889.27 c 0,-62.768 24.445,-121.781 68.832,-166.168 44.387,-44.387 103.4,-68.832 166.168,-68.832 h 782.15 c 62.772,0 121.786,24.445 166.172,68.832 44.385,44.386 68.828,103.399 68.828,166.168 v 483.78 c 0,2.761 -2.239,5 -5,5 z m -1227.719,-10 H 1757.15 V 889.27 c 0,-124.065 -100.935,-225 -225,-225 H 750 c -124.065,0 -225,100.935 -225,225 v 391.93 c 0,29.168 3.171,58.365 9.431,86.85 z"
     fill="#91a0e2"
     id="path2175"
     style="fill:#00aad4;fill-opacity:1" /><g
     fill="#576cc0"
     id="g2183"><path
       d="m 942.977,1723.957 c 0,-76.022 -51.417,-140.024 -121.369,-159.157 v -5.803 h -40.467 c -1.053,-0.02 -2.106,-0.04 -3.164,-0.04 -1.058,0 -2.111,0.02 -3.164,0.04 h -0.465 v 0.01 c -89.45,1.931 -161.371,75.041 -161.371,164.954 0,89.913 71.921,163.023 161.371,164.954 v 0.046 h 47.26 v -5.843 c 69.952,-19.133 121.369,-83.135 121.369,-159.157 z"
       id="path2177"
       style="fill:#006680" /><path
       d="m 1347.977,1723.957 c 0,-76.022 -51.417,-140.024 -121.369,-159.157 v -5.803 h -40.467 c -1.053,-0.02 -2.106,-0.04 -3.164,-0.04 -1.058,0 -2.111,0.02 -3.164,0.04 h -0.465 v 0.01 c -89.45,1.931 -161.371,75.041 -161.371,164.954 0,89.913 71.921,163.023 161.371,164.954 v 0.046 h 47.26 v -5.843 c 69.952,-19.133 121.369,-83.135 121.369,-159.157 z"
       id="path2179"
       style="fill:#006680" /><path
       d="m 1752.977,1723.957 c 0,-76.022 -51.417,-140.024 -121.369,-159.157 v -5.803 h -40.467 c -1.053,-0.02 -2.106,-0.04 -3.164,-0.04 -1.058,0 -2.111,0.02 -3.164,0.04 h -0.465 v 0.01 c -89.45,1.931 -161.371,75.041 -161.371,164.954 0,89.913 71.921,163.023 161.371,164.954 v 0.046 h 47.26 v -5.843 c 69.952,-19.133 121.369,-83.135 121.369,-159.157 z"
       id="path2181"
       style="fill:#006680" /></g><circle
     cx="817.97699"
     cy="1723.957"
     fill="#91a0e2"
     r="165"
     id="circle2185"
     style="fill:#00aad4" /><path
     d="m 817.977,1845.149 c -66.825,0 -121.192,-54.367 -121.192,-121.192 0,-66.825 54.367,-121.192 121.192,-121.192 66.825,0 121.192,54.367 121.192,121.192 0,66.825 -54.367,121.192 -121.192,121.192 z m 0,-232.384 c -61.312,0 -111.192,49.88 -111.192,111.192 0,61.312 49.88,111.192 111.192,111.192 61.312,0 111.192,-49.88 111.192,-111.192 0,-61.312 -49.881,-111.192 -111.192,-111.192 z"
     fill="#fbf8f2"
     id="path2187" /><circle
     cx="1222.9771"
     cy="1723.957"
     fill="#91a0e2"
     r="165"
     id="circle2189"
     style="fill:#00aad4" /><path
     d="m 1222.977,1845.149 c -66.825,0 -121.192,-54.367 -121.192,-121.192 0,-66.825 54.367,-121.192 121.192,-121.192 66.825,0 121.192,54.367 121.192,121.192 0,66.825 -54.367,121.192 -121.192,121.192 z m 0,-232.384 c -61.312,0 -111.192,49.88 -111.192,111.192 0,61.312 49.88,111.192 111.192,111.192 61.312,0 111.192,-49.88 111.192,-111.192 0,-61.312 -49.881,-111.192 -111.192,-111.192 z"
     fill="#fbf8f2"
     id="path2191" /><circle
     cx="1627.9771"
     cy="1723.957"
     fill="#91a0e2"
     r="165"
     id="circle2193"
     style="fill:#00aad4" /><path
     d="m 1627.977,1845.149 c -66.825,0 -121.192,-54.367 -121.192,-121.192 0,-66.825 54.367,-121.192 121.192,-121.192 66.825,0 121.192,54.367 121.192,121.192 0,66.825 -54.367,121.192 -121.192,121.192 z m 0,-232.384 c -61.312,0 -111.192,49.88 -111.192,111.192 0,61.312 49.88,111.192 111.192,111.192 61.312,0 111.192,-49.88 111.192,-111.192 0,-61.312 -49.881,-111.192 -111.192,-111.192 z"
     fill="#fbf8f2"
     id="path2195" /><path
     d="m 682.622,851.837 c 0,0 89.642,-299.396 89.642,-299.396 2.955,-9.869 13.351,-15.474 23.22,-12.519 9.613,2.878 15.17,12.855 12.722,22.489 0,0 -77.403,302.791 -77.403,302.791 -3.42,13.38 -17.039,21.454 -30.419,18.033 -13.733,-3.475 -21.851,-17.841 -17.761,-31.398 z"
     id="path2197" /><g
     inkscape:label="Layer 1"
     id="layer1"
     transform="matrix(8.7835138,0,0,8.7835138,197.26118,-192.30139)"
     style="fill:#00aad4;fill-opacity:1"><flowRoot
       xml:space="preserve"
       id="flowRoot3721"
       style="font-style:normal;font-variant:normal;font-weight:bold;font-stretch:extra-expanded;font-size:40px;line-height:1.25;font-family:'FOT-Rodin Pro';-inkscape-font-specification:'FOT-Rodin Pro Bold Extra-Expanded';letter-spacing:0px;word-spacing:0px;fill:#00aad4;fill-opacity:1;stroke:none"
       transform="scale(0.26458333)"><flowRegion
         id="flowRegion3723"
         style="font-style:normal;font-variant:normal;font-weight:bold;font-stretch:extra-expanded;font-family:'FOT-Rodin Pro';-inkscape-font-specification:'FOT-Rodin Pro Bold Extra-Expanded';fill:#00aad4;fill-opacity:1"><rect
           id="rect3725"
           width="697.14288"
           height="300"
           x="62.857143"
           y="448.23398"
           style="font-style:normal;font-variant:normal;font-weight:bold;font-stretch:extra-expanded;font-family:'FOT-Rodin Pro';-inkscape-font-specification:'FOT-Rodin Pro Bold Extra-Expanded';fill:#00aad4;fill-opacity:1" /></flowRegion><flowPara
         id="flowPara3727" /></flowRoot><g
       aria-label="open"
       id="text3731"
       style="font-size:10.5833px;line-height:1.25;letter-spacing:0px;word-spacing:0px;fill:#00aad4;fill-opacity:1;stroke-width:0.264583"><path
         d="m 73.975683,147.61292 c 0,-8.9408 -5.4356,-14.732 -14.3764,-14.732 -8.8392,0 -14.4272,5.7912 -14.4272,14.732 0,8.89 5.588,14.6812 14.4272,14.6812 8.9408,0 14.3764,-5.7912 14.3764,-14.6812 z m -7.3152,0 c 0,5.588 -2.794,8.9408 -7.0612,8.9408 -4.1148,0 -7.112,-3.4544 -7.112,-8.9408 0,-5.588 2.9972,-8.9408 7.112,-8.9408 4.2672,0 7.0612,3.3528 7.0612,8.9408 z"
         style="font-weight:bold;font-stretch:extra-expanded;font-size:50.8px;font-family:'FOT-Rodin Pro';-inkscape-font-specification:'FOT-Rodin Pro Bold Extra-Expanded';fill:#00aad4;fill-opacity:1"
         id="path5338" /><path
         d="m 106.94489,147.56212 c 0,-9.6012 -5.1308,-14.6812 -12.5984,-14.6812 -3.352799,0 -7.111999,1.6764 -8.127999,4.5212 v -3.9116 h -6.5532 v 37.9984 h 7.2136 v -11.938 c 1.524,1.6256 4.7752,2.7432 7.518399,2.7432 7.366,0 12.5476,-5.0292 12.5476,-14.732 z m -7.3152,0 c 0,6.096 -2.8448,9.0932 -6.7056,9.0932 -2.997199,0 -4.927599,-1.778 -6.197599,-3.8608 v -7.7724 c 0,-3.6068 2.7432,-6.35 6.1468,-6.35 4.114799,0 6.756399,2.8956 6.756399,8.89 z"
         style="font-weight:bold;font-stretch:extra-expanded;font-size:50.8px;font-family:'FOT-Rodin Pro';-inkscape-font-specification:'FOT-Rodin Pro Bold Extra-Expanded';fill:#00aad4;fill-opacity:1"
         id="path5340" /><path
         d="m 138.1869,148.01932 c 0,-0.254 0,-0.508 0,-0.762 0,-8.6868 -5.08,-14.3764 -13.208,-14.3764 -8.7884,0 -13.8684,6.35 -13.8684,14.6812 0,8.9916 5.588,14.732 14.0716,14.732 6.1468,0 9.7536,-2.1336 12.7508,-6.096 l -3.556,-4.3688 c -1.778,3.048 -5.1308,4.7244 -8.7376,4.7244 -4.064,0 -7.3152,-2.0828 -7.874,-5.9436 z m -6.8072,-4.3688 -13.716,1.8288 c 0.254,-4.5212 3.0988,-6.9596 7.2644,-6.9596 3.6068,0 6.1468,1.9304 6.4516,5.1308 z"
         style="font-weight:bold;font-stretch:extra-expanded;font-size:50.8px;font-family:'FOT-Rodin Pro';-inkscape-font-specification:'FOT-Rodin Pro Bold Extra-Expanded';fill:#00aad4;fill-opacity:1"
         id="path5342" /><path
         d="m 169.73367,161.68452 v -18.796 c 0,-5.6896 -4.1148,-10.0076 -10.2616,-10.0076 -4.67359,0 -7.82319,1.6256 -9.14399,4.2164 v -3.6068 h -6.604 v 28.194 h 7.2136 v -18.4404 c 0.9144,-2.9464 3.556,-4.572 6.50239,-4.572 2.8956,0 5.0292,1.8796 5.0292,5.2324 v 17.78 z"
         style="font-weight:bold;font-stretch:extra-expanded;font-size:50.8px;font-family:'FOT-Rodin Pro';-inkscape-font-specification:'FOT-Rodin Pro Bold Extra-Expanded';fill:#00aad4;fill-opacity:1"
         id="path5344" /></g><flowRoot
       xml:space="preserve"
       id="flowRoot4598"
       style="font-style:normal;font-weight:normal;font-size:40px;line-height:1.25;font-family:sans-serif;letter-spacing:0px;word-spacing:0px;fill:#00aad4;fill-opacity:1;stroke:none"
       transform="scale(0.26458333)"><flowRegion
         id="flowRegion4600"
         style="fill:#00aad4;fill-opacity:1"><rect
           id="rect4602"
           width="237.14285"
           height="168.57143"
           x="554.28571"
           y="536.80542"
           style="fill:#00aad4;fill-opacity:1" /></flowRegion><flowPara
         id="flowPara4604" /></flowRoot><flowRoot
       xml:space="preserve"
       id="flowRoot4606"
       style="font-style:normal;font-weight:normal;font-size:40px;line-height:1.25;font-family:sans-serif;letter-spacing:0px;word-spacing:0px;fill:#00aad4;fill-opacity:1;stroke:none"
       transform="scale(0.26458333)"><flowRegion
         id="flowRegion4608"
         style="fill:#00aad4;fill-opacity:1"><rect
           id="rect4610"
           width="151.42857"
           height="45.714287"
           x="548.57141"
           y="525.37683"
           style="fill:#00aad4;fill-opacity:1" /></flowRegion><flowPara
         id="flowPara4612" /></flowRoot></g><ellipse
     cx="150.03201"
     cy="1066.9194"
     fill="#ffffff"
     rx="30.91"
     ry="50.757999"
     id="ellipse2169" /><ellipse
     cx="369.03198"
     cy="1066.9194"
     fill="#ffffff"
     rx="31.851999"
     ry="52.305"
     id="ellipse2171" /><path
     sodipodi:type="star"
     style="fill:#ffffff;fill-opacity:1"
     id="path6967"
     inkscape:flatsided="false"
     sodipodi:sides="3"
     sodipodi:cx="117.34775"
     sodipodi:cy="1150.6917"
     sodipodi:r1="48.721828"
     sodipodi:r2="24.360914"
     sodipodi:arg1="0.52359878"
     sodipodi:arg2="1.5707963"
     inkscape:rounded="0"
     inkscape:randomized="0"
     d="m 159.54209,1175.0526 -42.19434,0 -42.194343,0 21.09717,-36.5414 21.097173,-36.5414 21.09717,36.5414 z"
     inkscape:transform-center-y="-6.6738481"
     transform="matrix(1,0,0,0.54791436,141.71325,538.59236)" /><text
     xml:space="preserve"
     style="font-size:13.3333px;font-family:'Arial Rounded MT Bold';-inkscape-font-specification:'Arial Rounded MT Bold, ';text-align:center;text-anchor:middle;fill:#ffffff;fill-opacity:1"
     x="881.07501"
     y="403.31168"
     id="text8487"><tspan
       sodipodi:role="line"
       id="tspan8485"
       x="881.07501"
       y="403.31168" /></text><text
     xml:space="preserve"
     style="font-size:13.3333px;font-family:'Arial Rounded MT Bold';-inkscape-font-specification:'Arial Rounded MT Bold, ';text-align:center;text-anchor:middle;fill:#ffffff;fill-opacity:1"
     x="881.07501"
     y="517.24158"
     id="text8491"><tspan
       sodipodi:role="line"
       id="tspan8489"
       x="881.07501"
       y="517.24158" /></text><g
     style="fill:#ffffff"
     id="g6536"
     transform="matrix(13.341225,0,0,13.341225,918.0363,347.20636)"><path
       style="fill:#ffffff"
       d="m 18,13 a 1,1 0 0 1 1,1 v 6 a 1,1 0 0 1 -2,0 v -6 a 1,1 0 0 1 1,-1 z"
       id="path10029" /><path
       style="fill:#ffffff"
       d="m 23,14 v 6 a 1,1 0 0 1 -2,0 v -6 a 1,1 0 0 1 2,0 z"
       id="path10027" /><path
       style="fill:#ffffff"
       d="m 9,18 a 3,3 0 0 0 6,0 v -2 a 3,3 0 0 0 -6,0 z m 2,-2 a 1,1 0 0 1 2,0 v 2 a 1,1 0 0 1 -2,0 z"
       id="path10025" /><path
       style="fill:#ffffff"
       d="m 7,18 v -2 a 3,3 0 0 0 -6,0 v 2 a 3,3 0 0 0 6,0 z m -4,0 v -2 a 1,1 0 0 1 2,0 v 2 a 1,1 0 0 1 -2,0 z"
       id="path10023" /><path
       style="fill:#ffffff"
       d="m 23,4 v 6 a 1,1 0 0 1 -2,0 V 4 a 1,1 0 0 1 2,0 z"
       id="path10021" /><path
       style="fill:#ffffff"
       d="M 10,11 A 1,1 0 0 1 9,10 V 4 a 1,1 0 0 1 2,0 v 6 a 1,1 0 0 1 -1,1 z"
       id="path10019" /><path
       style="fill:#ffffff"
       d="m 19,6 a 3,3 0 0 0 -6,0 v 2 a 3,3 0 0 0 6,0 z M 17,8 A 1,1 0 0 1 15,8 V 6 a 1,1 0 0 1 2,0 z"
       id="path10017" /><path
       style="fill:#ffffff"
       d="M 4,11 A 3,3 0 0 0 7,8 V 6 A 3,3 0 0 0 1,6 v 2 a 3,3 0 0 0 3,3 z M 3,6 A 1,1 0 0 1 5,6 V 8 A 1,1 0 0 1 3,8 Z"
       id="path6527" /><path
       d="m 89.480161,40.768082 h -2.148473 v 9.730106 q 0,1.921231 -0.846995,2.8302 -0.846994,0.90897 -2.210448,0.90897 -1.466747,0 -2.272424,-0.950287 -0.805678,-0.950286 -0.805678,-2.788883 V 27.195515 q 0,-1.983207 0.888312,-2.871518 0.888311,-0.888311 2.871517,-0.888311 h 9.978006 q 2.06584,0 3.532586,0.185926 1.466746,0.165267 2.644276,0.702385 1.42543,0.599094 2.52032,1.714647 1.0949,1.115554 1.65268,2.602958 0.57843,1.466747 0.57843,3.119419 0,3.387977 -1.92123,5.4125 -1.90057,2.024523 -5.784352,2.871517 1.632014,0.867653 3.119422,2.561642 1.4874,1.693988 2.64427,3.615219 1.17753,1.900573 1.81794,3.449953 0.66107,1.528721 0.66107,2.107156 0,0.599094 -0.39251,1.198187 -0.37185,0.578435 -1.03292,0.90897 -0.66107,0.351193 -1.52872,0.351193 -1.03292,0 -1.73531,-0.495802 -0.70238,-0.475143 -1.21884,-1.218845 -0.495804,-0.743703 -1.363457,-2.189791 l -2.458349,-4.090362 q -1.322138,-2.251766 -2.375716,-3.429294 -1.03292,-1.177529 -2.107157,-1.611356 -1.074236,-0.433826 -2.70625,-0.433826 z m 3.511928,-12.725573 h -5.660401 v 8.325334 h 5.495134 q 2.210448,0 3.718511,-0.371851 1.508063,-0.392509 2.293082,-1.301479 0.805678,-0.929628 0.805678,-2.540983 0,-1.260162 -0.64041,-2.210448 -0.640411,-0.970945 -1.776623,-1.446088 -1.074236,-0.454485 -4.234971,-0.454485 z"
       id="path18569"
       style="font-size:42.3084px;font-family:'Arial Rounded MT Bold';-inkscape-font-specification:'Arial Rounded MT Bold, ';text-align:center;text-anchor:middle;opacity:0.99;fill:#00aad4;stroke-width:0.220356" /><path
       d="m 125.96289,44.156059 h -11.03158 q 0.0207,1.921231 0.76436,3.387978 0.76436,1.466746 2.00386,2.210448 1.26016,0.743703 2.76823,0.743703 1.01226,0 1.8386,-0.227243 0.84699,-0.247901 1.63201,-0.743702 0.78502,-0.51646 1.44609,-1.094895 0.66107,-0.578435 1.71464,-1.570038 0.43383,-0.371852 1.23951,-0.371852 0.86765,0 1.40477,0.475144 0.53712,0.475143 0.53712,1.342795 0,0.764361 -0.5991,1.797281 -0.59909,1.012262 -1.81794,1.962548 -1.19818,0.929628 -3.03678,1.54938 -1.81794,0.619752 -4.19366,0.619752 -5.43315,0 -8.44928,-3.09876 -3.01613,-3.09876 -3.01613,-8.407968 0,-2.499666 0.74371,-4.627481 0.7437,-2.148474 2.16913,-3.677195 1.42543,-1.528722 3.51193,-2.334399 2.08649,-0.826336 4.62748,-0.826336 3.30534,0 5.6604,1.404771 2.37571,1.384113 3.55324,3.594561 1.17753,2.210449 1.17753,4.503531 0,2.127815 -1.21884,2.768225 -1.21885,0.619752 -3.4293,0.619752 z m -11.03158,-3.202051 h 10.2259 q -0.20658,-2.892176 -1.57003,-4.317606 -1.3428,-1.446087 -3.55325,-1.446087 -2.10716,0 -3.47061,1.466746 -1.3428,1.446088 -1.63201,4.296947 z"
       id="path18571"
       style="font-size:42.3084px;font-family:'Arial Rounded MT Bold';-inkscape-font-specification:'Arial Rounded MT Bold, ';text-align:center;text-anchor:middle;opacity:0.99;fill:#00aad4;stroke-width:0.220356" /><path
       d="m 140.0106,34.467271 v 0.681727 q 1.5907,-1.962548 3.30535,-2.871517 1.71464,-0.929628 3.88378,-0.929628 2.60295,0 4.79274,1.342795 2.18979,1.342796 3.44996,3.925096 1.28082,2.5823 1.28082,6.114886 0,2.602958 -0.74371,4.792748 -0.72304,2.169132 -2.00386,3.656537 -1.28082,1.466746 -3.03678,2.272423 -1.73531,0.78502 -3.73917,0.78502 -2.41704,0 -4.06971,-0.970945 -1.63201,-0.970945 -3.11942,-2.850859 v 8.469943 q 0,3.718512 -2.70625,3.718512 -1.59069,0 -2.10715,-0.970945 -0.51646,-0.950286 -0.51646,-2.788884 V 34.508587 q 0,-1.611355 0.70238,-2.396374 0.70239,-0.805677 1.92123,-0.805677 1.19819,0 1.94189,0.826336 0.76436,0.805677 0.76436,2.334399 z m 11.05225,8.201384 q 0,-2.231107 -0.68173,-3.821804 -0.68173,-1.611355 -1.90057,-2.458349 -1.19819,-0.867653 -2.66494,-0.867653 -2.3344,0 -3.94575,1.838597 -1.5907,1.838598 -1.5907,5.412501 0,3.367319 1.5907,5.247233 1.5907,1.859256 3.94575,1.859256 1.40477,0 2.60296,-0.805678 1.19819,-0.826336 1.92123,-2.458349 0.72305,-1.632014 0.72305,-3.945754 z"
       id="path18573"
       style="font-size:42.3084px;font-family:'Arial Rounded MT Bold';-inkscape-font-specification:'Arial Rounded MT Bold, ';text-align:center;text-anchor:middle;opacity:0.99;fill:#00aad4;stroke-width:0.220356" /><path
       d="m 182.36031,42.771947 q 0,2.520324 -0.78501,4.648139 -0.78502,2.127815 -2.27243,3.656537 -1.4874,1.528721 -3.55324,2.355057 -2.06584,0.805678 -4.64814,0.805678 -2.56164,0 -4.60683,-0.826336 -2.04518,-0.826336 -3.55324,-2.355058 -1.4874,-1.54938 -2.27242,-3.635878 -0.76436,-2.107156 -0.76436,-4.648139 0,-2.561642 0.78502,-4.689457 0.78501,-2.127815 2.25176,-3.635878 1.46675,-1.508063 3.55324,-2.31374 2.0865,-0.826336 4.60683,-0.826336 2.56164,0 4.64814,0.826336 2.0865,0.826336 3.5739,2.355057 1.4874,1.528722 2.25177,3.635878 0.78501,2.107157 0.78501,4.64814 z m -5.6604,0 q 0,-3.449953 -1.52872,-5.371184 -1.50806,-1.921231 -4.0697,-1.921231 -1.65267,0 -2.91284,0.867653 -1.26016,0.846994 -1.94189,2.520324 -0.68172,1.673331 -0.68172,3.904438 0,2.210448 0.66107,3.86312 0.68172,1.652672 1.92123,2.540983 1.26016,0.867653 2.95415,0.867653 2.56164,0 4.0697,-1.921231 1.52872,-1.94189 1.52872,-5.350525 z"
       id="path18575"
       style="font-size:42.3084px;font-family:'Arial Rounded MT Bold';-inkscape-font-specification:'Arial Rounded MT Bold, ';text-align:center;text-anchor:middle;opacity:0.99;fill:#00aad4;stroke-width:0.220356" /><path
       d="m 204.96061,46.86231 q 0,2.334399 -1.13621,4.007729 -1.13622,1.652672 -3.36732,2.520324 -2.21045,0.846995 -5.39185,0.846995 -3.03678,0 -5.20591,-0.929628 -2.16913,-0.929628 -3.20205,-2.313741 -1.03292,-1.404771 -1.03292,-2.809542 0,-0.929628 0.66107,-1.590697 0.66106,-0.661068 1.67333,-0.661068 0.88831,0 1.36345,0.433826 0.47514,0.433826 0.90897,1.218845 0.86765,1.508064 2.06584,2.251766 1.21884,0.743702 3.30534,0.743702 1.69399,0 2.76823,-0.743702 1.09489,-0.764361 1.09489,-1.735306 0,-1.487404 -1.13621,-2.169131 -1.11555,-0.681728 -3.69785,-1.301479 -2.91284,-0.723044 -4.75143,-1.508064 -1.81794,-0.805677 -2.91284,-2.107156 -1.09489,-1.301479 -1.09489,-3.202052 0,-1.693988 1.01226,-3.202052 1.01226,-1.508063 2.97481,-2.396374 1.9832,-0.908969 4.77209,-0.908969 2.18979,0 3.92509,0.454485 1.75597,0.454484 2.91284,1.218845 1.17753,0.764361 1.77662,1.693989 0.61975,0.929628 0.61975,1.817939 0,0.970944 -0.66107,1.590696 -0.64041,0.619752 -1.83859,0.619752 -0.86766,0 -1.48741,-0.495801 -0.59909,-0.495802 -1.38411,-1.487405 -0.64041,-0.826336 -1.50806,-1.322137 -0.86766,-0.495802 -2.35506,-0.495802 -1.52872,0 -2.54098,0.661069 -1.01227,0.64041 -1.01227,1.611355 0,0.888311 0.74371,1.466746 0.7437,0.557777 2.00386,0.929628 1.26016,0.371851 3.47061,0.90897 2.62362,0.64041 4.27629,1.528721 1.67333,0.888311 2.52032,2.107157 0.86766,1.198187 0.86766,2.747567 z"
       id="path18577"
       style="font-size:42.3084px;font-family:'Arial Rounded MT Bold';-inkscape-font-specification:'Arial Rounded MT Bold, ';text-align:center;text-anchor:middle;opacity:0.99;fill:#00aad4;stroke-width:0.220356" /><path
       d="m 215.37243,34.508587 v 16.299477 q 0,1.693988 -0.80567,2.561641 -0.80568,0.867653 -2.04518,0.867653 -1.23951,0 -2.02453,-0.888311 -0.76436,-0.888312 -0.76436,-2.540983 V 34.673855 q 0,-1.673331 0.76436,-2.520325 0.78502,-0.846994 2.02453,-0.846994 1.2395,0 2.04518,0.846994 0.80567,0.846994 0.80567,2.355057 z m -2.78888,-5.825668 q -1.17753,0 -2.02452,-0.723044 -0.82634,-0.723044 -0.82634,-2.045181 0,-1.198187 0.847,-1.962548 0.86765,-0.785019 2.00386,-0.785019 1.0949,0 1.94189,0.702385 0.84699,0.702386 0.84699,2.045182 0,1.301479 -0.82633,2.045181 -0.82634,0.723044 -1.96255,0.723044 z"
       id="path18579"
       style="font-size:42.3084px;font-family:'Arial Rounded MT Bold';-inkscape-font-specification:'Arial Rounded MT Bold, ';text-align:center;text-anchor:middle;opacity:0.99;fill:#00aad4;stroke-width:0.220356" /><path
       d="m 221.50798,31.802337 h 0.61975 V 28.41436 q 0,-1.363454 0.062,-2.127815 0.0826,-0.785019 0.41317,-1.342796 0.33054,-0.578435 0.95029,-0.929628 0.61975,-0.371851 1.38411,-0.371851 1.07424,0 1.94189,0.805678 0.57843,0.537118 0.72304,1.322137 0.16527,0.764361 0.16527,2.18979 v 3.842462 h 2.06584 q 1.19819,0 1.81794,0.578435 0.64041,0.557777 0.64041,1.446088 0,1.136212 -0.90897,1.590697 -0.88831,0.454485 -2.56164,0.454485 h -1.05358 v 10.370516 q 0,1.322137 0.0826,2.045181 0.1033,0.702386 0.49581,1.15687 0.41316,0.433827 1.32213,0.433827 0.4958,0 1.3428,-0.165268 0.84699,-0.185925 1.32214,-0.185925 0.68172,0 1.21884,0.557777 0.55778,0.537118 0.55778,1.342795 0,1.363455 -1.48741,2.086499 -1.4874,0.723044 -4.27628,0.723044 -2.64428,0 -4.00773,-0.888311 -1.36346,-0.888312 -1.79728,-2.45835 -0.41317,-1.570038 -0.41317,-4.193655 v -10.825 h -0.7437 q -1.21885,0 -1.85926,-0.578435 -0.64041,-0.578436 -0.64041,-1.466747 0,-0.888311 0.66107,-1.446088 0.68173,-0.578435 1.96255,-0.578435 z"
       id="path18581"
       style="font-size:42.3084px;font-family:'Arial Rounded MT Bold';-inkscape-font-specification:'Arial Rounded MT Bold, ';text-align:center;text-anchor:middle;opacity:0.99;fill:#00aad4;stroke-width:0.220356" /><path
       d="m 257.28832,42.771947 q 0,2.520324 -0.78502,4.648139 -0.78501,2.127815 -2.27242,3.656537 -1.4874,1.528721 -3.55324,2.355057 -2.06584,0.805678 -4.64814,0.805678 -2.56164,0 -4.60683,-0.826336 -2.04518,-0.826336 -3.55324,-2.355058 -1.48741,-1.54938 -2.27242,-3.635878 -0.76437,-2.107156 -0.76437,-4.648139 0,-2.561642 0.78502,-4.689457 0.78502,-2.127815 2.25177,-3.635878 1.46675,-1.508063 3.55324,-2.31374 2.0865,-0.826336 4.60683,-0.826336 2.56164,0 4.64814,0.826336 2.08649,0.826336 3.5739,2.355057 1.4874,1.528722 2.25176,3.635878 0.78502,2.107157 0.78502,4.64814 z m -5.6604,0 q 0,-3.449953 -1.52872,-5.371184 -1.50806,-1.921231 -4.0697,-1.921231 -1.65268,0 -2.91284,0.867653 -1.26016,0.846994 -1.94189,2.520324 -0.68172,1.673331 -0.68172,3.904438 0,2.210448 0.66106,3.86312 0.68173,1.652672 1.92124,2.540983 1.26016,0.867653 2.95415,0.867653 2.56164,0 4.0697,-1.921231 1.52872,-1.94189 1.52872,-5.350525 z"
       id="path18583"
       style="font-size:42.3084px;font-family:'Arial Rounded MT Bold';-inkscape-font-specification:'Arial Rounded MT Bold, ';text-align:center;text-anchor:middle;opacity:0.99;fill:#00aad4;stroke-width:0.220356" /><path
       d="m 267.32831,46.097949 v 4.710115 q 0,1.714647 -0.80568,2.582299 -0.80568,0.846995 -2.04518,0.846995 -1.21884,0 -2.00386,-0.867653 -0.78502,-0.867653 -0.78502,-2.561641 V 35.107681 q 0,-3.801145 2.74756,-3.801145 1.40478,0 2.02453,0.888311 0.61975,0.888311 0.68172,2.623616 1.01227,-1.735305 2.06584,-2.623616 1.07424,-0.888311 2.85086,-0.888311 1.77663,0 3.44996,0.888311 1.67333,0.888311 1.67333,2.355057 0,1.03292 -0.72305,1.714647 -0.70238,0.661069 -1.52872,0.661069 -0.30988,0 -1.50806,-0.371851 -1.17753,-0.39251 -2.0865,-0.39251 -1.2395,0 -2.02452,0.661069 -0.78502,0.64041 -1.21885,1.921231 -0.43383,1.280821 -0.59909,3.057443 -0.16527,1.755964 -0.16527,4.296947 z"
       id="path18585"
       style="font-size:42.3084px;font-family:'Arial Rounded MT Bold';-inkscape-font-specification:'Arial Rounded MT Bold, ';text-align:center;text-anchor:middle;opacity:0.99;fill:#00aad4;stroke-width:0.220356" /><path
       d="m 285.46638,54.939743 0.51646,-1.260162 -6.94122,-17.477005 q -0.64041,-1.508063 -0.64041,-2.18979 0,-0.723044 0.37185,-1.342796 0.37185,-0.619752 1.01226,-0.991603 0.66107,-0.371851 1.36345,-0.371851 1.21885,0 1.8386,0.785019 0.61975,0.764361 1.0949,2.210449 l 4.77209,13.882443 4.52419,-12.911499 q 0.53711,-1.570038 0.97094,-2.458349 0.43383,-0.888311 0.90897,-1.198187 0.4958,-0.309876 1.38411,-0.309876 0.64041,0 1.21885,0.351193 0.59909,0.330534 0.90897,0.908969 0.33053,0.578435 0.33053,1.218846 -0.0826,0.392509 -0.26856,1.115553 -0.18592,0.723044 -0.45448,1.466746 l -7.35439,19.253627 q -0.95029,2.540983 -1.85926,3.987071 -0.90897,1.446088 -2.41703,2.210449 -1.4874,0.785019 -4.02839,0.785019 -2.47901,0 -3.71851,-0.537119 -1.2395,-0.537118 -1.2395,-1.962547 0,-0.970945 0.57843,-1.508063 0.5991,-0.51646 1.75597,-0.51646 0.45448,0 0.88831,0.12395 0.53712,0.12395 0.92962,0.12395 0.97095,0 1.52873,-0.289217 0.55777,-0.289218 0.9916,-1.012262 0.45448,-0.702385 1.03292,-2.086498 z"
       id="path18587"
       style="font-size:42.3084px;font-family:'Arial Rounded MT Bold';-inkscape-font-specification:'Arial Rounded MT Bold, ';text-align:center;text-anchor:middle;opacity:0.99;fill:#00aad4;stroke-width:0.220356" /><path
       d="M 91.734438,88.431135 86.859439,69.055606 V 90.04922 q 0,1.742553 -0.788298,2.613829 -0.767553,0.871277 -2.053723,0.871277 -1.244681,0 -2.032978,-0.850532 -0.788298,-0.871276 -0.788298,-2.634574 V 65.985394 q 0,-1.991489 1.037234,-2.676063 1.037234,-0.705319 2.800531,-0.705319 h 1.908511 q 1.721808,0 2.489361,0.31117 0.788298,0.31117 1.161702,1.120212 0.373404,0.809043 0.850532,2.634574 l 4.418616,16.657976 4.418621,-16.657976 q 0.47712,-1.825531 0.85053,-2.634574 0.3734,-0.809042 1.14095,-1.120212 0.7883,-0.31117 2.51011,-0.31117 h 1.90851 q 1.7633,0 2.80053,0.705319 1.03724,0.684574 1.03724,2.676063 V 90.04922 q 0,1.742553 -0.7883,2.613829 -0.76755,0.871277 -2.07447,0.871277 -1.22394,0 -2.01223,-0.871277 -0.7883,-0.871276 -0.7883,-2.613829 V 69.055606 l -4.875,19.375529 q -0.477128,1.887766 -0.788298,2.779787 -0.290425,0.871276 -1.099468,1.59734 -0.809042,0.726064 -2.240425,0.726064 -1.078723,0 -1.825532,-0.477128 -0.746808,-0.456383 -1.161702,-1.182446 -0.414893,-0.726064 -0.663829,-1.597341 -0.228192,-0.892021 -0.477128,-1.846276 z"
       id="path18590"
       style="font-size:42.4851px;font-family:'Arial Rounded MT Bold';-inkscape-font-specification:'Arial Rounded MT Bold, ';text-align:center;text-anchor:middle;opacity:0.99;fill:#00aad4;stroke-width:0.221277" /><path
       d="m 130.77592,90.339646 q -2.05372,1.59734 -3.98298,2.406382 -1.90851,0.788298 -4.29415,0.788298 -2.17819,0 -3.83776,-0.850532 -1.63883,-0.871276 -2.53085,-2.344148 -0.89202,-1.472873 -0.89202,-3.194681 0,-2.323404 1.47287,-3.962233 1.47287,-1.63883 4.04521,-2.198936 0.53936,-0.124468 2.67606,-0.560106 2.13671,-0.435639 3.65107,-0.788298 1.5351,-0.373404 3.31915,-0.892021 -0.10373,-2.240425 -0.91277,-3.277659 -0.7883,-1.057979 -3.2984,-1.057979 -2.15745,0 -3.25692,0.601596 -1.07872,0.601595 -1.86702,1.804787 -0.76755,1.203191 -1.09947,1.59734 -0.31117,0.373404 -1.36915,0.373404 -0.95425,0 -1.65957,-0.601596 -0.68457,-0.62234 -0.68457,-1.576595 0,-1.493617 1.05797,-2.904255 1.05798,-1.410638 3.29841,-2.323404 2.24042,-0.912766 5.58032,-0.912766 3.73404,0 5.87074,0.892021 2.1367,0.871277 3.00798,2.779787 0.89202,1.908511 0.89202,5.061702 0,1.991489 -0.0207,3.381382 0,1.389893 -0.0207,3.090957 0,1.59734 0.51862,3.339893 0.53936,1.721808 0.53936,2.219681 0,0.871276 -0.82979,1.59734 -0.80904,0.705319 -1.84627,0.705319 -0.87128,0 -1.72181,-0.809043 -0.85053,-0.829787 -1.80479,-2.385637 z m -0.3734,-8.194148 q -1.24468,0.456383 -3.63032,0.975 -2.3649,0.497872 -3.27766,0.746808 -0.91277,0.228192 -1.74255,0.933511 -0.82979,0.684574 -0.82979,1.929255 0,1.28617 0.975,2.198935 0.975,0.892022 2.55159,0.892022 1.68032,0 3.09096,-0.726064 1.43138,-0.746809 2.09521,-1.90851 0.76756,-1.286171 0.76756,-4.231915 z"
       id="path18592"
       style="font-size:42.4851px;font-family:'Arial Rounded MT Bold';-inkscape-font-specification:'Arial Rounded MT Bold, ';text-align:center;text-anchor:middle;opacity:0.99;fill:#00aad4;stroke-width:0.221277" /><path
       d="m 146.85305,73.64018 v 0.684574 q 1.49361,-1.970744 3.25691,-2.88351 1.78404,-0.93351 4.0867,-0.93351 2.24043,0 4.00372,0.975 1.7633,0.974999 2.63458,2.759042 0.5601,1.037234 0.72606,2.240425 0.16596,1.203191 0.16596,3.070212 v 10.538296 q 0,1.701064 -0.7883,2.57234 -0.76755,0.871277 -2.01223,0.871277 -1.26543,0 -2.05372,-0.892021 -0.7883,-0.892021 -0.7883,-2.551596 v -9.438828 q 0,-2.800531 -0.7883,-4.273404 -0.76755,-1.493616 -3.09096,-1.493616 -1.51436,0 -2.75904,0.912765 -1.24468,0.892022 -1.82553,2.468617 -0.41489,1.265425 -0.41489,4.729787 v 7.094679 q 0,1.721809 -0.80905,2.593085 -0.78829,0.850532 -2.05372,0.850532 -1.22394,0 -2.01223,-0.892021 -0.7883,-0.892021 -0.7883,-2.551596 v -16.36755 q 0,-1.618085 0.70532,-2.406383 0.70532,-0.809042 1.92925,-0.809042 0.74681,0 1.34841,0.352659 0.60159,0.35266 0.95425,1.057979 0.37341,0.705319 0.37341,1.721808 z"
       id="path18594"
       style="font-size:42.4851px;font-family:'Arial Rounded MT Bold';-inkscape-font-specification:'Arial Rounded MT Bold, ';text-align:center;text-anchor:middle;opacity:0.99;fill:#00aad4;stroke-width:0.221277" /><path
       d="m 181.68336,90.339646 q -2.05372,1.59734 -3.98298,2.406382 -1.90851,0.788298 -4.29415,0.788298 -2.17819,0 -3.83776,-0.850532 -1.63883,-0.871276 -2.53085,-2.344148 -0.89202,-1.472873 -0.89202,-3.194681 0,-2.323404 1.47287,-3.962233 1.47287,-1.63883 4.04521,-2.198936 0.53936,-0.124468 2.67606,-0.560106 2.13671,-0.435639 3.65107,-0.788298 1.5351,-0.373404 3.31915,-0.892021 -0.10373,-2.240425 -0.91277,-3.277659 -0.7883,-1.057979 -3.2984,-1.057979 -2.15745,0 -3.25692,0.601596 -1.07872,0.601595 -1.86702,1.804787 -0.76755,1.203191 -1.09947,1.59734 -0.31117,0.373404 -1.36915,0.373404 -0.95425,0 -1.65957,-0.601596 -0.68457,-0.62234 -0.68457,-1.576595 0,-1.493617 1.05797,-2.904255 1.05798,-1.410638 3.29841,-2.323404 2.24042,-0.912766 5.58032,-0.912766 3.73404,0 5.87074,0.892021 2.1367,0.871277 3.00798,2.779787 0.89202,1.908511 0.89202,5.061702 0,1.991489 -0.0207,3.381382 0,1.389893 -0.0208,3.090957 0,1.59734 0.51862,3.339893 0.53936,1.721808 0.53936,2.219681 0,0.871276 -0.82979,1.59734 -0.80904,0.705319 -1.84627,0.705319 -0.87128,0 -1.72181,-0.809043 -0.85053,-0.829787 -1.80479,-2.385637 z m -0.3734,-8.194148 q -1.24468,0.456383 -3.63032,0.975 -2.3649,0.497872 -3.27766,0.746808 -0.91277,0.228192 -1.74255,0.933511 -0.82979,0.684574 -0.82979,1.929255 0,1.28617 0.975,2.198935 0.975,0.892022 2.55159,0.892022 1.68032,0 3.09096,-0.726064 1.43138,-0.746809 2.09521,-1.90851 0.76756,-1.286171 0.76756,-4.231915 z"
       id="path18596"
       style="font-size:42.4851px;font-family:'Arial Rounded MT Bold';-inkscape-font-specification:'Arial Rounded MT Bold, ';text-align:center;text-anchor:middle;opacity:0.99;fill:#00aad4;stroke-width:0.221277" /><path
       d="m 212.88335,74.656669 v 16.45053 q 0,2.821276 -0.60159,4.854254 -0.6016,2.032979 -1.92926,3.360638 -1.32766,1.327659 -3.4851,1.970749 -2.1367,0.64308 -5.33138,0.64308 -2.925,0 -5.22766,-0.82979 -2.30266,-0.80904 -3.54734,-2.115954 -1.24468,-1.28617 -1.24468,-2.655319 0,-1.037234 0.70532,-1.701063 0.70531,-0.643085 1.70106,-0.643085 1.24468,0 2.17819,1.099468 0.45638,0.560106 0.93351,1.120212 0.49787,0.580851 1.07872,0.975 0.6016,0.414894 1.43139,0.601596 0.82978,0.207447 1.90851,0.207447 2.19893,0 3.40212,-0.622341 1.22394,-0.601595 1.70107,-1.701063 0.49787,-1.099468 0.58085,-2.364894 0.083,-1.24468 0.12447,-4.024467 -1.30692,1.825532 -3.02873,2.779787 -1.70106,0.954255 -4.06595,0.954255 -2.84202,0 -4.97873,-1.452128 -2.11595,-1.452127 -3.25691,-4.065956 -1.14096,-2.61383 -1.14096,-6.036702 0,-2.551595 0.68458,-4.605318 0.70532,-2.053723 1.99149,-3.464361 1.28617,-1.410638 2.96648,-2.115957 1.68032,-0.726064 3.69256,-0.726064 2.40638,0 4.16968,0.933511 1.7633,0.912765 3.27766,2.88351 v -0.767553 q 0,-1.472872 0.72606,-2.281915 0.72606,-0.809042 1.86702,-0.809042 1.63883,0 2.17819,1.078723 0.53936,1.057978 0.53936,3.070212 z m -16.40904,7.177659 q 0,3.443616 1.49362,5.206914 1.51436,1.763297 3.9,1.763297 1.41064,0 2.65532,-0.746808 1.26542,-0.767553 2.05372,-2.281915 0.7883,-1.535106 0.7883,-3.713297 0,-3.464361 -1.53511,-5.393616 -1.51436,-1.929255 -4.00372,-1.929255 -2.42713,0 -3.9,1.846276 -1.45213,1.846277 -1.45213,5.248404 z"
       id="path18598"
       style="font-size:42.4851px;font-family:'Arial Rounded MT Bold';-inkscape-font-specification:'Arial Rounded MT Bold, ';text-align:center;text-anchor:middle;opacity:0.99;fill:#00aad4;stroke-width:0.221277" /><path
       d="m 233.35835,83.410923 h -11.07766 q 0.0208,1.929255 0.76756,3.402127 0.76755,1.472872 2.01223,2.219681 1.26543,0.746808 2.77979,0.746808 1.01649,0 1.84627,-0.228191 0.85053,-0.248936 1.63883,-0.746809 0.7883,-0.518617 1.45213,-1.099468 0.66383,-0.580851 1.72181,-1.576595 0.43564,-0.373404 1.24468,-0.373404 0.87128,0 1.41064,0.477127 0.53936,0.477128 0.53936,1.348404 0,0.767553 -0.6016,1.804787 -0.60159,1.01649 -1.82553,1.970745 -1.20319,0.93351 -3.04947,1.555851 -1.82553,0.62234 -4.21117,0.62234 -5.45585,0 -8.48457,-3.111702 -3.02872,-3.111701 -3.02872,-8.443084 0,-2.510106 0.74681,-4.646807 0.7468,-2.157447 2.17819,-3.692553 1.43138,-1.535106 3.52659,-2.344149 2.09522,-0.829787 4.64681,-0.829787 3.31915,0 5.68404,1.410638 2.38564,1.389894 3.56809,3.609574 1.18244,2.219681 1.18244,4.52234 0,2.136702 -1.22393,2.779787 -1.22394,0.62234 -3.44362,0.62234 z m -11.07766,-3.215425 h 10.26862 q -0.20745,-2.904255 -1.5766,-4.335637 -1.3484,-1.452128 -3.56808,-1.452128 -2.11596,0 -3.48511,1.472872 -1.3484,1.452128 -1.63883,4.314893 z"
       id="path18600"
       style="font-size:42.4851px;font-family:'Arial Rounded MT Bold';-inkscape-font-specification:'Arial Rounded MT Bold, ';text-align:center;text-anchor:middle;opacity:0.99;fill:#00aad4;stroke-width:0.221277" /><path
       d="m 248.41899,85.360923 v 4.729786 q 0,1.721809 -0.80904,2.593085 -0.80904,0.850532 -2.05372,0.850532 -1.22394,0 -2.01224,-0.871277 -0.7883,-0.871276 -0.7883,-2.57234 V 74.324754 q 0,-3.81702 2.75905,-3.81702 1.41063,0 2.03297,0.892021 0.62234,0.892021 0.68458,2.634574 1.01649,-1.742553 2.07447,-2.634574 1.07872,-0.892021 2.86276,-0.892021 1.78404,0 3.46436,0.892021 1.68032,0.892021 1.68032,2.364893 0,1.037234 -0.72606,1.721808 -0.70532,0.66383 -1.53511,0.66383 -0.31117,0 -1.51436,-0.373404 -1.18245,-0.394149 -2.09521,-0.394149 -1.24468,0 -2.03298,0.66383 -0.7883,0.643085 -1.22394,1.929255 -0.43563,1.28617 -0.60159,3.070212 -0.16596,1.763298 -0.16596,4.314893 z"
       id="path18602"
       style="font-size:42.4851px;font-family:'Arial Rounded MT Bold';-inkscape-font-specification:'Arial Rounded MT Bold, ';text-align:center;text-anchor:middle;opacity:0.99;fill:#00aad4;stroke-width:0.221277" /></g></svg>
