<?xml version="1.0" encoding="UTF-8" standalone="no"?>
<svg
   height="1888.957"
   viewBox="0 0 2001.292 1888.957"
   width="2001.292"
   version="1.1"
   id="svg2199"
   sodipodi:docname="repository-manager-logo.svg"
   xml:space="preserve"
   inkscape:version="1.2.1 (9c6d41e410, 2022-07-14)"
   xmlns:inkscape="http://www.inkscape.org/namespaces/inkscape"
   xmlns:sodipodi="http://sodipodi.sourceforge.net/DTD/sodipodi-0.dtd"
   xmlns="http://www.w3.org/2000/svg"
   xmlns:svg="http://www.w3.org/2000/svg"><defs
     id="defs2203" /><sodipodi:namedview
     id="namedview2201"
     pagecolor="#ffffff"
     bordercolor="#000000"
     borderopacity="0.25"
     inkscape:showpageshadow="2"
     inkscape:pageopacity="0.0"
     inkscape:pagecheckerboard="0"
     inkscape:deskcolor="#d1d1d1"
     showgrid="false"
     inkscape:zoom="0.15516275"
     inkscape:cx="2829.2874"
     inkscape:cy="0"
     inkscape:window-width="1920"
     inkscape:window-height="1009"
     inkscape:window-x="-8"
     inkscape:window-y="-8"
     inkscape:window-maximized="1"
     inkscape:current-layer="g6536" /><path
     d="m1853.001 7.612 98.484 39.817-643.371 644.034-102.29-41.367z"
     id="path2119" /><path
     d="m1781.865 612.617 207.383-444.565c32.853-70.426-3.85-128.047-81.562-128.047h-293.16c-58.287 0-111.296 33.765-135.937 86.588l-207.383 444.565c-32.853 70.426 3.85 128.047 81.562 128.047h293.16c58.287 0 111.296-33.765 135.937-86.588z"
     id="path2121" /><path
     d="m1890.25 128.05-207.39 444.57c-24.64 52.82-77.65 86.58-135.93 86.58h-293.16c-16.92 0-31.9-2.73-44.64-7.74-4.86-1.9-9.39-4.14-13.58-6.69-1.25-.75-2.46-1.53-3.65-2.35-.31-.2-.61-.41-.91-.64-2.26-1.57-4.4-3.26-6.43-5.05-.84-.73-1.67-1.48-2.47-2.26-.74-.71-1.46-1.44-2.16-2.18-3.58-3.74-6.7-7.83-9.33-12.21-.6-.99-1.17-2-1.72-3.02-4.88-9.1-7.78-19.4-8.53-30.59-.18-2.69-.23-5.43-.15-8.22.38-14.59 4.26-30.49 12-47.09l207.39-444.57c21.12-45.28 63.09-76.56 111.36-84.57.82-.14 1.65-.27 2.48-.39 1.84-.27 3.7-.51 5.56-.71.45-.06.9-.11 1.35-.15 1.32-.14 2.65-.25 3.98-.35 3.25-.25 6.51-.38 9.8-.41.47-.01.93-.01 1.4-.01h293.17c77.71 0 114.41 57.63 81.56 128.05z"
     fill="#91a0e2"
     id="path2123"
     style="fill:#00aad4" /><path
     d="m1520.57 31.86c.71-10.79 3.62-21.42 7.51-31.86h-12.56c-.47 0-.93 0-1.4.01-6.55 13.22-13.73 25.82-16.27 38.39-1.24-.46-2.55-1.4-3.33 1.08 1.05.73 2.98.94 2.5 2.52-2.96 4.72-6.23 7.68-9.8 8.65.97 1.81 1.33 3.96 1.66 6.12 1.14-1.81.5-6.41 3.16-6.49-.68 2.21 1.22 2.98-1.12 6.12-6.97 2.13-2.61 1.14-7.25 7.21.96-1.83.78-3.05.08-3.96-.03 6.06-7.84 11.7-7.68 17.64 3.98-5.04 4.08-7.17 8.07-10.8-2.22 5.87-3.36 6.94-4.29 12.6-1.91.37-.95-4.44-3.03-1.44.69 6.61-11.69 11.03-11.53 19.82.42-2.5 4.1-5.39 3.09-2.52-1.2 2.74-2.82 2.78-4.14 4.69 3.14 6.6-5.42 12.23-5.43 18.71-2.35 2.2-3.38 1.55-4.59 1.82 1.62 3.01-2.5 13.38-3.84 15.48-2.64-.6 1.85-5.23.36-6.48-4.79 11.09-3.97 15.95-4.95 21.6-.99 2.59-2.76.16-3.86 2.16 4.15-.19.87 8.32-1.26 14.04-2.48-1.64-3.87-1.91-4-3.24 1.43-.73 2.7-4.83 2.4-6.84-2.99 2.39-1.16-4.5-2.95-5.38 1.52-2.04 2.3-1.73 2.8-.01 2.15-8.83 8.99-17.84 11.15-26.65.81.58.77 2.74 2.26 1.08-3.5.4 1.33-3.89-.68-4.33-3 2.39-2-4.02-1.68-6.1.51 1.72 1.29 2.03 2.8-.01-3.43-4.67 4.48-7.89 3.01-11.89 2.33-1.98 1.37 3.25 3.33-1.08-1.01-.48-2.02-.95-3.02-1.43 1.53-4.07 6.75-15.5 8.2-18.72 1.7-2.55-5.22 1.23-1.96-3.59 3.05 2.38 4.39-12.65 10.11-11.19 2.42-11.19 7.99-13.55 8.8-23.75 1.5.16 5.62-5.16 4.44-7.21-.3 2.02-3.78 3.98-2.55 1.43 7.99-10.18 14.51-24.47 21.19-37.64-1.33.1-2.66.21-3.98.35-.77 4.05-2.54 8.92-6.29 9.21 2.51-1.92 3.74-5.54 4.939-9.06-1.86.2-3.72.44-5.56.71-.01 1.37-.52 2.74-1.58 3.32-.47-.89-.92-1.78-.9-2.93-48.27 8.01-90.24 39.29-111.36 84.57l-207.39 444.57c-7.74 16.6-11.62 32.5-12 47.09.95.54 1.88.96 2.57-.14-.5 2.65-1.34 5.46-2.42 8.36.75 11.19 3.65 21.49 8.53 30.59.02-.04.03-.07.04-.11 1.15.6 1.78 1.9 1.68 3.13 2.63 4.38 5.75 8.47 9.33 12.21 1.52-3.3 4.41-6.83 5.69-11.42 1.6 1.19 2 3.05 4.76 3.59-2.73 4.47-5.12 6.52-8.29 10.01.8.78 1.63 1.53 2.47 2.26 1.2-1.73 2.52-3.18 3.64-3.99 3.27.56 2.49 7.41 5.81 1.42.11 2.19-1.29 4.88-3.021 7.62.3.23.6.44.91.64 3.16-6.31 6.36-12.45 10.33-13.68-1.1 6.2-3.71 11.16-6.68 16.03 4.189 2.55 8.72 4.79 13.58 6.69 3.97-9.07 7.19-17.82 8.87-24.55 2.32-.08 3.77-5.64 6.42-3.62.26-7.48 6.58-8.71 5.36-14.76-.74 1.29-1.49 2.46-2.57 1.45.62-2.89.91-3.09 2.93-7.92 1.24.45 2.55 1.39 3.33-1.09-3.18-5.8 5.88-12.15 9.19-16.93-1.33-1.02-2.22.75-3.32 1.1 1.66-4.39 4.97-12.46 9.35-11.55-.53 3.15-5.09 2.25-3.4 5.05.95-1.43 2.27-.45 3.32-1.09 1.42-13.82 10.79-29.43 15.15-36.73 1.6-2.69-.3-5.26.36-6.48 1.8-3.27 6.4-4.35 8.03-10.64-.13.74.92-1.81 2.16-4.49.49-1.08 4.44-13.15 8.89-14.41 2.12.44-3.06 8.94-.37 6.47 1.63-4.01 1.38-5.75 4.22-8.65-4.32-1.01-.38-7.15 2.18-8.27-.55 3.97-2.77 8.87-.97 11.52 2.07-7.27 4.91-21.38 11.229-17.3-.76-.38-.02-2.34 1.061-2.16-.271 5.29 2.22 4.31 2.13 8.99.29-17.03 16.46-23.24 13.16-40.32 1.56.43 1.07 2 2.5 2.51 1.71-3.32-.87-4.21 2.18-8.29 1.31.92 2.26-.42 3.56.35 1.08-2.95 2.5-6.11 2.18-8.28-2.021 4.95-4.6 6.25-7.48 5.78 4.66-6.66 2.95-11.81 9.95-16.58-2.85 3.97.68 4.33-2.18 8.29 2.3-.2 4.96 1.92 6.64-2.18-1.03-.71-2.97-.93-2.49-2.51 3.07 2.35 11.01-11.28 14.03-17.3-2.26-2.5-3.46 1.66-5.59.02 1.48-.87 2.72-3.41 3.92-6.13.74 3.13.85 2.3 4 3.23 2.37-3.15-1.76-2.66-.15-5.4 2.8 1.5 4.33-4.94 6.94-4.69-.22-5.93 2.54-6.31 4.14-4.7-.06-5.1 1.45-6.36.45-10.43 2.38-1.08.91.56 3.02 1.43 1.48-5 1.61-4.37 4.45-7.2-.04-2.07-.88-3.68-.92-5.75 2.48-1.2 2.65-4.16 2.8-.01 7.32-11.17.68-19.24 5.26-24.12-5.22-3.35-.62-7.27 3.24-10.44-1-2.29-4.2 1.44-3.02-1.44 3.13-2.18 4.12-4.79 5.49-9.36 2.87.22 1.51 2.82 2.729 3.95-.07-2.99 3.021-5.77 2.41-6.83-1.18 1.35-2.47 2.08-3.85 2.17 1.26-2.54.25-3.8 2.41-6.85.76.36 1.51.72 2.27 1.07.33-11.1 10.34-22.07 8.88-27.72 1.03-3.78 3.06-1.31 4.38-3.24-1.02-.55-1.92-.29-2.79 0-.43-3.5 11.58-13.45 4.21-8.65 2.81-4.96 6.51-5.07 6.26-9-1.46 2.41-3.27 1.55-2.27-1.07.35 2.07 1.99 1.96 3.32-1.1-.79-1.64.01-4.17.38-6.47.63 3.88 3.79-4.33 3.91-6.13-.57.76-1.05 2.12-1.81 1.8.75-2.3 2.05-8.9 4.75-9.72.73 1.16-1.92 4.22-.6 5.04 3.12-3.01 1.33-5.3 2.71-9.37 5.33.48 1.88-12.36 8.07-10.8-7.13 7.28-.21 17.5-8.74 19.81 4.17 2.23-.17 4.64-1.19 10.08 2.98-.11 1 2.56 1.96 3.58 3.04-4.7.67-3.48.6-5.03 1.3-.63 2.17-3.87 3.85-2.17-.51 1.33-1.63 3.01-.82 3.61 1.57-4.75 3.61-6.58 5.94-6.5 1.02-6.49 5.09-9.45 9.8-21.97-.34-2.66-3.06.37-1.96-3.59 10.31-12.41 9.94-28.44 16.94-38.53-1.2-3.3-5.32-.08-2.95-5.39 2.37-2.17 3.54-.68 5.07 1.06 1.85-11.33 9.54-15.56 13.94-26.65-4.24-7.52 9.25-19.4 7.37-28.45-1.39 5.52-4.5 11.99-8.36 13.34-.77-5.37 4.57-18.45 8.89-14.42.2-7.2 8.46-9.5 4.82-13.68 5.36 1.06 11.13-11.21 13.02-18.99-.13.89 1.69-1.38 2.89-4.07 6.43-14.57 16.15-31.63 19.12-46.81 1.24.45 2.56 1.39 3.33-1.09-1.87-1.04-3.8-2.05-2.2-5.03 1.99.08.91 4.19 2.8-.01-.77-1.64-.57-4.45 1.88-5.76.08-2.9-2.51.48-1.74-2.15 1.08-1.97 2.26-3.38 3.62-3.61 1.14.66-.75 3.03 1.21 3.24.31-4.74 1.42-5.36 2.48-10.8-2.49-1.43-1.71 3.67-5.13 2.88zm-33.63-22.58c.79-2.41 1.91-2.61 2.87-3.96-.16 2.14.94 5.1 2.8-.01-.63 4.29-4.8 10.73-7.17 16.56-2.8-4.02 6.08-10.46 1.5-12.59zm-8.28 22.69c-2.65 9-9.16 19.61-13.55 33.49 3.64.69 1.86-5.56 5.19-6.85 2.33 1.57-1.85 6.78-3.23 10.44-3.81.85-2.97-3.33-6.79-3.22 6.84-13.04 9.2-23.18 18.38-33.86zm-19.96 50.41c3.31.49-1.53 5.56-2.18 8.27-1.38-2.61.55-3.25 2.18-8.27zm-6.48 7.56c1.82 1.33 1.17 4.05.38 6.84-.26-1.16-1.14-1.96-2.49-2.51.7-1.44 1.41-2.88 2.11-4.33zm-4.35 29.88c.55.62.58 5.22-1.35 4.68-.49 1.06.51 1.28.98 1.8-2.19 2.83-1.72.68-3.55-.35 1.06-3.57 2.85-2.56 3.92-6.13zm-6.03 10.44c.35.99.71 1.95 1.51.72 1.73.6-1.53 4-1.88 5.77-.84-1.62-1.64-3.27.37-6.49zm-234.77 427.6c1.31 1.61-2.67 6.2-3.46 9.01-2.74-3.72 1.04-4.68 3.46-9.01zm-20.29 26.32c-1.12-2.41.49-4.37 2.41-6.85 3.46 1.51-1.92 3.11-2.41 6.85zm17.09 24.06c-1.28-.79-2.23.56-3.55-.36 1.36-4.66 3.85-2.17 5.2-6.84.73 1.68-1.41 4.98-1.65 7.2zm11-32.05c-8.2 11.96-13.34 23.81-20.73 36.75 1.47.49 2.24-3.44 3.62-3.61 2.27 1.28-1.771 7.29-3.92 6.12.04 3.78.56 4.3 4.23 4.68-9.55 6.39-9.9-1.24-2.81-13.31-1.57.39-2.78 2.95-4.14 4.68-2.64-.61 1.85-5.21.36-6.47.96-1.35 2.35 0 3.55.35 4.36-10.86 4.37-11.82 9.57-23.41 3.58-.08 2.69-5.48 6.72-6.13.75-3.27-3.3 2.48-3.03-1.43 4.33-7.3 6.02-5.58 8.89-14.42-2.05-1.19-2.53 7.51-4.89 4.33 3.63-4.42 4.87-8.66 5.57-13.32 1.92.49 2.81 1.55 3.25 2.87 1.61-2.74.69-4.05-1.44-4.67 1.87-5.88 4.64-5.99 7.24-7.21 2.81 8.4-12.47 25.08-12.04 34.2zm66.36-88.3c-2.77-3.07 1.74-5.58 1.94-9.72 2.52 1.46-1.53 6.62-1.94 9.72zm6.69-19.44c-3.17-5.44 8.87-25.99 13.63-37.45-.37 9.91-11.44 29.02-13.63 37.45zm9.58-10.09c.71-1.44 1.41-2.88 2.11-4.33.76.36 1.51.71 2.27 1.07-1.33 1.92-2.55 4.53-4.38 3.26zm1.88-5.77c-1.87-1.03.27-4.32 1.66-7.19.75.36 1.51.71 2.27 1.07-1.21 2.71-2.43 5.26-3.93 6.12zm9.15 13.65c1.64 5.38-2.42-.12-3.62 3.61-.87-.82.7-3 1.36-4.68 1.02.6 2.05 1.2 2.79-.01.76.61-.11 1.29-.53 1.08zm27.68-41.44c-3.26-.71-3.56-.57-4.77-3.59 2.35-.89 6.86-.93 4.77 3.59zm.36-6.46c-1.11.32-1.99 2.1-3.33 1.07.95-.74 1.87-1.49 1.07-2.15.76-1.09 1.86-.03 2.57-1.46.32.87.68 1.71 1.73 2.17-.87 1.11-2.67 2.1-2.04.37zm19.85-86.41c1.03.61 2.05 1.2 2.79.01 2.19 1.05-1.19 6.95-2.94 7.92-1.73-1.65-1.51-4.38.15-7.93zm-3.46 9c2.39 2.05-2.26 4.24-3.47 9.01-1.29-.77-2.24.57-3.55-.35 2.3-3.2 4.54-6.67 7.02-8.66zm-2.43 64.06c-.87-.82.69-3.01 1.35-4.69-.97-.24-1.59 1.67-2.34 2.89-1.91.36-.95-4.44-3.02-1.43-.66-1.62 4.57-3.22 6.41-3.62-1.61 3.96.79 3.64-2.4 6.85zm3.97-36.72c-2.48-.68.15-4.26.36-6.47.76.36 1.52.71 2.27 1.08-.88 1.8-1.76 3.6-2.63 5.39zm11.92.35c-.51-3.12-1.75-.5-3.09 2.52-2.41-2.75 3.68-6.42 5.5-9.38 1.6.94-1.92 4.75-2.41 6.86zm-3.49-17.63c1.52 5.82 2.19 11.08-4.89 17.64-.79-3.81 5.67-10.05.51-14.39 5.62-8.44 7.97-16.31 11.54-19.81 2.06 5.34-2.49 13.86-7.16 16.56zm15-28.82c-3.23 5.29-5.9 6.59-5.8 11.89-1.26-.6-2.52-1.2-3.79-1.79 3.88-5.45 5.83-14.06 10.79-20.17 1.36 3.8-3.71 6.63-1.2 10.07zm40.09-82.12c-2.7-.32-1.32-2.92-4.01-3.24 2.17-.99 3.47-7.46 6.19-5.04-1.91-2.76 2.97-6.85 5.11-10.51-3.83 6.9-3.57 14.09-7.29 18.79zm4.92 22.3c-1.27-.67-2.35-.12-3.31 1.07-1.58-.93-.31-3.47 1.12-6.11.63 2.62 1.87-.1 2.5 2.52 1.32-1.88 2.15-7.01 4.14-4.69-1.72.91-3.04 4.34-4.45 7.21zm.72-39.58c-2.15 1.23-4.85-1.24-2.19-5.02 2.92 5.4 1.94-5.02 6.41-3.63-2.78 4.11-1.93 3.67-4.22 8.65zm3.74-38.14c-.07-3.36 2.09-4.13 3.46-9.01 2.26 1.17-1.67 7.91-3.46 9.01zm1.45 17.98c-.67-1.45-.3-3.49 1.13-6.11 2.35.83.78 5.11-1.13 6.11zm-.33 46.42c-.79-3.97 1.4-4.51 3.69-7.57.79 3.95-1.4 4.5-3.69 7.57zm7.46-89.61c2.14 2.19-2.31 4.26-2.18 8.28-3.29-.49 1.53-5.56 2.18-8.28zm-.89 20.87c-.78-4.84.4-6.83 2.03-13.67.42 2.15-1.09 8.44 2.49 2.51 2.52 3.03-3.01 7.03-4.52 11.16zm11.27 9.32c2.51-3.57.83-6.02 3.68-7.55 3.86.26-1.06 10.36-3.68 7.55zm3.98-10.08c3.32-1.12 6.1-5.58 9.74-4.7-2.89 3.8-5.8 7.55-9.74 4.7z"
     fill="#576cc0"
     fill-rule="evenodd"
     opacity=".5"
     id="path2125"
     style="fill:#0088aa" /><path
     d="m 448.813,239.74871 h 932.395 V 659.213 H 448.813 Z"
     fill="#fcae1d"
     id="path2127"
     style="stroke-width:1.3059" /><path
     d="M 448.81,239.75212 H 777.98 V 659.20788 H 448.81 Z"
     fill="#fdc93a"
     id="path2129"
     style="stroke-width:1.3059" /><path
     d="m 477.34,241.52212 c -0.2,-0.87 1.25,-1.33 2.85,-1.77 h -31.38 v 8.44 c 2.63,-0.86 2.35,-1.35 5.14,-2.1 -0.91,0.17 -2.83,-0.16 -3.05,0.32 -0.18,-0.87 1.84,-1.27 4.79,-2.04 -0.06,0.02 -0.36,0.39 -0.76,0.46 4.32,-0.74 12.09,-5.63 17.7,-4.03 -1.67,0.41 -3.1,0.89 -3.94,1.53 1.08,-0.59 5.8,-0.8 5.96,-2.32 1.28,-0.46 1.79,-0.17 2.29,0.13 0.01,0.58 0.04,1.15 -1.4,1.37 -0.01,0.6 1.86,-0.64 1.44,0.35 -2.69,0.77 -4.44,0.61 -7.22,1.45 1.08,0.23 2.9,-0.05 5.63,-0.76 -5.72,2.86 -9.58,4.09 -16.41,5.41 0.35,1.05 2.75,0.08 3.39,0.83 -4.56,0.7 -7.15,2.92 -10.28,3.27 -0.05,-0.16 -0.1,-0.31 -0.14,-0.46 -0.34,-0.44 0.46,-0.6 1.12,-0.8 -0.94,-0.49 -2.19,0.73 -1.4,1.37 -1.12,0.31 -1.73,0.75 -2.86,1.06 v 45.5 c 0.05,-0.04 0.1,-0.07 0.17,-0.1 0.75,0.49 4.62,-0.97 3.66,0.26 2.93,-1.19 7.5,-2.22 9.09,-1.21 4.92,-1.9 8.71,-3.64 13.97,-4.51 0.18,0.33 0.1,0.89 0.69,0.81 0.18,-0.6 1.29,-0.97 1.81,-1.48 0.36,0.77 1.12,-0.33 1.39,0.12 -0.57,0.22 -0.33,0.64 -0.63,0.92 0.94,-0.34 1.61,-0.4 2.14,-0.33 0.11,-0.8 -1.51,0.1 -1.16,-0.93 1.04,-0.25 1.18,-0.71 1.95,-1.02 1.85,0.42 3.96,-1.77 7.15,-1.68 -0.04,0.34 -0.47,0.6 -0.15,1.03 1.51,-0.49 1.17,-1.42 2.58,-1.94 0,0.36 -0.57,0.58 -0.63,0.92 1.6,-2.24 7.07,-1.71 8.4,-2.02 -0.47,0.07 -1.11,-0.11 -0.55,-0.35 6.86,-1.36 12.49,-3.42 18.76,-5.05 0.12,0.25 -0.5,0.52 0.13,0.46 2.78,-0.96 16.49,-7.43 14.59,-3.93 0.34,-0.04 0.82,-0.21 0.9,0 -0.48,0.17 -1.19,0.28 -1.18,0.57 1.39,0.02 3.58,-1.33 5.28,-1.92 0.51,0.2 0.89,0.51 1.52,0.59 2.63,-2.46 5.44,-0.5 8.4,-2.02 0.3,0.57 -1.56,0.62 -0.98,1.26 3.74,-3.05 11.42,-3.37 17.24,-5.64 0.31,0.58 -2.4,0.41 -1.47,1.14 4.15,-1.81 12.52,-3.2 17.79,-5.29 -1.07,1.04 1.63,-0.1 1.93,0.47 -3.22,2.53 -7.53,2.18 -12.1,4.75 0.33,0.28 -0.14,1.33 0.75,1.04 0.73,-2.5 6.28,-2.61 9.54,-4.3 0.28,0.31 1.37,-0.16 1.1,0.69 2.86,-2.2 9.35,-3.6 14.52,-4.16 0.95,-1.34 4.13,-0.94 6.12,-2.15 -0.81,0.59 -0.28,1.51 -1.68,1.95 -0.67,-0.47 0.99,-1.34 -0.69,-0.81 -0.06,1.84 -5.79,2.16 -6.75,3.06 1.09,-0.23 -0.46,0.55 0.27,0.92 1.6,-1.11 3.41,-0.86 4.8,-2.03 1.07,0.43 4.44,0.23 2.8,-0.55 1.83,0.63 4.64,-1.1 6.35,-0.43 -4.59,1.04 -5.95,2.53 -9.32,3.5 2.2,0.27 3.19,-0.47 5.14,-0.88 0.11,0.31 -0.05,0.56 -0.22,0.8 6.07,-1.5 10.03,-2.82 14.99,-2.55 -0.01,-0.28 -0.26,-0.63 0.22,-0.8 2.95,0.23 7.81,-1.51 10.55,-2.35 -0.52,0.11 -1.01,0.2 -0.96,-0.23 1.82,-0.51 3.93,-1.29 4.36,-0.43 0.94,-0.35 0.11,-1.12 1.4,-1.38 1.44,0.17 2.28,0.93 3.87,0.95 -1.57,-0.55 5.26,-2.89 3.82,-0.78 2.65,-0.55 3.87,-1.62 6.04,-0.88 0.64,-0.63 1.14,-1.3 2.16,-1.83 -0.91,-2.13 -0.11,-2.63 -0.79,-4.26 -2.08,1.09 -3.62,1.8 -4.78,0.54 -0.29,0.74 -3.64,1.61 -4.59,1.24 -2.42,2.22 -6.89,1.3 -11.32,2.8 -0.08,-1.18 -1.46,0.1 -2.41,-0.59 1.47,-0.5 2.7,-1.05 4.03,-1.58 -0.39,0.87 0.33,0.87 1.23,1.15 0.39,-0.83 2.56,-1.23 3.34,-0.9 0.21,-1.09 -1.88,0.07 -2.35,-0.36 1.51,-0.77 3.42,-1.44 4.73,-2.27 1.17,1.07 4.23,0.17 6.03,-0.88 0.99,0.32 1.01,0.4 0.34,1.16 3.56,-2.05 8.39,-3.01 11.32,-2.81 0.62,-1.98 4.62,-0.67 5.83,-1.57 -0.63,0.03 -1.11,-0.08 -1.45,-0.35 1.33,-0.18 1.12,-0.73 2.44,-0.91 0.16,0.93 1.79,0.42 2.83,0.48 0.28,-0.54 -1.47,-0.43 -0.27,-0.92 3.6,-0.7 4.98,-0.87 7.44,-2.25 0.58,0.65 0.42,1.4 2.91,0.71 -0.15,-0.4 -0.12,-0.75 0.14,-1.04 1.37,-0.18 2.64,-0.16 3.71,-1.21 0.75,0.91 -1.34,1.49 -2.61,1.91 2.74,-0.64 5.08,1.43 5.69,-0.54 4.29,-0.55 7.35,-0.36 11.92,-0.73 0,0.36 -0.57,0.58 -0.63,0.92 2.34,-0.11 3.18,-2.13 3.82,-0.78 -2.03,0.58 -4.52,1.04 -5.29,1.92 0.79,-0.18 1.44,-0.22 1.81,0.01 -2,-0.05 -0.13,1 -3.62,1.47 0.59,0.79 -1.02,1.04 -0.85,1.73 1.1,0.1 2.86,-0.44 3.6,0.02 -3.04,1.54 -5.09,1.91 -7.22,1.45 0.57,-0.29 2.23,-0.31 2.02,-0.8 -2.27,0.75 1.23,-1.21 -1.04,-0.46 -0.96,1.28 -2.43,1.71 -3.76,2.5 0.57,-1.16 -1.72,1.13 -2.7,-0.01 -0.66,0.41 -0.62,0.99 -1.4,1.37 -3.66,-0.6 -9.93,1.29 -13.39,1.87 0.69,0.1 1.92,-0.31 1.93,0.47 -0.41,0.11 -0.44,0.32 -0.76,0.45 -1.58,-0.68 -4.04,1.22 -4.92,0.09 -2.14,0.6 -2,0.79 -3.4,0.67 -0.229,0.6 0.53,1.01 -1.82,1.48 -0.01,-0.5 1,-0.76 0.98,-1.26 -3.31,0.79 -9.01,3.26 -11.39,2.57 -4.4,5.01 -14.35,2.34 -18,6.1 -0.09,-0.31 -0.79,-0.02 -0.96,-0.24 1.12,-0.15 1.47,-0.5 1.05,-1.03 -2.1,0.64 -2.06,0.53 -5.14,0.89 0.99,1.1 4.17,0.06 5.6,0.72 -0.77,0.67 -3.01,0.98 -4.52,1.47 0.74,0.53 4.49,-0.46 5.62,-0.77 0.06,-0.01 0.01,-0.8 0.64,-0.91 0.59,-0.11 1.26,0.35 1.87,0.24 2.84,-0.53 6.58,-2.78 8.46,-1.78 -1.51,0.26 -2.09,0.77 -2.3,1.36 6.83,-2.39 11.31,-2.86 19.17,-5.17 0.07,0.23 -0.25,0.37 -0.28,0.58 2.57,-1.25 5.8,-1.19 8.55,-3.06 0,0.36 -0.57,0.58 -0.63,0.92 1.69,-0.65 3,-1.41 4.32,-2.16 -0.72,0.8 1.61,0.39 2.06,0.94 -0.21,-0.48 0.14,-0.83 1.06,-1.03 1.01,0.08 -0.37,0.7 0.61,0.58 2.07,-0.85 4.47,-1.62 5.99,-2.61 0.14,0.42 -1.91,1.36 -0.5,1.38 2.27,-1.9 9.76,-2.12 12.29,-2.57 -1.31,0.05 1.08,-1.08 1.59,-0.68 0.39,-0.72 -1.85,-0.27 -0.67,-0.81 0.82,0.76 3.38,-0.64 3.95,-0.32 0.88,0.65 -1.38,0.52 -1.05,1.03 1.84,0.07 3.9,-0.08 6.16,-0.42 -3.62,2.06 -11.83,2.32 -16.81,5.53 0.5,0.45 1.77,-0.68 2.43,-0.91 0.71,1.45 1.48,-0.26 2.7,0.02 -0.51,2.15 -4.51,1.08 -6.12,2.15 0.52,-0.11 1.01,-0.2 0.97,0.24 -0.42,0.11 -0.44,0.32 -0.77,0.45 -2.65,0.55 -7.5,0.95 -7.43,2.25 -2.07,0.44 -4.12,-0.7 -5.76,0.31 2.29,-0.16 4.43,-0.19 5.61,0.73 0.06,0.33 -2.96,0.95 -1.53,0.91 2.811,-1.56 3.98,-1.75 6.88,-2.6 -0.42,-0.29 -2.02,0.6 -1.87,-0.24 1.28,-0.27 3.17,-1.13 3.47,-0.44 -1.1,0.69 0.98,1.04 1.03,0.46 -1.19,0.1 0.11,-0.94 0.57,-1.14 0.18,0.32 1.07,-0.06 1.74,-0.22 0.08,0.41 0.3,0.69 0.68,0.81 1.3,-0.33 1.91,-0.82 2.78,-1.25 5.67,-0.16 12.4,-4.61 17.68,-5.27 0.86,-0.92 3.13,-0.89 2.83,-1.5 0.53,0.09 2.92,-0.14 2.98,-0.55 -0.37,-0.34 -1.97,0.55 -2.22,0.1 0.01,-0.29 0.36,-0.49 0.7,-0.69 1.28,0.33 1.37,-0.03 2.51,-0.67 0.47,0.12 0.95,0.24 1.44,0.35 2.5,-1.04 3.65,-1.27 6.12,-2.14 0.11,0.31 -0.04,0.55 -0.21,0.8 1.04,-0.53 2.05,-0.81 2.98,-0.56 -1.14,0.58 -1.91,1.25 -2.58,1.94 1.72,-0.86 4.73,-1.41 5.08,-2.61 -0.78,0.06 -1.53,1.14 -2.08,0.56 1.22,-0.56 2.25,-1.16 3.07,-1.82 0.06,0.43 0.57,0.43 1.38,0.12 -0.76,0.83 0.85,1.15 1.72,1.28 0.03,-0.92 -1.16,-0.64 -1.31,-1.39 2,-0.32 0.34,-0.48 1.13,-0.8 2.1,-0.67 2.61,0.21 4.43,-0.2 -0.28,0.86 -1.93,1.39 -2.52,2.17 2.39,-0.48 2.32,-1.57 4.32,-2.15 0.12,0.59 -0.58,0.93 0.68,0.8 2.22,-2.13 7.7,-3.09 10.92,-4.18 -0.72,-0.42 -1.14,0.75 -1.73,0.22 0.01,-0.36 0.84,-0.51 1.12,-0.8 0.39,0.5 1.75,0.06 1.65,1.04 2.1,-1.45 4.84,-1.43 7.78,-2.59 0.49,0.24 1.51,1.45 2.36,0.36 -0.52,0.11 -1.01,0.2 -0.97,-0.24 1.69,-0.69 2.92,-1.02 5.771,-1.8 0.729,1.55 4.13,0.49 6.08,0.85 0.83,-0.58 -0.69,-0.42 0.22,-0.81 3.44,-0.01 5.74,-0.47 9.13,-1.09 v -0.17 H 481.56 c -0.46,0.98 -2.8,1.43 -4.22,1.77 z m -18.16,0.92 c -3.07,0.68 -4.72,1.7 -7.37,2.48 3.1,-1.88 4.76,-2.35 8.35,-3.74 -0.04,0.49 -1.9,0.53 -0.98,1.26 z m -9.79,56.08 c 2.02,-0.8 3.96,-1.42 6.67,-1.79 -2.02,1.13 -4.33,1.55 -6.67,1.79 z m 183.92,-39.87 c -0.04,0.43 0.45,0.35 0.96,0.24 -0.66,0.8 -1.74,-0.27 -2.91,0.78 -0.01,-0.28 -0.22,-0.38 -0.55,-0.35 0.8,-0.73 0.91,0.29 2.5,-0.67 z m 38.8,-1.01 c 0.48,-0.51 1.97,-1.24 2.85,-1.02 -0.03,0.57 -2.03,0.65 -2.85,1.02 z m 20.12,-9.65 c 0.26,-0.29 0.3,-0.64 0.15,-1.03 1.23,-0.52 0.98,0.41 2.22,-0.1 0.12,0.6 -1.27,0.83 -2.37,1.13 z m 20.59,-8.03 c 0.17,0.4 -0.37,0.62 -0.15,1.03 -1.09,-0.28 -1.61,0.52 -2.92,0.79 -0.22,-0.91 1.57,-1.33 3.07,-1.82 z m -21.73,18.03 c -0.27,0.51 -1.16,0.86 -2.37,1.14 0.15,-0.59 1.74,-1.3 2.37,-1.14 z m -0.65,2.42 c -0.59,-0.81 1.74,-1.43 1.67,-0.45 -0.56,0.14 -1.11,0.3 -1.67,0.45 z m 8.48,-3.29 c -2.12,0.53 -3.92,0.08 -5.55,1 -0.46,-0.24 -0.59,-0.8 -1.87,-0.24 2.03,-1.69 6.13,-1.52 8.27,-2.48 -0.62,0.49 -0.91,1.07 -0.85,1.72 z m 9.66,-16.27 c -0.25,0.67 0.01,0.53 -0.02,1.49 -2.14,-0.22 -6.29,0.4 -6.73,1.57 -0.75,0.14 -1.06,-0.14 -1.1,-0.7 -1.16,0.53 -0.37,0.47 -0.15,1.04 -1.23,0.22 -1.27,-0.73 -2.42,-0.59 3.31,-1.64 6.47,-1.03 10.42,-2.81 z m -10.35,3.04 c -1.53,1.02 -3.46,0.68 -5.35,1.69 -0.07,-0.23 -0.14,-0.46 -0.2,-0.69 1.88,-1.09 3.15,-0.67 5.55,-1 z m -8.79,-0.87 c -1.5,-0.27 -2.47,0.1 -3.95,0.32 0.66,-0.62 4.41,-1.76 3.95,-0.32 z m -12.07,1.77 c 0.66,0.03 1.66,-0.26 1.51,0.58 -0.8,0.12 -0.59,-0.76 -1.79,-0.27 0.1,-0.09 0.19,-0.2 0.28,-0.31 z m -4.5,1.64 c -0.79,0.23 -1.15,1 -1.62,0.5 0.55,-0.26 1.09,-0.4 1.62,-0.5 z m -50.01,18.02 c -0.47,0.44 -1.46,0.71 -2.09,0.56 -0.31,-0.73 2,-1.65 2.09,-0.56 z m -2.16,-5.88 c 0.6,0 0.92,0.28 1.1,0.7 -0.42,0.32 -1.03,0.6 -2.021,0.79 -0.4,-0.67 0.95,-0.91 0.92,-1.49 z m -4.3,0.66 c 0.24,0.15 0.48,0.31 0.97,0.23 0.12,0.61 -1.54,0.77 -1.4,1.38 -0.49,0.08 -0.3,-0.17 -0.07,-0.23 -0.06,-0.64 -1.67,0.25 -1.52,-0.59 1.03,-0.17 0.78,-0.66 2.02,-0.79 z m -2.44,0.9 c 0.34,0.71 -1.58,1.33 -2.36,1.14 -0.12,-0.6 1.26,-0.83 2.36,-1.14 z m -3.28,2.63 c -0.19,1.05 -1.6,0.6 -2.15,0.33 -0.08,-0.45 1.61,-0.23 2.15,-0.33 z m -0.03,2.99 c -0.07,0.61 -1.33,1.39 -2.37,1.14 0.271,-0.51 1.16,-0.86 2.37,-1.14 z m -6.25,1.69 c 0.78,-0.66 1.8,-0.93 2.85,-1.02 -0.16,1.01 -1.42,0.42 -2.85,1.02 z m -11.89,-2.27 c 0.06,0.8 -3.4,1.58 -3.41,0.67 1.62,-0.03 2.01,-0.58 3.41,-0.67 z m -10.21,2.01 c 1.33,-0.42 1.89,-0.07 3.4,-0.67 0.03,0.77 -2.63,1.6 -3.61,1.47 -0.23,-0.34 0.28,-0.5 0.21,-0.8 z m -39.49,7.91 c -0.23,0.53 -1.65,1.11 -2.44,0.9 -0.63,-0.75 2.08,-1.01 2.44,-0.9 z m -9.31,2.01 c 2.81,-0.23 3.5,-0.41 5.97,-1.11 -0.66,1.05 -4.03,1.44 -6.12,2.14 0.6,-0.67 -0.44,-0.37 0.15,-1.03 z m -52.16,13.81 c -0.66,-0.66 1.19,-0.71 1.94,-1.02 0.53,0.71 -1.22,1.21 -1.94,1.02 z m 223.97,-35.01 c -0.04,0 -0.07,0.01 -0.11,0.02 -0.02,0.01 -0.03,0.02 -0.03,0.03 0.05,-0.02 0.09,-0.04 0.14,-0.05 z m -0.35,0.34 c 0.05,-0.11 0.12,-0.2 0.2,-0.29 -0.18,0.07 -0.3,0.15 -0.2,0.29 z m -256.15,-3.93 v 0.38 c 0.33,-0.11 0.72,-0.21 1.12,-0.3 -0.33,-0.14 -0.71,-0.16 -1.12,-0.08 z m 0,47.33 v 0.4 c 0.18,0 0.36,0 0.56,-0.02 0.05,-0.36 -0.25,-0.38 -0.56,-0.38 z"
     fill="#fcae1d"
     fill-rule="evenodd"
     id="path2131" /><path
     d="m 1009.937,239.75212 v 120.09514 l 42.703,-28.7045 43.82,29.18936 28.72,-44.37788 21.145,37.23114 V 239.75212 Z"
     fill="#fbf8f2"
     id="path2139"
     style="stroke-width:1.10652" /><path
     d="m422.977 1723.957c0-76.022-51.417-140.024-121.369-159.157v-5.803h-40.467c-1.053-.02-2.106-.04-3.164-.04s-2.111.02-3.164.04h-.465v.006c-89.45 1.931-161.371 75.041-161.371 164.954s71.921 163.023 161.371 164.954v.046h47.26v-5.843c69.952-19.133 121.369-83.135 121.369-159.157z"
     fill="#576cc0"
     id="path2147"
     style="fill:#006680" /><circle
     cx="297.977"
     cy="1723.957"
     fill="#7584d7"
     r="165"
     id="circle2149"
     style="fill:#0088aa" /><path
     d="m1762.15 1373.05-16.96 113.87-16.36 109.83c-15.33 102.9-103.68 179.06-207.71 179.06h-1185.31c-89.02 0-170.04-51.36-208.02-131.87l-88.6-187.81c-4.91-10.42-9.38-21.02-13.37-31.77-.32-.82-.62-1.65-.91-2.47-.21-.55-.41-1.1-.61-1.65-4.81-13.34-8.92-26.91-12.3-40.65-.22-.84-.43-1.69-.62-2.53-.33-1.34-.64-2.67-.95-4.01z"
     fill="#91a0e2"
     id="path2151"
     style="fill:#00aad4" /><path
     d="m886.06 1438.4c.51.04 1.03.07 1.52.12-.42-.07-.93-.11-1.52-.12zm733.29 53.77c.2-.31.43-.58.69-.82-.52.09-.9.28-.69.82zm.81-.92c-.04.03-.08.07-.12.1.15-.02.31-.04.47-.06-.12-.02-.23-.03-.35-.04zm-1609.73-118.2c.31 1.34.62 2.67.95 4.01 1.62-.63 4.04-.77 6.63-.8-.39 2.11-3.51 2.53-6.01 3.33 3.38 13.74 7.49 27.31 12.3 40.65 3.3-2.78 10.38-1.8 12.01 1.19-1.6.09-1.03 1.52-2.32 1.78-2.03-1.08-5.46-1.44-9.08-1.32.29.82.59 1.65.91 2.47 5.12.06 10.13-.15 14.17-1.42-1.41-.07-3.38.29-3.65-.68 3.53.06 3.58-2.05 7.12-2 .87 1.79-3.25 2.81 1.34 2.45 1.56-.91 2.23-2.37 4.66-2.72 7.96 2.11 20.11 2.93 27.73.37 11.27 6.44 33.97-3.58 36.56 7.49 9.6-2.34 19.45-3.12 28.92.33 2.27-.21.68-2.81 3.46-2.68 9.88 4.61 24.25-3.38 36.04-1.68-.57 3.36-12.08-.24-8.22 3.73 16.93-4.07 31.27 2.04 44.65 1.25-.34 1.95-5.22 1.05-4.63 3.57 3.73-.38 11.92.77 16.82-.78.45 1.11 1.81 1.51 1.4 3.27 8.8-2.37 16.66.92 26.62 2.11 1.54-1.98-3.28-2.99-.2-3.35 2.4-.1 4.8-.21 7.21-.33-1.5 1.19-1.4 3.19 1.4 3.29 10.19-1.89 22.95-.27 32.29-4.02-3.43 3.26 3.15.62 3.64.66.19.02-.1 1.64.09 1.67 18.47 3.11 55.04-6.64 63.71-2.14-2.14-1.85 5.03-5.59 9.47-2.95 1 2.23-2.28 1.78-2.21 3.45 29-2.86 60.99-2.39 94.88-4.44-.94-.15-2.37.09-2.45-.72 15.96.36 22.82 2.4 36.14-.02 12.06.84 34.48-1.17 40.88-1.07-1.1-.45-6.96-1.43-3.75-2.34 13.17 4.82 24.28 4.16 42.33 3.04 1.58 3.91 14.56 3.42 14.41-.67-3.91-.3-6.02.53-7.1 2-1.59-1.09-6.35.25-5.01-3.11 6.14-.23 25.25-2.03 15.77 1.77 18.45-3.88 24.47 2.02 40.88-1.07 3.43 7.93 25.58.24 24.35 4.72 4.32-2.27 11.16-2.18 15.73.93-10.26 2.64-17.53 1.39-23.88 3.63 3.97-.45 7.39-.46 8.51 1.28 5.19-2.99 10.55-2.83 15.62-.73-.41-3.71 4.83-.73 5.99-.28 1.33-2.78-3.92-.46-2.59-3.23 7.76-1.76 17.38-.94 25.37 1.32-2.23.22-3.98.75-4.71 1.9 6.63-1.54 14.43 2.59 15.52-2.4-2.52-.38-7.83 1.4-8.46-.44 8.6-1.84 14.95-1.11 20.52.71-1.58-.03-8.7.28-4.76 1.07 5.63.55 7.19-1.43 10.72-2.18 12.43 5.51 21.09 2.96 33.97 4.26 1.48-3.09 8.74-2.59 14.26-3.17.02 1.16.67 1.8 1.35 2.45.48 2.17-4.63.87-3.41 3.51 4.89 0 15.71-1.88 22.97 1.43 2.92-1.86 17.32-4.46 19.31.77-8.35 1.14-15.67 2.43-20.41.96-1.15 2.87-24.84-.44-22.63 4.4-1.11-1.17-1.95-2.56-4.95-2.27-1.66 1.39-5.32 2.75-8.12 5.39.26-5.99-7.03 3.14-8.54-2.11-3.91-.55-2.37 2.28-4.68 2.73-3.27-.66-4.82-2.66-8.59-2.95-26.97 7.65-58.32 1.6-85.23 4.83 6.1.53 13.71-.13 17.01 2.55-2.1.32-6.13-2.07-7.21.33 2.15.67 6.01.01 7.3 1.34-6.4 1.72-10.97-2.51-13.3-1.05 6.94.1-.14 3.15.19 3.34 2.43 1.3 5.95-1.13 9.76 2.05.18-1.59-1.46-1.78-1.4-3.28 2.47.13 2.48 2.15 4.96 2.28 16.24-9.28 42.71-2.62 62.16-7.93 1.27 4.25 5.38 1.8 4.8-.23 5.5 1.02 6.43 2.75 8.7 4.62 4.67-5.84 19.63-.36 26.23-4.57 7.65 4.7 24.15-1.85 32.43-1.52-.95-.14-1.43-.63-1.29-1.62 4.229-.55 6.76-1.6 9.65.39-2.72 2.17-2.31-1.14-6.05-.55 8.96 5.55 22.51.26 35.02 1.71 1.8-1.3 4.58-1.98 7.06-2.85 2.36 2.24 9.02 1.18 14.52 1 .77-2.46 2.72-4.19 8.21-3.73-6.49-5.48-17.72-3.45-25.43-2.16 4.03-3.36-2.66-3.64 2.07-5.95 3.39 4.11 19.67.92 26.25 1.08-1.88-.15-3.62-.41-3.43-2.15 3.62-.2 10.16-2.73 13.21-.62-6.06-.31-4.51 3.17-8.41.39 2.43 2.49 5.43 4.52 9.94 5.4.75-2.62-4.18-.83-2.64-4.06 1.22-.05 1.4-.75 2.36-.95 1.76 2.229 13.17.3 9.84 3.72 8.67-1.77 21.72-1.68 25.48 3 14.49-2.63 25.85-5.57 40.69-4.42.28 1.24-.25 3.1 1.4 3.28.84-1.89 4.07-2.28 5.81-3.61.52 2.89 3.24-.23 3.7 1.5-1.68.29-1.271 1.89-2.25 2.61 2.76-.4 4.62-.08 6.04.56.76-2.62-4.19-.83-2.64-4.06 2.99-.02 3.64-1.49 5.91-1.95 4.81 2.87 11.81-2.91 20.47-.12-.32 1.14-1.63 1.66-1.01 3.39 4.39-.48 4.03-3.92 8.16-4.57-.22 1.21-1.89 1.51-2.26 2.61 5.66-6.32 20.24-.28 24.07-.28-1.32-.15-2.96-1.24-1.3-1.61 19.5.7 36.03-1.88 54.06-2.53.18.93-1.67 1.38.09 1.66 8.12-1.08 49.25-12.36 42.05-1.96.93.15 2.36-.08 2.44.72-1.4.2-3.41.02-3.54 1 3.78 1.14 10.52-1.71 15.51-2.39 1.26 1.06 2.12 2.42 3.79 3.17 8.59-6.27 15.12 2.57 24.07-.28.49 2.17-4.62.86-3.4 3.49 11.96-7.41 33.08-2.51 50.25-5.69.51 2.2-6.78-.47-4.66 2.73 12.37-2.9 35.96-1.09 51.55-4.09-3.52 2.71 4.5.95 5 3.11-10.25 6.08-21.8 1.53-35.75 6.7.73 1.18-1.14 4.38 1.46 4.11 3.44-7.93 18.61-3.96 28.48-7.18.59 1.29 3.82.53 2.6 3.22 9.06-5.26 27.56-4.92 41.99-2.8 3.35-3.82 11.79.01 17.91-2.51-2.53 1.36-1.64 4.88-5.71 5.3-1.53-2.13 3.5-3.78-1.39-3.29-1.23 6.2-17.04 2.8-20.18 5.12 3.1.06-1.57 1.51.19 3.34 5.03-2.54 9.81-.28 14.26-3.17 2.69 2.3 12.02 4.26 7.92.3 4.61 3.6 13.33-.1 17.61 3.52-13.11-.06-17.69 3.97-27.44 4.62 5.83 2.63 8.97.89 14.51 1 .12 1.15-.46 1.86-1.05 2.56 17.42-.35 28.97-1.74 42.33 3.05.13-.99-.35-2.36 1.06-2.55 7.89 3.08 22.16.95 30.13.25-1.48-.03-2.87-.12-2.51-1.55 5.26-.29 11.48-1.31 12.16 1.94 2.75-.44.93-3.71 4.61-3.56 3.82 1.69 5.65 4.92 9.99 6.23-3.96-3.09 16-5.72 10.86.32 7.53.2 11.48-2.47 16.97 1.72 2.12-1.63 3.86-3.5 6.95-4.51-1.25-7.96 1.23-9.02.33-15.08-6.3 2.08-10.92 3.29-13.36-1.88-1.2 2.29-10.86 2.61-13.21.61-7.89 5.64-19.54-.96-32.47.69.45-4.07-4.07-.8-6.25-3.9 4.31-.52 7.98-1.45 11.91-2.23-1.58 2.67.38 3.23 2.69 4.89 1.53-2.53 7.69-2.19 9.61-.44 1.23-3.56-5.14-1.25-6.19-3.06 4.57-1.43 10.15-2.24 14.21-4.01 2.58 4.54 11.44 3.86 16.96 1.72 2.49 1.83 2.5 2.12.24 4.17 10.9-4.16 24.62-3.64 32.48-.69 2.85-6.24 12.97 1.32 16.81-.78-1.74-.38-3-1.16-3.74-2.34 3.71.43 3.44-1.59 7.15-1.16-.09 3.26 4.65 2.8 7.45 3.82 1.061-1.6-3.75-2.61-.2-3.33 10.2.44 14.07.93 21.58-1.85 1.2 2.69.33 5.1 7.5 4.68-.18-1.45.11-2.62 1.01-3.39-.07-.02-.14-.04-.21-.06 3.93.45 7.43 1.63 11.01-1.18 1.55 3.7-4.48 4.03-8.18 4.46 7.81 0 12.97 8.79 15.79 2.61 12.01 1.46 20.23 4.52 32.9 6.82-.21 1.21-1.88 1.51-2.24 2.62 6.42 1.44 9.89-4.73 10.86.33-5.86.37-12.93-.01-15.52 2.4 2.24.01 4.04.36 4.9 1.44-5.4-1.71-.93 3.28-10.71 2.18 1.15 3.13-3.37 2.72-3.32 5.18 2.95 1.2 8.06.75 9.81 2.89-9.2 2.86-14.98 2.53-20.52-.72 1.72-.54 6.26.68 5.96-1.12-6.61.77 4.05-3.15-2.55-2.39-3.38 3.59-7.64 3.9-11.72 5.57 2.24-3.48-5.33 2.5-7.35-2.17-2.02.9-2.26 2.89-4.61 3.56-9.62-4.87-27.82-3.35-37.58-4.09 1.84.9 5.42.46 5 3.11-1.2.06-1.39.74-2.35.95-3.91-3.57-11.72.979-13.46-3.56-6.17.36-5.89 1.13-9.65-.38-.98 1.89.86 3.87-5.81 3.61.25-1.71 3.15-1.78 3.41-3.5-9.49.11-26.46 4.02-32.54-.16-14.9 13.58-40.47-3.26-52.6 6.65-.07-1.1-2.14-.67-2.49-1.56 3.15.35 4.3-.54 3.46-2.67-6.08.54-5.9.18-14.52-1 2.05 4.52 11.34 3.46 14.86 6.84-2.49 1.67-8.77.98-13.17 1.45 1.69 2.36 12.49 1.94 15.76 1.77.15 0 .49-2.72 2.26-2.61 1.67.11 3.22 2.2 4.95 2.29 8.07.42 19.56-4.31 24.11.54-4.27-.26-6.15.99-7.05 2.83 19.98-2.79 32.47-.88 55.24-2.58.06.84-.9 1.05-1.1 1.73 7.71-2.25 16.49.5 25.08-3.69-.22 1.21-1.9 1.51-2.26 2.62 4.99-.9 8.98-2.44 13.02-3.95-2.42 2.12 4.17 2.58 5.09 4.78-.32-1.81.83-2.69 3.47-2.67 2.72 1.08-1.41 2.11 1.34 2.45 6.12-1.28 13.11-2.02 17.82-4.19.16 1.53-5.99 3.12-2.16 4.29 7.3-4.67 27.83.43 34.98.87-3.61-.85 3.59-2.83 4.75-1.06 1.48-2.16-4.9-2.38-1.38-3.28 1.8 3.21 9.58.46 10.95 2 2.04 2.88-4.05.69-3.46 2.68 4.98 1.66 10.69 2.78 17.05 3.39-11.06 4.15-33.61-1.38-49.04 5.63 1.13 1.91 5.22-.94 7.15-1.17 1.12 5.46 4.2.26 7.36 2.17-2.64 6.89-12.92.14-17.93 2.51 1.47.02 2.86.11 2.51 1.55-1.21.06-1.39.75-2.36.95-7.54-.19-21-2.62-21.57 1.84-5.89-.12-10.8-5.57-15.85-3.43 6.31 1.22 12.18 2.79 14.85 6.83-.04 1.17-8.61.92-4.71 1.89 8.58-3.1 11.88-2.8 20.27-3.45-.96-1.3-5.87.46-4.95-2.28 3.65.09 9.29-1.36 9.71 1.22-3.41 1.5 2.06 4.29 2.54 2.38-3.3-.59.83-3.11 2.21-3.44.3 1.22 2.95.63 4.86.61 0 1.46.42 2.58 1.39 3.27 3.73-.08 5.69-1.29 8.31-2.05 15.52 3.87 36.42-5.95 51.21-4.12 2.94-2.42 9.09-.59 8.61-2.86 1.4.73 8.04 1.81 8.45.44-.81-1.42-5.69.33-6.1-1.39.19-.95 1.25-1.36 2.3-1.78 3.27 2.12 3.75.96 7.21-.34 1.22.8 2.47 1.58 3.74 2.33 7.42-1.59 10.69-1.46 17.92-2.5.12 1.14-.45 1.86-1.04 2.55 3.14-.99 6.06-1.15 8.45.45-3.44 1.06-5.95 2.73-8.16 4.56 5.19-1.59 13.72-1.11 15.36-4.9-2.17-.39-4.84 2.67-6 .28 3.65-.95 6.81-2.19 9.42-3.78-.08 1.5 1.3 1.89 3.68 1.49-2.53 2.23 1.66 4.53 3.96 5.67.62-3.08-2.79-3.07-2.75-5.72 5.62.45 1.18-1.37 3.52-1.84 6.11-.66 6.99 2.72 12.2 2.77-1.26 2.71-6.06 3.21-8.12 5.4 6.79.21 7.22-3.54 13.02-3.95-.02 2.1-2.14 2.72 1.39 3.28 7.29-5.5 22.78-4.51 32.19-5.69-1.72-1.97-3.54 1.67-4.85-.61.24-1.19 2.58-1.07 3.51-1.84.77 2.01 4.74 1.56 3.89 4.84 1.05-.53 2.13-.91 3.23-1.19l16.96-113.87zm210.46 53.97c-1.9-.13-6.75-.63-8.41.4-4.71-1.11 9.57-3.99 8.41-.4zm36.18.82c-6.21-.38-9.07 1.33-13.11 2.29-1.15-1.67 6.01-1.94 2.25-2.61.84-1.15 11.62-2.65 10.86.32zm391.43.11c3.68-3.73 8.5-1.77 15.46-3.23-2.98 2.16-10.39 4.95-15.46 3.23zm156.92 6.05c-3.64.78-4.43-.64-7.26-.5.86-1.92 7.89-3.13 7.26.5zm-16 14.97c2.52-2.44 8.58-.27 12.02-.56-2.06 2.1-9.38.91-12.02.56zm46.5-8.03c2.77.28 6.24 1.37 8.42-.39 3 .81-8.97 5.57-8.42.39zm17.32 7.56c-2.92.66-7.939-.11-12.07-.27-.34-3.43 9.39-.59 10.67-3.01 4.23.03-1.95 3.8 1.4 3.28zm45.05-12.15c5.95-1.13 11.61-1.74 19.21-.9-6.14 2.27-12.7 1.91-19.21.9zm91.48-.93c-1.4-2.75 3.66-1.47 5.9-1.95 1.02 2.85-4.03 3.19-5.9 1.95zm149.17-2.79c2.01-1.8-.98-1.59 1.01-3.39 7.78 1.41 9.77 1.35 16.91.88-2.39 3.06-11.81 1.75-17.92 2.51zm20.38-1.79c-1.29-3.02 6.24-1.81 7.15-1.17-.92 1.65-5.14 2.5-7.15 1.17zm118.33 5.34c-.41-1.33 1.07-1.48 1.06-2.55 3.86-.37 5.17 1.23 9.65.37-.38 2.66-8.1 3.41-10.71 2.18zm20.37-1.79c4.42 1.15 5.82-.41 9.66.39-.28 2.77-10.16 2.7-9.66-.39zm124.64 10.09c-.35 1.42 1.03 1.52 2.5 1.55-2.28 2.19-4.58-2.27-8.39.39.13-.98-.37-1.48-1.31-1.61 2.6-1.86 2.34 1.67 7.2-.33zm-83.88 7.26c2.51-1.62 5.44-1.73 8.36-1.23-1.02 3.3-4.12.32-8.36 1.23zm10.91 1.16c1.02-1.5 3.65-2.02 7.11-2.01-.54 2.01-4.44 3.69-7.11 2.01zm2.87-12.69c.03-1.59 4.52.46 6.05.56-1.13 3.4-4.71.77-6.05-.56zm9.42-3.78c.01-2.14 3.93-1.84 7.11-2.01.49 2.66-5.09 3.28-7.11 2.01zm12.15 1.94c-1.37-.1-.71-.8-.04-.84.22-2.21-4.7-.44-3.8-3.16 2.9.2 2.51-1.66 5.96-1.12.57.71 1.13 1.43 2.5 1.55 0 2.16-4.62 1.42-4.62 3.57zm10.69 17.91c-.45-2.73 6.39-4.06 6-.28-1.52 1.14-4.37 1.27-6 .28zm.18-17.58c-.72-2.6 3.09-2.36 3.35-4.35 1.65.48 2.34 1.69 2.6 3.23-1.34.76-3.15 1.25-5.95 1.12zm147.87-4.41c1.67-.47 3.24-.53 4.75-.42-2.3.13-3.76 2.48-4.75.42zm21.72.66c-2.28-.23-1.19-3.07-4.73-2.32.31-.25.62-.53.93-.85 1.79.65 4.69.44 3.8 3.17zm30.13.26c-3.93-2.08-6.79-1.6-10.96-1.99 2.15-1.61 13.04-2.56 10.96 1.99zm-55.71 36.08c1.6-1.35 6.07-2.66 8.36-1.23-.41 1.9-5.9.62-8.36 1.23zm60.44-17.05c.88-.79 1.17-1.94.99-3.39 3.67-.8 2.45 2.18 6.11 1.39-.01 2.13-3.93 1.84-7.1 2zm-16.04 35.06c.75-1.89 5.49-3.04 7.12-2-1.02 1.51-3.66 2.01-7.12 2zm8.75 5.45c-1.59.07-3.2.15-4.8.23-1.13-3.18 5.56-3.49 4.8-.23zm20.22-4.3c-6.08.13-10.73-2.78-15.7-.94-1.12-1.16-1.15-3.18-4.96-2.27 6.51-4.16 17.59-.39 23.98-1.96-1.99 1.17-3.1 2.9-3.32 5.17zm-9.78-43.88c-.05-.84-.09-1.68-.14-2.51 5.75-2.22 8.97.2 15.7.94-4.76 2.29-9.82-.37-15.56 1.57zm44.64 1.25c-5.729-2.43-17.38-3.57-19.26.07-2.14-.11-2.82-1.31-2.61-3.229-3.45.89-1.27 1.31-1 3.39-3.49-.21-3.04-3.46-6.25-3.88 9.96-2.98 18.23 1.55 30.03-1.41-1.08 2.09-.3 1.8-.91 5.06zm11.96-1.39c-2.79-1.81-4.67.5-8.41.39-.07-3.26 5.04-3.29 9.41-3.79.24 1.49-1.36 1.84-1 3.4z"
     fill="#7584d7"
     fill-rule="evenodd"
     id="path2153"
     style="fill:#0088aa;opacity:0.5" /><path
     d="m1762.15 889.27v483.78h-1751.72c-6.91-30.03-10.43-60.84-10.43-91.85v-391.93c0-68.74 30.16-130.44 77.97-172.58 40.53-35.74 93.75-57.42 152.03-57.42h1302.15c73.02 0 138.08 34.02 180.22 87.08 31.17 39.25 49.78 88.91 49.78 142.92z"
     fill="#b2bceb"
     id="path2155"
     style="fill:#00c0f0;fill-opacity:1" /><path
     d="m1713.37 752.08c-1.37-2.31-1.41-4.19-1-5.73-42.14-53.06-107.2-87.08-180.22-87.08h-1302.15c-58.28 0-111.5 21.68-152.03 57.42 22.4-1.11 46.25-1.26 71.12-2.76-.94-.15-2.38.09-2.45-.72 15.95.36 22.81 2.4 36.13-.02 12.06.84 34.48-1.17 40.88-1.07-1.1-.45-6.95-1.43-3.75-2.34 13.17 4.82 24.28 4.16 42.33 3.04 1.59 3.91 14.56 3.42 14.42-.67-3.92-.3-6.03.53-7.11 2-1.59-1.09-6.35.25-5.01-3.11 6.14-.23 25.25-2.03 15.77 1.77 18.45-3.88 24.47 2.02 40.89-1.07 3.42 7.93 25.57.24 24.35 4.72 4.32-2.27 11.16-2.17 15.72.93-10.26 2.64-17.52 1.39-23.88 3.63 3.97-.45 7.39-.46 8.51 1.28 5.19-2.99 10.55-2.83 15.62-.73-.41-3.71 4.83-.73 5.99-.28 1.33-2.78-3.92-.46-2.59-3.23 7.77-1.76 17.39-.94 25.37 1.32-2.22.22-3.98.75-4.71 1.9 6.63-1.54 14.43 2.59 15.52-2.4-2.52-.38-7.83 1.4-8.45-.44 8.6-1.84 14.95-1.11 20.52.71-1.59-.03-8.71.28-4.76 1.07 5.63.55 7.18-1.43 10.71-2.18 12.44 5.51 21.09 2.96 33.97 4.27 1.48-3.1 8.74-2.6 14.26-3.18.03 1.16.68 1.8 1.36 2.45.48 2.17-4.63.87-3.42 3.51 4.89 0 15.71-1.88 22.97 1.43 2.92-1.86 17.32-4.46 19.31.77-8.35 1.14-15.67 2.43-20.41.96-1.15 2.87-24.84-.44-22.63 4.4-1.11-1.17-1.95-2.56-4.95-2.27-1.66 1.39-5.31 2.75-8.12 5.39.26-5.99-7.03 3.14-8.54-2.11-3.91-.55-2.37 2.28-4.67 2.73-3.28-.66-4.83-2.66-8.6-2.95-26.97 7.65-58.31 1.6-85.23 4.83 6.1.53 13.71-.13 17.01 2.55-2.09.32-6.13-2.07-7.2.33 2.14.67 6 .01 7.29 1.34-6.4 1.72-10.97-2.51-13.3-1.05 6.94.1-.14 3.16.19 3.34 2.43 1.31 5.95-1.13 9.76 2.05.18-1.59-1.45-1.78-1.4-3.28 2.47.13 2.49 2.15 4.96 2.28 16.24-9.28 42.72-2.61 62.17-7.93 1.27 4.25 5.37 1.8 4.8-.23 5.49 1.02 6.42 2.75 8.69 4.62 4.68-5.84 19.63-.36 26.24-4.57 7.64 4.7 24.15-1.84 32.42-1.52-.94-.14-1.43-.63-1.29-1.62 4.23-.55 6.76-1.6 9.65.39-2.71 2.17-2.3-1.13-6.05-.55 8.96 5.55 22.51.26 35.03 1.71 1.79-1.3 4.57-1.98 7.05-2.85 2.36 2.24 9.02 1.18 14.52 1 .77-2.45 2.72-4.19 8.21-3.73-6.48-5.48-17.72-3.45-25.42-2.16 4.02-3.36-2.67-3.64 2.06-5.95 3.39 4.11 19.67.92 26.25 1.08-1.88-.15-3.62-.41-3.43-2.15 3.62-.2 10.16-2.73 13.21-.62-6.05-.31-4.51 3.17-8.41.39 2.43 2.49 5.43 4.53 9.95 5.4.74-2.62-4.19-.83-2.65-4.06 1.22-.05 1.4-.75 2.36-.95 1.77 2.23 13.17.3 9.85 3.72 8.66-1.77 21.71-1.68 25.47 3 14.5-2.63 25.86-5.57 40.69-4.42.28 1.24-.25 3.1 1.4 3.28.85-1.89 4.07-2.28 5.811-3.61.52 2.89 3.24-.23 3.7 1.5-1.68.29-1.27 1.89-2.25 2.61 2.77-.4 4.62-.08 6.04.56.76-2.62-4.19-.83-2.64-4.06 2.99-.02 3.65-1.49 5.91-1.95 4.81 2.87 11.81-2.91 20.47-.12-.32 1.14-1.62 1.66-1.01 3.39 4.4-.48 4.03-3.92 8.17-4.57-.22 1.21-1.9 1.51-2.27 2.61 5.66-6.32 20.24-.28 24.07-.28-1.32-.15-2.95-1.23-1.29-1.61 19.49.7 36.02-1.88 54.06-2.53.17.93-1.68 1.38.09 1.66 8.11-1.08 49.25-12.36 42.04-1.96.94.15 2.36-.08 2.45.72-1.41.2-3.42.02-3.55 1 3.78 1.14 10.52-1.71 15.51-2.39 1.26 1.06 2.12 2.42 3.8 3.17 8.58-6.27 15.11 2.57 24.06-.28.49 2.17-4.61.86-3.39 3.49 11.95-7.41 33.07-2.51 50.24-5.69.51 2.2-6.771-.47-4.66 2.73 12.37-2.9 35.97-1.09 51.55-4.09-3.52 2.71 4.5.95 5 3.12-10.25 6.07-21.8 1.52-35.74 6.69.73 1.18-1.15 4.38 1.45 4.11 3.44-7.93 18.62-3.96 28.48-7.18.59 1.29 3.82.53 2.6 3.22 9.07-5.25 27.57-4.92 41.99-2.8 3.36-3.82 11.79.01 17.92-2.51-2.54 1.36-1.64 4.88-5.72 5.3-1.52-2.13 3.5-3.78-1.39-3.29-1.229 6.2-17.04 2.8-20.17 5.12 3.09.06-1.57 1.51.18 3.34 5.04-2.54 9.82-.28 14.27-3.17 2.68 2.3 12.01 4.26 7.91.3 4.61 3.6 13.33-.1 17.61 3.52-13.11-.06-17.68 3.97-27.43 4.62 5.82 2.63 8.96.89 14.51 1 .11 1.15-.47 1.86-1.06 2.56 17.42-.35 28.97-1.74 42.34 3.05.12-.99-.36-2.36 1.05-2.55 7.89 3.08 22.16.95 30.13.25-1.48-.03-2.86-.12-2.51-1.55 5.26-.29 11.48-1.31 12.16 1.94 2.75-.44.93-3.71 4.61-3.56 3.82 1.69 5.65 4.92 10 6.23-3.97-3.08 15.99-5.72 10.86.32 7.52.2 11.47-2.46 16.96 1.72 2.13-1.63 3.86-3.5 6.96-4.51-1.26-7.96 1.22-9.02.33-15.08-6.3 2.08-10.93 3.29-13.36-1.88-1.21 2.29-10.86 2.61-13.22.61-7.89 5.65-19.54-.96-32.47.69.45-4.07-4.07-.8-6.25-3.9 4.32-.52 7.98-1.45 11.91-2.23-1.58 2.67.38 3.23 2.7 4.89 1.52-2.53 7.68-2.19 9.6-.44 1.23-3.56-5.14-1.25-6.19-3.06 4.57-1.43 10.16-2.24 14.21-4.01 2.58 4.54 11.44 3.86 16.96 1.72 2.49 1.83 2.5 2.12.25 4.17 10.89-4.16 24.61-3.64 32.47-.68 2.85-6.25 12.97 1.31 16.82-.79-1.75-.38-3-1.16-3.75-2.34 3.72.43 3.45-1.59 7.15-1.16-.08 3.26 4.65 2.81 7.46 3.82 1.061-1.6-3.76-2.61-.21-3.33 10.2.44 14.07.93 21.58-1.85 1.21 2.69.33 5.1 7.51 4.68-.18-1.45.11-2.62 1-3.39-.07-.02-.14-.04-.21-.06 3.93.45 7.44 1.63 11.01-1.18 1.56 3.7-4.48 4.03-8.18 4.46 7.82 0 12.97 8.79 15.79 2.61 12.01 1.46 20.23 4.52 32.9 6.82-.21 1.21-1.88 1.51-2.24 2.62 6.42 1.44 9.89-4.73 10.86.33-5.86.37-12.93-.01-15.521 2.4 2.24.01 4.04.36 4.91 1.44-5.41-1.71-.93 3.28-10.72 2.18 1.15 3.13-3.36 2.72-3.31 5.18 2.95 1.2 8.05.75 9.8 2.89-9.2 2.86-14.98 2.53-20.52-.72 1.72-.54 6.26.68 5.96-1.12-6.61.77 4.05-3.15-2.55-2.39-3.38 3.59-7.63 3.9-11.72 5.57 2.24-3.48-5.33 2.5-7.35-2.17-2.02.9-2.26 2.89-4.61 3.56-9.62-4.87-27.81-3.35-37.58-4.09 1.84.9 5.42.46 5 3.11-1.2.06-1.39.74-2.35.95-3.91-3.57-11.72.98-13.46-3.56-6.17.36-5.89 1.13-9.65-.38-.97 1.89.86 3.87-5.81 3.61.25-1.71 3.15-1.78 3.41-3.5-9.48.11-26.46 4.02-32.53-.15-14.91 13.57-40.48-3.27-52.6 6.64-.08-1.1-2.15-.67-2.5-1.56 3.15.35 4.3-.54 3.46-2.67-6.08.54-5.9.18-14.52-1 2.05 4.52 11.34 3.46 14.86 6.84-2.49 1.67-8.77.98-13.17 1.45 1.69 2.36 12.49 1.94 15.76 1.77.16 0 .49-2.72 2.26-2.61 1.68.11 3.22 2.2 4.96 2.29 8.06.42 19.55-4.31 24.1.54-4.27-.26-6.14.99-7.05 2.83 19.979-2.79 32.479-.88 55.24-2.58.06.84-.9 1.05-1.09 1.73 7.71-2.24 16.49.5 25.07-3.69-.22 1.21-1.9 1.51-2.26 2.62 4.99-.9 8.98-2.44 13.02-3.95-2.42 2.12 4.17 2.58 5.09 4.78-.32-1.81.83-2.69 3.47-2.67 2.72 1.08-1.41 2.11 1.34 2.45 6.12-1.28 13.12-2.02 17.83-4.19.15 1.53-6 3.12-2.17 4.29 7.3-4.67 27.83.43 34.979.88-3.61-.85 3.59-2.84 4.75-1.07 1.48-2.16-4.89-2.38-1.38-3.28 1.8 3.21 9.58.46 10.95 2 2.04 2.88-4.05.69-3.46 2.68 4.99 1.67 10.7 2.78 17.05 3.39-11.06 4.15-33.6-1.38-49.04 5.63 1.13 1.92 5.23-.94 7.16-1.17 1.11 5.46 4.19.26 7.35 2.17-2.64 6.89-12.92.14-17.93 2.51 1.47.02 2.87.11 2.51 1.56-1.21.05-1.39.74-2.36.94-7.53-.19-21-2.62-21.56 1.85-5.9-.13-10.81-5.58-15.86-3.44 6.31 1.22 12.18 2.79 14.85 6.83-.03 1.17-8.61.92-4.71 1.89 8.59-3.1 11.88-2.8 20.28-3.45-.97-1.3-5.87.46-4.95-2.28 3.64.09 9.28-1.36 9.71 1.22-3.42 1.5 2.05 4.29 2.53 2.38-3.29-.59.84-3.11 2.22-3.44.29 1.22 2.95.63 4.85.61 0 1.46.42 2.58 1.4 3.27 3.72-.08 5.68-1.29 8.3-2.05 15.53 3.87 36.43-5.95 51.22-4.12 2.93-2.42 9.08-.59 8.6-2.86 1.41.73 8.04 1.81 8.45.44-.81-1.42-5.69.33-6.1-1.39.19-.95 1.26-1.36 2.3-1.78 3.28 2.12 3.75.96 7.21-.34 1.23.8 2.47 1.58 3.74 2.33 7.42-1.59 10.69-1.46 17.93-2.5.12 1.14-.45 1.86-1.05 2.55 3.14-.99 6.061-1.15 8.45.45-3.44 1.07-5.94 2.73-8.16 4.56 5.19-1.59 13.72-1.11 15.36-4.9-2.16-.39-4.84 2.67-6 .28 3.65-.95 6.81-2.19 9.42-3.78-.07 1.5 1.31 1.89 3.68 1.49-2.52 2.23 1.66 4.53 3.96 5.67.62-3.08-2.79-3.07-2.75-5.72 5.62.45 1.19-1.37 3.52-1.84 6.12-.66 7 2.72 12.2 2.78-1.26 2.7-6.06 3.2-8.12 5.39 6.8.21 7.22-3.54 13.02-3.95-.02 2.1-2.13 2.72 1.39 3.28 7.29-5.5 22.78-4.51 32.19-5.69-1.72-1.97-3.54 1.67-4.85-.6.24-1.2 2.58-1.08 3.51-1.85.78 2.01 4.75 1.57 3.89 4.84 6.58-3.29 14.05-1.09 22.72-2.73 1.19 1.18 3.28 6.1 6.21 3.06-1.48-.03-2.86-.12-2.5-1.57 5.01-1.03 8.56-1.2 16.76-1.61 1.12 5.81 10.97 4.89 16.11 7.61 2.59-1.32-1.64-1.96 1.05-2.56 12.54 3.52 20.01 2.77 36.37 4.16-7.78 1.71 7.59.78 2.6 3.23 4.7-1.85 12.91-3.45 16.83-2.79-.82-.94-.61-3.46.9-3.07 2.52 1.38.51 3.07 4.89 1.45-.54 3.04.71 4.69 3.9 4.84 1.63-.59-.01-3.22 2.21-3.45 3.79 1.17 4.71.5 7.3 1.34-1.7.53-2.86 1.43-3.46 2.66 3.96-.76 2.04 1.63 1.34 2.45 3.76.59 7.44 1.24 9.81 2.88-.26-4.08-3.4-6.02-.54-9.17-3.81-.25-3.54-3.66-5.13-5.62 17.7-1.27 41.38.89 56.97 6.54-2.17 2.79-2 5.26 1.65 7.46 6.29-16.12 30.35 1.01 45.4-6.31 1.41-4.71-1.31-5.06-1.79-9.96 9.49.29 11.38-4.17 15.229-7.41 7.04-1.81 10.13-1.15 17.92-2.51.19 1.02.47 1.96 2.49 1.56 3.23-.92-3.28-1.4-1.44-4.11 8.15-.94 9.7-8.97 17.62-7.52zm-1384.88-39.01c3.68-3.73 8.5-1.77 15.46-3.23-2.97 2.16-10.38 4.95-15.46 3.23zm156.92 6.05c-3.63.78-4.42-.64-7.25-.5.85-1.92 7.88-3.13 7.25.5zm-16 14.97c2.53-2.44 8.58-.27 12.02-.56-2.06 2.1-9.37.91-12.02.56zm46.5-8.03c2.77.28 6.25 1.37 8.43-.39 2.99.81-8.98 5.57-8.43.39zm17.32 7.56c-2.92.66-7.94-.11-12.07-.27-.33-3.43 9.39-.59 10.68-3.01 4.22.03-1.96 3.8 1.39 3.28zm45.06-12.15c5.94-1.13 11.6-1.74 19.2-.89-6.14 2.26-12.7 1.9-19.2.89zm91.47-.93c-1.39-2.75 3.66-1.47 5.9-1.95 1.03 2.85-4.03 3.19-5.9 1.95zm149.17-2.79c2.01-1.8-.98-1.59 1.01-3.39 7.78 1.41 9.78 1.35 16.92.88-2.4 3.06-11.82 1.75-17.93 2.51zm20.38-1.79c-1.28-3.02 6.24-1.81 7.16-1.17-.92 1.65-5.14 2.5-7.16 1.17zm118.34 5.34c-.42-1.33 1.06-1.48 1.05-2.55 3.86-.37 5.17 1.23 9.66.38-.39 2.65-8.11 3.4-10.71 2.17zm20.37-1.79c4.41 1.15 5.81-.41 9.66.39-.29 2.77-10.17 2.7-9.66-.39zm124.64 10.09c-.36 1.42 1.03 1.52 2.49 1.55-2.28 2.19-4.58-2.26-8.39.39.13-.98-.36-1.48-1.3-1.61 2.59-1.86 2.33 1.67 7.2-.33zm-83.89 7.26c2.52-1.62 5.44-1.73 8.37-1.23-1.03 3.3-4.12.32-8.37 1.23zm10.91 1.16c1.02-1.5 3.65-2.02 7.12-2.01-.55 2.01-4.45 3.69-7.12 2.01zm2.87-12.69c.03-1.59 4.52.46 6.05.56-1.13 3.4-4.71.77-6.05-.56zm9.42-3.78c.01-2.14 3.93-1.84 7.11-2.01.5 2.66-5.08 3.28-7.11 2.01zm12.16 1.94c-1.38-.1-.72-.8-.05-.84.22-2.21-4.7-.44-3.8-3.16 2.91.2 2.521-1.66 5.96-1.12.57.71 1.13 1.43 2.5 1.55 0 2.16-4.62 1.42-4.61 3.57zm10.68 17.91c-.44-2.73 6.39-4.06 6-.28-1.52 1.14-4.37 1.28-6 .28zm.18-17.58c-.72-2.6 3.09-2.36 3.35-4.35 1.65.48 2.34 1.69 2.6 3.23-1.34.76-3.15 1.25-5.95 1.12zm147.88-4.41c1.66-.47 3.24-.53 4.75-.42-2.31.12-3.77 2.48-4.75.42zm21.71.66c-2.28-.23-1.18-3.07-4.73-2.32.31-.25.62-.53.93-.85 1.8.65 4.69.44 3.8 3.17zm30.13.26c-3.92-2.08-6.78-1.6-10.96-1.99 2.15-1.61 13.04-2.56 10.96 1.99zm-55.7 36.08c1.59-1.35 6.07-2.66 8.36-1.22-.42 1.89-5.91.61-8.36 1.22zm60.43-17.05c.88-.79 1.17-1.94.99-3.39 3.68-.8 2.45 2.18 6.11 1.39-.01 2.14-3.93 1.84-7.1 2zm-16.04 35.06c.75-1.89 5.49-3.04 7.12-2-1.02 1.51-3.66 2.01-7.12 2zm8.75 5.45c-1.59.07-3.2.15-4.8.23-1.13-3.18 5.57-3.49 4.8-.23zm20.22-4.3c-6.07.13-10.73-2.78-15.7-.94-1.12-1.16-1.15-3.18-4.95-2.27 6.5-4.16 17.59-.39 23.97-1.96-1.99 1.17-3.09 2.9-3.32 5.17zm-9.78-43.88c-.05-.84-.09-1.67-.14-2.51 5.76-2.22 8.97.2 15.71.94-4.76 2.29-9.82-.37-15.57 1.57zm44.64 1.25c-5.73-2.43-17.38-3.57-19.26.07-2.14-.11-2.82-1.31-2.6-3.23-3.46.89-1.28 1.31-1.01 3.39-3.49-.21-3.04-3.46-6.25-3.88 9.97-2.98 18.23 1.55 30.03-1.41-1.08 2.1-.3 1.8-.91 5.06zm11.96-1.39c-2.78-1.81-4.67.51-8.4.39-.08-3.26 5.04-3.29 9.41-3.79.24 1.49-1.37 1.84-1.01 3.4zm195.49 47.76c-3.15.39-1.14-3.19-4.95-2.28 2.76-3.55 6.19.45 10.86.33.67 2.3-6.59-.35-5.91 1.95zm60.81-10.38c-5.939 2.45-9.95 2.55-16.66 3.29-1.61-1.02-1.72-3-.25-4.17-3.83-.81-8.41-1.06-11-2.83 6.84-1.55 13.7 1.39 20.32-2.62 4.24-.38 2.61 3.8 7.4 2.99 1.24 1.5-3.43 2.96.189 3.34zm91.25-46.11c-4.91-2.01-12.16-2.22-12.5-7.79 3.82-1.33 9.29-1.48 6.97-4.5 8.96-1.39 12.83 8.68 5.53 12.29zm-137.55 57.49c-.31-.12-.68-.21-1.09-.28.26.3.63.44 1.09.28zm-238.69-3.9c-.11-.02-.22-.03-.34-.04-.04.03-.08.06-.11.1.14-.02.3-.04.45-.06zm-1.15.88c.2-.31.43-.58.69-.82-.52.09-.9.27-.69.82zm-733.3-53.77c.51.04 1.03.07 1.52.12-.42-.07-.93-.11-1.52-.12z"
     fill="#91a0e2"
     fill-rule="evenodd"
     id="path2157"
     style="fill:#0088aa;opacity:0.5" /><path
     d="m1762.15 889.27v483.78h-1231.72c-6.91-30.03-10.43-60.84-10.43-91.85v-391.93c0-127.02 102.98-230 230-230h782.15c127.03 0 230 102.98 230 230z"
     fill="#fff"
     id="path2159" /><path
     d="m1762.15 1373.05-33.32 223.7c-15.33 102.9-103.68 179.06-207.71 179.06h-677.99c-81.27 0-155.25-46.9-189.93-120.4l-94.01-199.28c-12.57-26.67-22.2-54.52-28.76-83.08z"
     fill="#fff"
     id="path2161" /><path
     d="m1521.12 1780.81h-677.99c-40.825 0-80.63-11.555-115.113-33.415-34.482-21.859-61.917-52.93-79.338-89.852l-94.01-199.281c-12.678-26.9-22.473-55.193-29.111-84.094-.341-1.484.013-3.043.962-4.234s2.388-1.885 3.911-1.885h1231.719c1.455 0 2.837.634 3.787 1.735.95 1.102 1.373 2.563 1.158 4.001l-33.32 223.701c-7.591 50.951-33.258 97.534-72.273 131.167s-88.871 52.156-140.382 52.156zm-984.361-402.76c6.422 26.077 15.477 51.598 26.954 75.948l94.009 199.279c33.688 71.398 106.465 117.533 185.408 117.533h677.99c100.749 0 187.918-75.146 202.765-174.797l32.465-217.964h-1219.591z"
     fill="#91a0e2"
     id="path2163"
     style="fill:#00aad4;fill-opacity:1" /><path
     d="m.003 934.79h520v327.455h-520z"
     id="path2165" /><path
     d="m.003 934.79h520v327.455h-520z"
     id="path2167" /><circle
     cx="706.712"
     cy="858.52"
     r="64.735"
     id="circle2173" /><path
     d="m1762.15 1378.05h-1231.72c-2.33 0-4.35-1.609-4.873-3.879-7.005-30.444-10.558-61.724-10.558-92.971v-391.93c0-62.768 24.445-121.781 68.832-166.168s103.4-68.832 166.168-68.832h782.15c62.772 0 121.786 24.445 166.172 68.832 44.385 44.386 68.828 103.399 68.828 166.168v483.78c0 2.761-2.239 5-5 5zm-1227.719-10h1222.719v-478.78c0-124.065-100.935-225-225-225h-782.15c-124.065 0-225 100.935-225 225v391.93c0 29.168 3.171 58.365 9.431 86.85z"
     fill="#91a0e2"
     id="path2175"
     style="fill:#00aad4;fill-opacity:1" /><g
     fill="#576cc0"
     id="g2183"><path
       d="m942.977 1723.957c0-76.022-51.417-140.024-121.369-159.157v-5.803h-40.467c-1.053-.02-2.106-.04-3.164-.04s-2.111.02-3.164.04h-.465v.006c-89.45 1.931-161.371 75.041-161.371 164.954s71.921 163.023 161.371 164.954v.046h47.26v-5.843c69.952-19.133 121.369-83.135 121.369-159.157z"
       id="path2177"
       style="fill:#006680" /><path
       d="m1347.977 1723.957c0-76.022-51.417-140.024-121.369-159.157v-5.803h-40.467c-1.053-.02-2.106-.04-3.164-.04s-2.111.02-3.164.04h-.465v.006c-89.45 1.931-161.371 75.041-161.371 164.954s71.921 163.023 161.371 164.954v.046h47.26v-5.843c69.952-19.133 121.369-83.135 121.369-159.157z"
       id="path2179"
       style="fill:#006680" /><path
       d="m1752.977 1723.957c0-76.022-51.417-140.024-121.369-159.157v-5.803h-40.467c-1.053-.02-2.106-.04-3.164-.04s-2.111.02-3.164.04h-.465v.006c-89.45 1.931-161.371 75.041-161.371 164.954s71.921 163.023 161.371 164.954v.046h47.26v-5.843c69.952-19.133 121.369-83.135 121.369-159.157z"
       id="path2181"
       style="fill:#006680" /></g><circle
     cx="817.977"
     cy="1723.957"
     fill="#91a0e2"
     r="165"
     id="circle2185"
     style="fill:#00aad4" /><path
     d="m817.977 1845.149c-66.825 0-121.192-54.367-121.192-121.192s54.367-121.192 121.192-121.192 121.192 54.367 121.192 121.192-54.367 121.192-121.192 121.192zm0-232.384c-61.312 0-111.192 49.88-111.192 111.192s49.88 111.192 111.192 111.192 111.192-49.88 111.192-111.192-49.881-111.192-111.192-111.192z"
     fill="#fbf8f2"
     id="path2187" /><circle
     cx="1222.977"
     cy="1723.957"
     fill="#91a0e2"
     r="165"
     id="circle2189"
     style="fill:#00aad4" /><path
     d="m1222.977 1845.149c-66.825 0-121.192-54.367-121.192-121.192s54.367-121.192 121.192-121.192 121.192 54.367 121.192 121.192-54.367 121.192-121.192 121.192zm0-232.384c-61.312 0-111.192 49.88-111.192 111.192s49.88 111.192 111.192 111.192 111.192-49.88 111.192-111.192-49.881-111.192-111.192-111.192z"
     fill="#fbf8f2"
     id="path2191" /><circle
     cx="1627.977"
     cy="1723.957"
     fill="#91a0e2"
     r="165"
     id="circle2193"
     style="fill:#00aad4" /><path
     d="m1627.977 1845.149c-66.825 0-121.192-54.367-121.192-121.192s54.367-121.192 121.192-121.192 121.192 54.367 121.192 121.192-54.367 121.192-121.192 121.192zm0-232.384c-61.312 0-111.192 49.88-111.192 111.192s49.88 111.192 111.192 111.192 111.192-49.88 111.192-111.192-49.881-111.192-111.192-111.192z"
     fill="#fbf8f2"
     id="path2195" /><path
     d="m682.622 851.837s89.642-299.396 89.642-299.396c2.955-9.869 13.351-15.474 23.22-12.519 9.613 2.878 15.17 12.855 12.722 22.489 0 0-77.403 302.791-77.403 302.791-3.42 13.38-17.039 21.454-30.419 18.033-13.733-3.475-21.851-17.841-17.761-31.398z"
     id="path2197" /><g
     inkscape:label="Layer 1"
     id="layer1"
     transform="matrix(8.7835138,0,0,8.7835138,197.26118,-192.30139)"
     style="fill:#00aad4;fill-opacity:1"><flowRoot
       xml:space="preserve"
       id="flowRoot3721"
       style="font-style:normal;font-variant:normal;font-weight:bold;font-stretch:extra-expanded;font-size:40px;line-height:1.25;font-family:'FOT-Rodin Pro';-inkscape-font-specification:'FOT-Rodin Pro Bold Extra-Expanded';letter-spacing:0px;word-spacing:0px;fill:#00aad4;fill-opacity:1;stroke:none"
       transform="scale(0.26458333)"><flowRegion
         id="flowRegion3723"
         style="font-style:normal;font-variant:normal;font-weight:bold;font-stretch:extra-expanded;font-family:'FOT-Rodin Pro';-inkscape-font-specification:'FOT-Rodin Pro Bold Extra-Expanded';fill:#00aad4;fill-opacity:1"><rect
           id="rect3725"
           width="697.14288"
           height="300"
           x="62.857143"
           y="448.23398"
           style="font-style:normal;font-variant:normal;font-weight:bold;font-stretch:extra-expanded;font-family:'FOT-Rodin Pro';-inkscape-font-specification:'FOT-Rodin Pro Bold Extra-Expanded';fill:#00aad4;fill-opacity:1" /></flowRegion><flowPara
         id="flowPara3727" /></flowRoot><g
       aria-label="open"
       id="text3731"
       style="font-size:10.5833px;line-height:1.25;letter-spacing:0px;word-spacing:0px;fill:#00aad4;fill-opacity:1;stroke-width:0.264583"><path
         d="m 73.975683,147.61292 c 0,-8.9408 -5.4356,-14.732 -14.3764,-14.732 -8.8392,0 -14.4272,5.7912 -14.4272,14.732 0,8.89 5.588,14.6812 14.4272,14.6812 8.9408,0 14.3764,-5.7912 14.3764,-14.6812 z m -7.3152,0 c 0,5.588 -2.794,8.9408 -7.0612,8.9408 -4.1148,0 -7.112,-3.4544 -7.112,-8.9408 0,-5.588 2.9972,-8.9408 7.112,-8.9408 4.2672,0 7.0612,3.3528 7.0612,8.9408 z"
         style="font-weight:bold;font-stretch:extra-expanded;font-size:50.8px;font-family:'FOT-Rodin Pro';-inkscape-font-specification:'FOT-Rodin Pro Bold Extra-Expanded';fill:#00aad4;fill-opacity:1"
         id="path5338" /><path
         d="m 106.94489,147.56212 c 0,-9.6012 -5.1308,-14.6812 -12.5984,-14.6812 -3.352799,0 -7.111999,1.6764 -8.127999,4.5212 v -3.9116 h -6.5532 v 37.9984 h 7.2136 v -11.938 c 1.524,1.6256 4.7752,2.7432 7.518399,2.7432 7.366,0 12.5476,-5.0292 12.5476,-14.732 z m -7.3152,0 c 0,6.096 -2.8448,9.0932 -6.7056,9.0932 -2.997199,0 -4.927599,-1.778 -6.197599,-3.8608 v -7.7724 c 0,-3.6068 2.7432,-6.35 6.1468,-6.35 4.114799,0 6.756399,2.8956 6.756399,8.89 z"
         style="font-weight:bold;font-stretch:extra-expanded;font-size:50.8px;font-family:'FOT-Rodin Pro';-inkscape-font-specification:'FOT-Rodin Pro Bold Extra-Expanded';fill:#00aad4;fill-opacity:1"
         id="path5340" /><path
         d="m 138.1869,148.01932 c 0,-0.254 0,-0.508 0,-0.762 0,-8.6868 -5.08,-14.3764 -13.208,-14.3764 -8.7884,0 -13.8684,6.35 -13.8684,14.6812 0,8.9916 5.588,14.732 14.0716,14.732 6.1468,0 9.7536,-2.1336 12.7508,-6.096 l -3.556,-4.3688 c -1.778,3.048 -5.1308,4.7244 -8.7376,4.7244 -4.064,0 -7.3152,-2.0828 -7.874,-5.9436 z m -6.8072,-4.3688 -13.716,1.8288 c 0.254,-4.5212 3.0988,-6.9596 7.2644,-6.9596 3.6068,0 6.1468,1.9304 6.4516,5.1308 z"
         style="font-weight:bold;font-stretch:extra-expanded;font-size:50.8px;font-family:'FOT-Rodin Pro';-inkscape-font-specification:'FOT-Rodin Pro Bold Extra-Expanded';fill:#00aad4;fill-opacity:1"
         id="path5342" /><path
         d="m 169.73367,161.68452 v -18.796 c 0,-5.6896 -4.1148,-10.0076 -10.2616,-10.0076 -4.67359,0 -7.82319,1.6256 -9.14399,4.2164 v -3.6068 h -6.604 v 28.194 h 7.2136 v -18.4404 c 0.9144,-2.9464 3.556,-4.572 6.50239,-4.572 2.8956,0 5.0292,1.8796 5.0292,5.2324 v 17.78 z"
         style="font-weight:bold;font-stretch:extra-expanded;font-size:50.8px;font-family:'FOT-Rodin Pro';-inkscape-font-specification:'FOT-Rodin Pro Bold Extra-Expanded';fill:#00aad4;fill-opacity:1"
         id="path5344" /></g><flowRoot
       xml:space="preserve"
       id="flowRoot4598"
       style="font-style:normal;font-weight:normal;font-size:40px;line-height:1.25;font-family:sans-serif;letter-spacing:0px;word-spacing:0px;fill:#00aad4;fill-opacity:1;stroke:none"
       transform="scale(0.26458333)"><flowRegion
         id="flowRegion4600"
         style="fill:#00aad4;fill-opacity:1"><rect
           id="rect4602"
           width="237.14285"
           height="168.57143"
           x="554.28571"
           y="536.80542"
           style="fill:#00aad4;fill-opacity:1" /></flowRegion><flowPara
         id="flowPara4604" /></flowRoot><flowRoot
       xml:space="preserve"
       id="flowRoot4606"
       style="font-style:normal;font-weight:normal;font-size:40px;line-height:1.25;font-family:sans-serif;letter-spacing:0px;word-spacing:0px;fill:#00aad4;fill-opacity:1;stroke:none"
       transform="scale(0.26458333)"><flowRegion
         id="flowRegion4608"
         style="fill:#00aad4;fill-opacity:1"><rect
           id="rect4610"
           width="151.42857"
           height="45.714287"
           x="548.57141"
           y="525.37683"
           style="fill:#00aad4;fill-opacity:1" /></flowRegion><flowPara
         id="flowPara4612" /></flowRoot></g><ellipse
     cx="150.03201"
     cy="1066.9194"
     fill="#ffffff"
     rx="30.91"
     ry="50.757999"
     id="ellipse2169" /><ellipse
     cx="369.03198"
     cy="1066.9194"
     fill="#ffffff"
     rx="31.851999"
     ry="52.305"
     id="ellipse2171" /><path
     sodipodi:type="star"
     style="fill:#ffffff;fill-opacity:1"
     id="path6967"
     inkscape:flatsided="false"
     sodipodi:sides="3"
     sodipodi:cx="117.34775"
     sodipodi:cy="1150.6917"
     sodipodi:r1="48.721828"
     sodipodi:r2="24.360914"
     sodipodi:arg1="0.52359878"
     sodipodi:arg2="1.5707963"
     inkscape:rounded="0"
     inkscape:randomized="0"
     d="m 159.54209,1175.0526 -42.19434,0 -42.194343,0 21.09717,-36.5414 21.097173,-36.5414 21.09717,36.5414 z"
     inkscape:transform-center-y="-6.6738481"
     transform="matrix(1,0,0,0.54791436,141.71325,538.59236)" /><text
     xml:space="preserve"
     style="font-size:13.3333px;font-family:'Arial Rounded MT Bold';-inkscape-font-specification:'Arial Rounded MT Bold, ';text-align:center;text-anchor:middle;fill:#ffffff;fill-opacity:1"
     x="881.07501"
     y="403.31168"
     id="text8487"><tspan
       sodipodi:role="line"
       id="tspan8485" /></text><text
     xml:space="preserve"
     style="font-size:13.3333px;font-family:'Arial Rounded MT Bold';-inkscape-font-specification:'Arial Rounded MT Bold, ';text-align:center;text-anchor:middle;fill:#ffffff;fill-opacity:1"
     x="881.07501"
     y="517.24158"
     id="text8491"><tspan
       sodipodi:role="line"
       id="tspan8489" /></text><g
     style="fill:#ffffff"
     id="g6536"
     transform="matrix(13.341225,0,0,13.341225,918.0363,347.20636)"><path
       style="fill:#ffffff"
       d="m 18,13 a 1,1 0 0 1 1,1 v 6 a 1,1 0 0 1 -2,0 v -6 a 1,1 0 0 1 1,-1 z"
       id="path10029" /><path
       style="fill:#ffffff"
       d="m 23,14 v 6 a 1,1 0 0 1 -2,0 v -6 a 1,1 0 0 1 2,0 z"
       id="path10027" /><path
       style="fill:#ffffff"
       d="m 9,18 a 3,3 0 0 0 6,0 v -2 a 3,3 0 0 0 -6,0 z m 2,-2 a 1,1 0 0 1 2,0 v 2 a 1,1 0 0 1 -2,0 z"
       id="path10025" /><path
       style="fill:#ffffff"
       d="m 7,18 v -2 a 3,3 0 0 0 -6,0 v 2 a 3,3 0 0 0 6,0 z m -4,0 v -2 a 1,1 0 0 1 2,0 v 2 a 1,1 0 0 1 -2,0 z"
       id="path10023" /><path
       style="fill:#ffffff"
       d="m 23,4 v 6 a 1,1 0 0 1 -2,0 V 4 a 1,1 0 0 1 2,0 z"
       id="path10021" /><path
       style="fill:#ffffff"
       d="M 10,11 A 1,1 0 0 1 9,10 V 4 a 1,1 0 0 1 2,0 v 6 a 1,1 0 0 1 -1,1 z"
       id="path10019" /><path
       style="fill:#ffffff"
       d="m 19,6 a 3,3 0 0 0 -6,0 v 2 a 3,3 0 0 0 6,0 z M 17,8 A 1,1 0 0 1 15,8 V 6 a 1,1 0 0 1 2,0 z"
       id="path10017" /><path
       style="fill:#ffffff"
       d="M 4,11 A 3,3 0 0 0 7,8 V 6 A 3,3 0 0 0 1,6 v 2 a 3,3 0 0 0 3,3 z M 3,6 A 1,1 0 0 1 5,6 V 8 A 1,1 0 0 1 3,8 Z"
       id="path6527" /></g></svg>
